<?xml version="1.0" standalone="no"?>
<!DOCTYPE svg PUBLIC "-//W3C//DTD SVG 1.1//EN" "http://www.w3.org/Graphics/SVG/1.1/DTD/svg11.dtd" >
<svg>
<metadata>
Created by FontForge 20090914 at Wed Sep 12 13:59:49 2012
 By www-data
Copr. 1993 House Industries, Brand Design Company.
</metadata>
<defs>
<font id="Crackhouse" horiz-adv-x="390" >
  <font-face 
    font-family="Crackhouse"
    font-weight="400"
    font-stretch="normal"
    units-per-em="1000"
    panose-1="0 0 0 0 0 0 0 0 0 0"
    ascent="800"
    descent="-200"
    x-height="472.999"
    cap-height="650"
    bbox="-0.404224 -178.998 831.57 838"
    underline-thickness="20"
    underline-position="-120"
    unicode-range="U+0020-U+2026"
  />
<missing-glyph horiz-adv-x="550" 
d="M0 0v450h450v-450h-450zM50 50h350v350h-350v-350z" />
    <glyph glyph-name=".notdef" horiz-adv-x="550" 
d="M0 0v450h450v-450h-450zM50 50h350v350h-350v-350z" />
    <glyph glyph-name="space" unicode=" " horiz-adv-x="183" 
 />
    <glyph glyph-name="exclam" unicode="!" horiz-adv-x="204" 
d="M123 603c-1.33301 -4.66699 -1.49805 -9.66211 -0.498047 -14.9951s-1.83301 -9.33301 -8.5 -12c6 -4.66699 8.66699 -9.5 8 -14.5s-2 -9.83301 -4 -14.5s-3.66699 -9.33398 -5 -14.001s-0.333008 -9 3 -13c2.66699 -26 3.33398 -52.333 2.00098 -79
s-3.5 -53.667 -6.5 -81l-9 -82c-3 -27.333 -4.83301 -54.333 -5.5 -81c-6.66699 -2 -11.834 -1.33301 -15.501 2s-7.83398 6.66602 -12.501 9.99902c-0.666992 4.66699 -0.166992 9.66699 1.5 15s-0.166016 9.33301 -5.49902 12l-25 -13c-6.66699 10 -11 21 -13 33
s-2.33301 24.333 -1 37c6 2 9.66699 5 11 9s2 8.16699 2 12.5s0.166992 8.66602 0.5 12.999s2.5 7.83301 6.5 10.5c-2.66699 6.66699 -6.66699 9.33398 -12 8.00098s-10 -1.33301 -14 0c-4 57.333 -7.66699 114.833 -11 172.5s-6.33301 115.5 -9 173.5
c6.66699 5.33301 13.167 7.66602 19.5 6.99902s12.666 -1.83398 18.999 -3.50098s12.666 -2.83398 18.999 -3.50098s12.833 2 19.5 8l6 -8c4.66699 4.66699 11 7 19 7s14.667 -2 20 -6c6 -6 9.5 -12.833 10.5 -20.5s0.833008 -15.5 -0.5 -23.5s-3 -16 -5 -24
s-3.33301 -15.667 -4 -23v1zM122.002 121.005c4 -19.333 6.66797 -41.334 8.00098 -66.001s-3.66699 -45.667 -15 -63c-4.66699 4 -10.334 6.16699 -17.001 6.5s-13.334 0.833008 -20.001 1.5l-8 -7c-7.33301 7.33301 -12.833 17.333 -16.5 30s-8.5 24.334 -14.5 35.001
c-12.667 -9.33301 -23.667 -7.66602 -33 5.00098l1 51c8 -0.666992 16.5 -0.333984 25.5 0.999023s14.833 1 17.5 -1l34 5.5c10.667 1.66699 23.334 2.16699 38.001 1.5zM69.0029 506.004c-2 -3.33301 -2 -7 0 -11c-1.33301 4 -1.33301 7.66699 0 11zM77.0029 378.004h-13
l-20 -31z" />
    <glyph glyph-name="quotedbl" unicode="&#x22;" horiz-adv-x="336" 
d="M240 656c-1.33301 -24 -1.16602 -48.499 0.500977 -73.499s2.83398 -49.833 3.50098 -74.5s0.166992 -48.834 -1.5 -72.501s-5.83398 -46.167 -12.501 -67.5c-22 -2.66699 -37.5 -0.333984 -46.5 6.99902s-14.667 17.5 -17 30.5s-3 27.5 -2 43.5s0.5 31 -1.5 45
c0 14.667 -0.333008 36.334 -1 65.001s-1.33398 55 -2.00098 79zM80 653.001c-1.33301 -20 -1.16602 -40.5 0.500977 -61.5s2.66699 -41.833 3 -62.5s-0.333984 -40.834 -2.00098 -60.501s-6.16699 -38.167 -13.5 -55.5c-2.66699 7.33301 -6.5 12.166 -11.5 14.499
s-10.333 3.33301 -16 3s-11.667 -1.16602 -18 -2.49902s-12.5 -1.66602 -18.5 -0.999023l-4 224z" />
    <glyph glyph-name="numbersign" unicode="#" 
d="M299 556c0 -8 0.168945 -16 0.501953 -24s-3.83398 -14 -12.501 -18c-4 2.66699 -9.33301 4.5 -16 5.5s-12.834 2.5 -18.501 4.5s-9.66699 5.16699 -12 9.5s-1.5 11.166 2.5 20.499c4.66699 10.667 14 16.334 28 17.001s23.333 -4.33301 28 -15zM332.002 333
l-23.4951 -0.00195312c-7.66699 0 -13.834 4.33301 -18.501 13c-10 -9.33301 -17.5 -19.833 -22.5 -31.5s-9 -23.5 -12 -35.5s-5.83301 -24.333 -8.5 -37s-6.33398 -24.667 -11.001 -36l12.5 -13c3.66699 -4 4.83398 -9 3.50098 -15c-10 4 -18.5 10.833 -25.5 20.5
s-12.167 20.5 -15.5 32.5s-4.16602 24.333 -2.49902 37s5.83398 24 12.501 34l14 14c-4.66699 2.66699 -9.5 6.16699 -14.5 10.5s-10 7.83301 -15 10.5s-9.83301 3.83398 -14.5 3.50098s-8.66699 -3.83301 -12 -10.5c-4.66699 3.33301 -8.83398 7 -12.501 11
s-8.83398 4.66699 -15.501 2c-10.667 -10 -16.334 -22.167 -17.001 -36.5l-2 -43.5c-0.666992 -14.667 -3.5 -28.334 -8.5 -41.001s-16.833 -22.667 -35.5 -30c-4 -5.33301 -9 -9.33301 -15 -12s-8 -7.33398 -6 -14.001l32 -33c-4.66699 10 -3.66699 18.167 3 24.5
s15.667 11 27 14s23.5 4 36.5 3s23.5 -4.16699 31.5 -9.5c-32.667 -7.33301 -54.667 -21 -66 -41s-19.833 -41.5 -25.5 -64.5s-12.667 -45 -21 -66s-25.833 -35.833 -52.5 -44.5c2 15.333 5 30.166 9 44.499s7.66699 28.833 11 43.5s5.66602 29.834 6.99902 45.501
s0.333008 31.834 -3 48.501l-56 42c11.333 0.666992 21.166 3.66699 29.499 9s16.5 11.666 24.5 18.999l25 23c8.66699 8 19 15 31 21c-4 3.33301 -8 7 -12 11s-9.33301 4.33301 -16 1l10.5 34c3.66699 11.333 4.5 24 2.5 38c-4 6 -8.83301 9.83301 -14.5 11.5
s-11.667 2.33398 -18 2.00098s-12.833 -1 -19.5 -2s-13 -1.16699 -19 -0.5v28c6.66699 1.33301 14 1.83301 22 1.5s15.667 -0.5 23 -0.5s14.333 1 21 3s12.667 6.33301 18 13c-0.666992 8 -0.833984 16 -0.500977 24s-0.333984 15.667 -2.00098 23s-4.5 14 -8.5 20
s-10.333 11 -19 15c4.66699 1.33301 8.83398 1.66602 12.501 0.999023s7 -1 10 -1s5.83301 0.833008 8.5 2.5s5 5.5 7 11.5c-6 3.33301 -9.16699 7.83301 -9.5 13.5s0.666992 11.834 3 18.501l7 20.5c2.33301 7 3.16602 13.5 2.49902 19.5c3.33301 8.66699 9 13 17 13
s15.667 0.333008 23 1c5.33301 -14 5.5 -32 0.5 -54s-8.66699 -44 -11 -66s-0.333008 -41.5 6 -58.5s23.5 -27.167 51.5 -30.5c20 10 29.833 22 29.5 36s-1.5 27.333 -3.5 40s-0.666992 22.834 4 30.501s22 10.167 52 7.5c2 -6.66699 1 -12 -3 -16s-7.66699 -8 -11 -12
l12 -11.5c4.66699 -4.33301 10 -5.16602 16 -2.49902l14 15l14 -14l-54 -43c7.33301 -9.33301 15.833 -15.333 25.5 -18s19.834 -5.66699 30.501 -9v-28zM224.007 135.998c5.33301 -34.667 4.33203 -66.5 -3.00098 -95.5l-21 -86.5l-42 -2
c5.33301 14.667 8.83301 31.667 10.5 51s3.83398 38 6.50098 56s7.5 34 14.5 48s18.5 23.667 34.5 29z" />
    <glyph glyph-name="dollar" unicode="$" horiz-adv-x="406" 
d="M319 266c7.33301 -27.333 8.83496 -55.498 4.50195 -84.498s-9.83301 -56.5 -16.5 -82.5c-8.66699 -6 -16 -8.5 -22 -7.5s-11.667 3.16699 -17 6.5l-17 10.5c-6 3.66699 -13.333 4.83398 -22 3.50098c6 14 9.16699 27.833 9.5 41.5s0 27.5 -1 41.5s-1.5 28 -1.5 42
s2.33301 28.333 7 43c-4 2 -7.33301 4.83301 -10 8.5s-6 4.83398 -10 3.50098l-7 -7c-1.33301 -5.33301 -1.33301 -14.333 0 -27s-0.666992 -23 -6 -31c1.33301 -25.333 1.33301 -51.333 0 -78s1 -51.667 7 -75c3.33301 5.33301 8.16602 7.33301 14.499 6
s12.166 -1.66602 17.499 -0.999023c7.33301 -4.66699 12 -10 14 -16s2.66699 -12 2 -18s-1.66699 -12 -3 -18s-1.33301 -12 0 -18c-4.66699 -0.666992 -9.83398 -0.833984 -15.501 -0.500977s-11 0.333008 -16 0s-9.33301 -1.83301 -13 -4.5
s-5.83398 -7.33398 -6.50098 -14.001c5.33301 -14.667 7.33301 -31.334 6 -50.001s-1.33301 -36.334 0 -53.001c-4 0 -7.83301 -0.166992 -11.5 -0.5s-6.16699 -2.16602 -7.5 -5.49902c-2.66699 4.66699 -5.33398 6.83398 -8.00098 6.50098s-5.16699 -1.33301 -7.5 -3
s-5 -3.33398 -8 -5.00098s-6.16699 -1.16699 -9.5 1.5l-19 109c-6.66699 -6.66699 -14.167 -7.83398 -22.5 -3.50098s-16.166 7.5 -23.499 9.5v13c12 -0.666992 19.5 1.83301 22.5 7.5s8.5 11.5 16.5 17.5c-9.33301 4 -20.166 3.33301 -32.499 -2
s-24.833 -6.66602 -37.5 -3.99902c-10.667 17.333 -22.167 31.166 -34.5 41.499s-22.833 24.5 -31.5 42.5c-4 12 -4 20.5 0 25.5s9.66699 8.5 17 10.5s15.166 3.66699 23.499 5s14.5 4.66602 18.5 9.99902c12 2 20.833 -3.33301 26.5 -16s9.83398 -24.334 12.501 -35.001
c4.66699 -7.33301 5.5 -12.666 2.5 -15.999s-6.66699 -6.16602 -11 -8.49902s-7.83301 -4.83301 -10.5 -7.5s-1 -7.33398 5 -14.001c7.33301 4 14.5 7.66699 21.5 11s15.167 4.33301 24.5 3l12 -13c-1.33301 18.667 0 40.167 4 64.5s6.16699 48.166 6.5 71.499
s-3.16699 44.333 -10.5 63s-22.666 31.667 -45.999 39c-8 -4 -13.167 -2.66699 -15.5 4s-5.16602 12 -8.49902 16c-12.667 12.667 -21.5 29.334 -26.5 50.001s-11.167 40 -18.5 58v39c6 2.66699 11.333 2.83398 16 0.500977s9.16699 -5 13.5 -8s8.66602 -5 12.999 -6
s9.5 1.5 15.5 7.5c-6 0.666992 -9.83301 3 -11.5 7s-2.5 8.5 -2.5 13.5s0.333008 10.333 1 16s0.666992 10.5 0 14.5c-0.666992 4.66699 0.833008 8.83398 4.5 12.501s4.5 8.16699 2.5 13.5c-2 1.33301 -3.83301 2.83301 -5.5 4.5s-4.16699 1.83398 -7.5 0.500977l-6 -5
c-6.66699 4.66699 -10 10 -10 16s1.5 12.167 4.5 18.5s6.83301 12.666 11.5 18.999s8.33398 12.166 11.001 17.499c6 4 12.667 7.33301 20 10s14.166 5.83398 20.499 9.50098s11.333 8.16699 15 13.5s4.5 13 2.5 23c8 1.33301 16.667 2.33301 26 3s17.833 0 25.5 -2
s13.5 -5.83301 17.5 -11.5s4.66699 -14.834 2 -27.501c24 1.33301 43.5 -3.83398 58.5 -15.501s27.833 -25.5 38.5 -41.5l1 -13c-9.33301 3.33301 -19 4 -29 2l-28 -5.5c-8.66699 -1.66699 -16.5 -1.33398 -23.5 0.999023s-12.5 9.5 -16.5 21.5l-6 -6l-14 14
c-8 -22 -10.833 -42 -8.5 -60s6.16602 -35.667 11.499 -53s10.333 -35 15 -53s5.33398 -38 2.00098 -60l45 -32c9.33301 2.66699 17 1.83398 23 -2.49902s11.167 -10 15.5 -17s8.5 -14.833 12.5 -23.5s8.33301 -16 13 -22zM139.002 558.002
c-2 -6 -6.33301 -10.999 -13 -14.999l-6 6c-2.66699 -6 -4.5 -12.833 -5.5 -20.5s-2.16699 -15.167 -3.5 -22.5s-3.66602 -14 -6.99902 -20s-9 -10.667 -17 -14c2 -4.66699 5 -6.83398 9 -6.50098s8 0.5 12 0.5c9.33301 -5.33301 14.666 -12.333 15.999 -21
s4.33301 -17 9 -25c4.66699 21.333 6.66699 44 6 68s-1 47.667 -1 71z" />
    <glyph glyph-name="percent" unicode="%" horiz-adv-x="482" 
d="M141 456c8.66699 -8.66699 12.5029 -17.3359 11.5029 -26.0029s-4.16699 -17.5 -9.5 -26.5s-11.333 -18.167 -18 -27.5s-11 -18.666 -13 -27.999c-22 -6.66699 -39.833 -4 -53.5 8s-26.834 24.333 -39.501 37l-2 46c13.333 5.33301 23 6.16602 29 2.49902
s10.5 -9.33398 13.5 -17.001s5.66699 -16 8 -25s6.83301 -15.833 13.5 -20.5c16 18.667 27.5 38.834 34.5 60.501s10.5 43.834 10.5 66.501s-3.33301 45.667 -10 69s-15.334 45.666 -26.001 66.999c-15.333 -1.33301 -24.5 -6.33301 -27.5 -15s-4 -19 -3 -31
s1.5 -24 1.5 -36s-4.66699 -21.333 -14 -28c8.66699 -3.33301 13.334 -9.5 14.001 -18.5s1 -18.167 1 -27.5c-5.33301 1.33301 -10.833 1.66602 -16.5 0.999023s-11.334 -1.16699 -17.001 -1.5s-11 0.5 -16 2.5s-9.16699 6.33301 -12.5 13c6 14.667 10 31.334 12 50.001
s4.66699 36.5 8 53.5s8.83301 31.833 16.5 44.5s20.5 20.334 38.5 23.001c22.667 5.33301 40 5.33301 52 0s20.5 -14.166 25.5 -26.499s7.16699 -27.166 6.5 -44.499s-2.33398 -35 -5.00098 -53s-5.5 -35.167 -8.5 -51.5s-4.5 -29.833 -4.5 -40.5zM354.003 662.998
c-9.33301 -18 -17.1699 -36.665 -23.5029 -55.998s-13.166 -38.333 -20.499 -57s-15.666 -37 -24.999 -55s-21 -35 -35 -51c1.33301 -14.667 0.5 -31.5 -2.5 -50.5s-7.83301 -37.833 -14.5 -56.5s-14.667 -36.334 -24 -53.001s-20 -30.334 -32 -41.001
c-2 -24 -5 -48.667 -9 -74s-9.66699 -49.333 -17 -72s-17.333 -43.167 -30 -61.5s-28.667 -32.5 -48 -42.5l-15 14c18 34 33.333 69 46 105s24.334 72.5 35.001 109.5l31 111.5c10 37.333 21 74.333 33 111h25.5c8.33301 0 14.833 5.33301 19.5 16l-12 12
c-4.66699 4.66699 -11 5.66699 -19 3l75 202zM407.999 278c-3.33301 -23.333 -3.50098 -48 -0.500977 -74s5 -51.5 6 -76.5s-1.33301 -48.833 -7 -71.5s-19.167 -42 -40.5 -58c-35.333 -4 -61.5 5 -78.5 27s-27.5 48.667 -31.5 80c-10 79.333 4 151.666 42 216.999
c10.667 0 22 0.166992 34 0.5s23.333 -0.5 34 -2.5s19.834 -6.16699 27.501 -12.5s12.5 -16.166 14.5 -29.499zM345.998 277c-12.667 -12 -21.333 -28.334 -26 -49.001s-6.66699 -42.5 -6 -65.5s3.16699 -45.167 7.5 -66.5s8.83301 -38.666 13.5 -51.999z" />
    <glyph glyph-name="ampersand" unicode="&#x26;" horiz-adv-x="484" 
d="M404 17l-5.99902 -97.0029c-10 -4 -19.167 -4.83301 -27.5 -2.5s-16.333 5.5 -24 9.5l-22 11c-7 3.33301 -14.5 4 -22.5 2c-4.66699 10.667 -7.83398 21.834 -9.50098 33.501s-7.16699 21.5 -16.5 29.5c-7.33301 -3.33301 -9 -7.16602 -5 -11.499
s5.66699 -8.83301 5 -13.5c-12 -17.333 -25.667 -34.166 -41 -50.499s-34.333 -25.5 -57 -27.5c-5.33301 7.33301 -7.83301 16.166 -7.5 26.499s-3.16699 18.833 -10.5 25.5c-6.66699 -4 -14 -6.66699 -22 -8s-15.667 -3 -23 -5l-13 33
c-6 -3.33301 -11.167 -3.83301 -15.5 -1.5s-8.33301 5.5 -12 9.5s-7.83398 7.83301 -12.501 11.5s-10.667 5.16699 -18 4.5c-12.667 19.333 -21.5 40.5 -26.5 63.5s-10.833 44.833 -17.5 65.5c8 7.33301 12 16.333 12 27s-0.333008 20.667 -1 30
c3.33301 21.333 12.833 39.333 28.5 54s30.667 29.5 45 44.5s24.5 31.333 30.5 49s1.33301 39.5 -14 65.5c-12.667 32.667 -17.334 67 -14.001 103s12.666 70.333 27.999 103c10.667 16.667 24.5 28 41.5 34s33.167 7.33301 48.5 4c8.66699 0.666992 16.5 2 23.5 4
s13.667 3.16699 20 3.5s12.833 -0.333984 19.5 -2.00098s13.667 -5.5 21 -11.5c17.333 -7.33301 29.666 -19.333 36.999 -36l21 -48c-2 -23.333 -4.5 -47 -7.5 -71s-13.5 -43 -31.5 -57c-4 6.66699 -8.33301 7.83398 -13 3.50098s-9 -7.16602 -13 -8.49902l5.5 -5.5
c1.66699 -1.66699 3.83398 -1.83398 6.50098 -0.500977c0 -10.667 -2.33301 -20.5 -7 -29.5s-10.167 -17.5 -16.5 -25.5l-19 -24c-6.33301 -8 -11.166 -16.667 -14.499 -26l-7 7l-6 -7l-6 7l-51 -38l-13 13c0.666992 -18 -1.83301 -35.167 -7.5 -51.5l-16.5 -48.5
c-5.33301 -16 -8.5 -32.333 -9.5 -49s3.5 -34 13.5 -52c0 -8 -2.66699 -14.667 -8 -20l-15.5 -16c-5 -5.33301 -8.83301 -11.666 -11.5 -18.999s-2 -16.666 2 -27.999l8 -6c7.33301 18 16.166 26.667 26.499 26s20.833 -3 31.5 -7s21 -6.16699 31 -6.5s19 8.16699 27 25.5
c-4.66699 11.333 -8.66699 23.166 -12 35.499s-7 24.5 -11 36.5s-8.66699 23.5 -14 34.5s-12.666 20.5 -21.999 28.5c-0.666992 17.333 0 33.666 2 48.999s7.66699 29.333 17 42c5.33301 6.66699 14 12.334 26 17.001s23 3.33398 33 -3.99902
c4 -18 10.833 -35.167 20.5 -51.5s15.834 -33.833 18.501 -52.5c9.33301 17.333 16.333 35.5 21 54.5s10 37.5 16 55.5c12 -5.33301 26 -9.33301 42 -12s25.667 -9.33398 29 -20.001c3.33301 -20 -0.166992 -41.5 -10.5 -64.5s-19.166 -45.167 -26.499 -66.5
s-9 -40.833 -5 -58.5s22.333 -31.5 55 -41.5zM236.001 440.997c-2 28.667 -1.49707 57.1689 1.50293 85.502s0.5 57.5 -7.5 87.5v-20c-2.66699 -2 -5.33398 -4.83301 -8.00098 -8.5s-6.33398 -4.83398 -11.001 -3.50098l1 -19c-15.333 -14 -23.5 -31.833 -24.5 -53.5
l-2.5 -55.5c7.33301 -0.666992 11.5 -3.33398 12.5 -8.00098s1.33301 -9.66699 1 -15s0.166992 -10.333 1.5 -15s5.33301 -7 12 -7l-1 19c1.33301 6 5.16602 9.66699 11.499 11s10.833 2 13.5 2z" />
    <glyph glyph-name="quotesingle" unicode="'" horiz-adv-x="164" 
d="M80 764c-1.33301 -24 -1.16602 -48.499 0.500977 -73.499s2.83398 -49.833 3.50098 -74.5s0.166992 -48.834 -1.5 -72.501s-5.83398 -46.167 -12.501 -67.5c-22 -2.66699 -37.5 -0.333984 -46.5 6.99902s-14.667 17.5 -17 30.5s-3 27.5 -2 43.5s0.5 31 -1.5 45
c0 14.667 -0.333008 36.334 -1 65.001s-1.33398 55 -2.00098 79z" />
    <glyph glyph-name="parenleft" unicode="(" horiz-adv-x="231" 
d="M204 799c-1.33301 -16 -5.49902 -30.6641 -12.499 -43.9971s-14.667 -26.333 -23 -39s-16 -25.667 -23 -39s-11.167 -28 -12.5 -44c-6 5.33301 -11.5 7.66602 -16.5 6.99902s-9.83301 -2.83398 -14.5 -6.50098s-8.66699 -8.16699 -12 -13.5l-9 -14
c1.33301 -5.33301 1.33301 -11 0 -17s0.666992 -10.667 6 -14l21.5 10c7 3.33301 15.167 4.33301 24.5 3l6 -21c-8.66699 4.66699 -14.167 3.66699 -16.5 -3s-5.16602 -11.667 -8.49902 -15c2.66699 -16 2.66699 -32.5 0 -49.5s-5.5 -34.167 -8.5 -51.5
s-5 -34.666 -6 -51.999s1.16699 -35 6.5 -53l-5 -6l27 -133.5c9.33301 -44.333 21.666 -87.833 36.999 -130.5c-8.66699 0 -15.334 -2.33301 -20.001 -7s-9 -10 -13 -16s-8.33301 -11.833 -13 -17.5s-10.667 -9.5 -18 -11.5c0 10 -2.66699 19.5 -8 28.5l-16 26.5
c-5.33301 8.66699 -9.33301 17.5 -12 26.5s-2 18.5 2 28.5c-8 2.66699 -14.833 8.16699 -20.5 16.5s-7.16699 18.166 -4.5 29.499c14.667 21.333 19 38.166 13 50.499s-14.167 23.5 -24.5 33.5s-19.166 21 -26.499 33s-5 28.333 7 49
c-12.667 92.667 -6.83398 181.667 17.499 267s63.5 161.333 117.5 228c12 -0.666992 22.333 -5.16699 31 -13.5zM222.001 -35.9971c4 -8 4.66602 -14.835 1.99902 -20.502s-6.66699 -10.334 -12 -14.001s-11.166 -6.83398 -17.499 -9.50098l-16.5 -7
c-10 -4 -16.833 -4.83301 -20.5 -2.5s-6.5 6 -8.5 11s-4 10.333 -6 16s-5.66699 10.167 -11 13.5c0 3.33301 0.166992 6.83301 0.5 10.5s2.5 6.83398 6.5 9.50098c-2 4.66699 -5 8.33398 -9 11.001s-7.5 5.33398 -10.5 8.00098s-5.33301 5.66699 -7 9
s-1.16699 8.33301 1.5 15c6.66699 1.33301 12.5 5 17.5 11l15 18c5 6 10.5 10 16.5 12s13 -0.333008 21 -7c5.33301 -17.333 11.333 -31.666 18 -42.999s13.667 -25 21 -41h-1z" />
    <glyph glyph-name="parenright" unicode=")" horiz-adv-x="230" 
d="M161 649c-8 -4.66699 -15.6699 -6.83301 -23.0029 -6.5s-14.833 1 -22.5 2s-15.167 1.33301 -22.5 1s-14.666 -3.5 -21.999 -9.5c0.666992 14 -1.66602 27 -6.99902 39s-11.833 23.5 -19.5 34.5s-15.667 21.667 -24 32s-15.166 20.5 -20.499 30.5l32 30
c10 9.33301 23 16.333 39 21l57 -90c8.66699 -12.667 15.167 -26.167 19.5 -40.5zM206.997 495.001c10 -72 9.66406 -145.668 -1.00293 -221.001s-34 -143.333 -70 -204c8 -2.66699 9.66699 -6.33398 5 -11.001s-6.66699 -9.33398 -6 -14.001l-25 -25
c2 -11.333 0.833008 -24.5 -3.5 -39.5s-11.833 -27.5 -22.5 -37.5h-26c1.33301 7.33301 0.333008 12.666 -3 15.999s-7.66602 5.83301 -12.999 7.5l-16 5c-5.33301 1.66699 -9.33301 4.5 -12 8.5c14.667 42.667 31 85 49 127s31.333 85.667 40 131
c5.33301 24.667 7.66602 49.334 6.99902 74.001l-2 73.5c-0.666992 24.333 0 48.333 2 72s8.33301 46.834 19 69.501c3.33301 6.66699 4 12.334 2 17.001s-4.66699 9 -8 13s-6.5 8.16699 -9.5 12.5s-4.16699 9.5 -3.5 15.5c-4.66699 6.66699 -11 8.83398 -19 6.50098
s-14.333 -0.166016 -19 6.50098c0.666992 6.66699 5.16699 13.334 13.5 20.001s16.5 11 24.5 13c24.667 5.33301 41.834 3.16602 51.501 -6.50098s16.334 -22.167 20.001 -37.5s6.33398 -31.833 8.00098 -49.5s7.16699 -31.834 16.5 -42.501h1z" />
    <glyph glyph-name="asterisk" unicode="*" horiz-adv-x="200" 
d="M135 611l-48.002 -33.001c4.66699 -4 9.33398 -8.33301 14.001 -13s5.66699 -10.667 3 -18l-96 15c6.66699 4.66699 14.167 13.667 22.5 27l22.5 37c-4.66699 4.66699 -10.667 8.66699 -18 12s-14 7 -20 11s-10.333 9.16699 -13 15.5s-1.66699 14.833 3 25.5
c8.66699 -1.33301 17.5 -1.66602 26.5 -0.999023s16.167 -4.33301 21.5 -15c4.66699 10.667 11.667 16 21 16s18.333 0.333008 27 1v-48c-7.33301 2 -13.166 0.833008 -17.499 -3.5s-8.5 -8.83301 -12.5 -13.5z" />
    <glyph glyph-name="plus" unicode="+" 
d="M321 355c-1.33301 -8 -0.832031 -16.835 1.50098 -26.502s-1.16699 -17.167 -10.5 -22.5c-10 0.666992 -20 2.66699 -30 6s-20 6.16602 -30 8.49902s-20 3.33301 -30 3s-20 -3.83301 -30 -10.5l-13 12c-1.33301 0.666992 -2.66602 1.66699 -3.99902 3l-4 4l-39 -30
c-4.66699 8.66699 -10.334 13.5 -17.001 14.5s-14 0.5 -22 -1.5l-25 -6c-8.66699 -2 -17.334 -1.66699 -26.001 1l-40 -1c1.33301 8.66699 1 17.834 -1 27.501s1.33301 17.167 10 22.5c11.333 2.66699 21.833 3.16699 31.5 1.5s19.167 -3.66699 28.5 -6s18.833 -4 28.5 -5
s20.167 -0.166992 31.5 2.5c7.33301 18.667 10.666 40.334 9.99902 65.001s-5 46 -13 64l60 1c-1.33301 -10.667 -1.33301 -22 0 -34s2.33301 -23.667 3 -35s-0.333008 -22.333 -3 -33s-8.33398 -20 -17.001 -28c0.666992 -4 0.833984 -8.16699 0.500977 -12.5
s0.833984 -8.16602 3.50098 -11.499l4 -4c0.666992 -0.666992 1.66699 -1 3 -1c9.33301 -3.33301 16.833 -2 22.5 4l16.5 17zM192.001 272.998c-5.33301 -12.667 -8.00098 -27 -8.00098 -43v-47l-50 -1c1.33301 10 1 20.833 -1 32.5s1.33301 20.834 10 27.501
c-8.66699 3.33301 -12.167 9.16602 -10.5 17.499s1.5 15.833 -0.5 22.5c6.66699 -4.66699 13.334 -5.5 20.001 -2.5s12.667 6 18 9s10 4.16699 14 3.5s6.66699 -7 8 -19z" />
    <glyph glyph-name="comma" unicode="," horiz-adv-x="174" 
d="M161 165c-17.333 -13.333 -28.168 -29.3291 -32.501 -47.9961s-7 -37.834 -8 -57.501s-3 -39 -6 -58s-11.833 -35.5 -26.5 -49.5c-6.66699 -8 -10.667 -19.333 -12 -34s-3.5 -28.167 -6.5 -40.5s-8.83301 -21.333 -17.5 -27s-23.667 -3.83398 -45 5.49902l11.5 67.5
c3.66699 22.333 9.5 43.833 17.5 64.5c-14 6 -22.667 14 -26 24s-4.83301 21 -4.5 33s1 24.167 2 36.5s-1.5 23.166 -7.5 32.499c9.33301 9.33301 21.833 13.833 37.5 13.5s30.834 0 45.501 1s26.5 5 35.5 12s11.167 22.167 6.5 45.5l8 7
c8 -4.66699 13.833 -8.33398 17.5 -11.001s7.16699 -8.66699 10.5 -18v1z" />
    <glyph glyph-name="hyphen" unicode="-" horiz-adv-x="352" 
d="M317 319l-316.997 4v46c34 0 61.167 1.83301 81.5 5.5s38.666 7.16699 54.999 10.5s33 5.33301 50 6s39.167 -2 66.5 -8c4.66699 -4.66699 8.66699 -10.667 12 -18s7.16602 -14 11.499 -20s9.66602 -10.333 15.999 -13s14.5 -1.66699 24.5 3v-16z" />
    <glyph glyph-name="period" unicode="." horiz-adv-x="123" 
d="M96 -3c-6 -6 -12 -9.16895 -18 -9.50195s-12.167 0.333984 -18.5 2.00098s-12.666 3.5 -18.999 5.5s-12.5 2.33301 -18.5 1c-6 0 -9.83301 1.5 -11.5 4.5s-2.5 6.5 -2.5 10.5s-0.166992 8.16699 -0.5 12.5s-2.5 7.5 -6.5 9.5c6.66699 6 9.33398 12.333 8.00098 19
s-3 13.334 -5 20.001s-2.83301 13 -2.5 19s5.16602 11.333 14.499 16h73c1.33301 -22.667 1.16602 -41.5 -0.500977 -56.5s0.833008 -32.833 7.5 -53.5z" />
    <glyph glyph-name="slash" unicode="/" horiz-adv-x="330" 
d="M262 702c-14 -16.667 -22.667 -35.001 -26 -55.001s-10.333 -39.333 -21 -58c-11.333 -3.33301 -20.333 -4.16602 -27 -2.49902s-12.167 4.83398 -16.5 9.50098s-8 10.5 -11 17.5s-6.5 14.167 -10.5 21.5c4.66699 6 7.66699 12.667 9 20s2.5 14.666 3.5 21.999
s2.5 14.5 4.5 21.5s6.33301 13.167 13 18.5zM185 540.999c-0.666992 -37.333 -6.66211 -70.1709 -17.9951 -98.5039s-23.166 -56.166 -35.499 -83.499s-22.833 -55.666 -31.5 -84.999s-10.334 -63.666 -5.00098 -102.999c-10.667 -14.667 -18.834 -30.5 -24.501 -47.5
s-10.334 -34.5 -14.001 -52.5s-6.83398 -36.167 -9.50098 -54.5s-6.33398 -36.166 -11.001 -53.499h-32c1.33301 6.66699 1.5 13.667 0.5 21s-1.66699 14.666 -2 21.999s0.5 14.166 2.5 20.499s6.33301 11.5 13 15.5c-10.667 14.667 -16.334 29.334 -17.001 44.001
s1 29.5 5 44.5s8.83301 29.833 14.5 44.5s9.16699 29.334 10.5 44.001l106 336z" />
    <glyph glyph-name="zero" unicode="0" horiz-adv-x="355" 
d="M297 155c3.33301 -12.667 2.83301 -21.1641 -1.5 -25.4971s-10 -7.5 -17 -9.5s-13.833 -4.66699 -20.5 -8s-10.667 -10.333 -12 -21c4 -25.333 2.16699 -48.833 -5.5 -70.5s-22.834 -36.5 -45.501 -44.5c-35.333 -2.66699 -63.333 2 -84 14s-42 30.667 -64 56
c-0.666992 12.667 -3.33398 24.167 -8.00098 34.5s-10.667 20.166 -18 29.499c-8 37.333 -13.667 76.5 -17 117.5s-4.16602 82.167 -2.49902 123.5s5.83398 82 12.501 122s15.667 78 27 114c10 22 25.5 41 46.5 57s43.833 24.667 68.5 26c8 -2.66699 16.167 -4.5 24.5 -5.5
s16.5 -2.33301 24.5 -4s15.5 -4 22.5 -7s12.833 -8.16699 17.5 -15.5c4.66699 -12 3.66699 -21.5 -3 -28.5s-11.667 -14.167 -15 -21.5c4 -10 6 -21.167 6 -33.5s0.666992 -24.333 2 -36s4.5 -21.834 9.5 -30.501s14.5 -14.334 28.5 -17.001c21.333 -16 32 -34.167 32 -54.5
s-2.83301 -41.333 -8.5 -63s-10.334 -43.334 -14.001 -65.001s1.5 -42.167 15.5 -61.5c-0.666992 -6 -2.16699 -12.167 -4.5 -18.5s-4.16602 -12.666 -5.49902 -18.999s-1.5 -12.5 -0.5 -18.5s4.16699 -11 9.5 -15v-1zM201 482.003l-12.001 15c2 11.333 1.5 22 -1.5 32
s-6.83301 19.5 -11.5 28.5s-9.5 17.833 -14.5 26.5s-8.83301 17.334 -11.5 26.001c2.66699 -10.667 3 -20.5 1 -29.5s-4.66699 -17.667 -8 -26s-6.33301 -16.5 -9 -24.5s-3.66699 -17 -3 -27c-4.66699 -59.333 -7 -123 -7 -191s2.33301 -133.333 7 -196
c-0.666992 -4.66699 0.333008 -8.83398 3 -12.501s5.5 -7.16699 8.5 -10.5s5 -6.83301 6 -10.5s-0.833008 -7.5 -5.5 -11.5h13c10 32 17.167 64 21.5 96s7.33301 64.5 9 97.5s2.33398 66.5 2.00098 100.5s-0.5 69 -0.5 105z" />
    <glyph glyph-name="one" unicode="1" horiz-adv-x="321" 
d="M204 592c-4.66699 -5.33301 -10.8301 -7.33008 -18.4971 -5.99707s-14.5 1.66602 -20.5 0.999023l-18 19c-6 -5.33301 -12.5 -9 -19.5 -11l-21 -6c-7 -2 -13.833 -4.33301 -20.5 -7s-12.334 -7.33398 -17.001 -14.001c-4.66699 -0.666992 -9 0 -13 2s-8 4.16699 -12 6.5
s-8 4 -12 5s-9 0.5 -15 -1.5c-2.66699 6.66699 -2.33398 11.5 0.999023 14.5s7 5.5 11 7.5s7 4.5 9 7.5s1 8.16699 -3 15.5c4 8.66699 10.667 13.167 20 13.5s15.666 0.166016 18.999 -0.500977c17.333 18 37.333 32.667 60 44s45.667 13.666 69 6.99902
c4.66699 -14 7 -30.167 7 -48.5s-2 -34.166 -6 -47.499v-1zM191.004 535.003c-2 -4.66699 -2.49805 -10.502 -1.49805 -17.502s1.5 -13.833 1.5 -20.5s-1.16699 -12 -3.5 -16s-7.83301 -5.33301 -16.5 -4c-8.66699 6 -17.167 8.5 -25.5 7.5s-16.333 -3.33301 -24 -7
s-15.5 -7.66699 -23.5 -12s-16 -7.16602 -24 -8.49902c4 14 3.16699 25.833 -2.5 35.5s-6.83398 20.834 -3.50098 33.501c4 3.33301 9 5.83301 15 7.5s11.833 3.66699 17.5 6s10.5 5.5 14.5 9.5s5.66699 10 5 18c5.33301 -2 10.166 -5.5 14.499 -10.5s9 -9.83301 14 -14.5
s10.833 -8.16699 17.5 -10.5s15 -1.5 25 2.5v1zM271.006 43.001c-4.66699 -4 -6.83789 -10.335 -6.50488 -19.002l1 -25c0.333008 -8 -1 -14 -4 -18s-10.5 -2.66699 -22.5 4c-19.333 -6.66699 -41.333 -9.16699 -66 -7.5s-45.334 2.16699 -62.001 1.5
c-5.33301 -6.66699 -12.333 -9.16699 -21 -7.5s-16.667 1.83398 -24 0.500977c-4 2.66699 -8.33301 3.16699 -13 1.5s-9.66699 -3.33398 -15 -5.00098s-10.666 -2.83398 -15.999 -3.50098s-10.333 1.33301 -15 6c-5.33301 14 -7.33301 29 -6 45s1.33301 31.333 0 46
c4.66699 5.33301 11.167 7.83301 19.5 7.5l24.5 -1c8 -0.333008 14.833 0.833984 20.5 3.50098s8.16699 9.66699 7.5 21c-6 4.66699 -8.66699 9.16699 -8 13.5s1.83398 8.66602 3.50098 12.999s3 8.66602 4 12.999s-1.16699 8.5 -6.5 12.5
c4.66699 6 6.83398 11.833 6.50098 17.5s-1.33301 11.334 -3 17.001s-3.16699 11.5 -4.5 17.5s-0.666016 12.667 2.00098 20c2.66699 14 3.83398 24.333 3.50098 31s-1.16602 12.5 -2.49902 17.5s-2.66602 11 -3.99902 18s-1.66602 17.833 -0.999023 32.5
c8 2 14.667 7 20 15s8.66602 16 9.99902 24c-10 16.667 -13.333 29.5 -10 38.5s10.166 15.667 20.499 20s22.5 6.83301 36.5 7.5s26 0.333984 36 -0.999023c0.666992 -34.667 1.5 -65.5 2.5 -92.5l3 -78c1 -25 2.5 -50.667 4.5 -77l7 -90.5
c6 -5.33301 13.833 -7.66602 23.5 -6.99902s19 0.833984 28 0.500977s16.167 -2.33301 21.5 -6s7 -12.5 5 -26.5z" />
    <glyph glyph-name="two" unicode="2" horiz-adv-x="404" 
d="M356 545c-3.33301 -16 -6.49707 -32.165 -9.49707 -48.498s-6.83301 -32.333 -11.5 -48s-10.834 -30.5 -18.501 -44.5s-18.167 -27 -31.5 -39l-10 -32c-3.33301 -10.667 -10.666 -20 -21.999 -28c-5.33301 3.33301 -10.666 8.5 -15.999 15.5s-11 13.667 -17 20
s-12.667 11.166 -20 14.499s-15.666 3.66602 -24.999 0.999023c4 29.333 11.667 57 23 83s21.333 52.333 30 79c-1.33301 18 -5.33301 35.833 -12 53.5s-15.334 31.834 -26.001 42.501c-14.667 -22.667 -27 -46.334 -37 -71.001s-17.333 -50 -22 -76
c-10.667 -3.33301 -19.667 -2.5 -27 2.5s-15.333 8.5 -24 10.5c-6.66699 -6.66699 -14.334 -7.83398 -23.001 -3.50098s-16.334 7.5 -23.001 9.5c-0.666992 30.667 5.5 59.334 18.5 86.001s30.833 49.334 53.5 68.001c18.667 10 37.667 17.5 57 22.5s37.833 6 55.5 3
s33.667 -10.5 48 -22.5s25.833 -29.667 34.5 -53c-2.66699 -5.33301 -1.33398 -9.83301 3.99902 -13.5s11.666 -7.33398 18.999 -11.001l21.5 -10.5c7 -3.33301 10.5 -7 10.5 -11v1zM310.003 127.002c-0.666992 -14 -0.158203 -31.6699 1.50879 -53.0029s-0.5 -40 -6.5 -56
c-10 1.33301 -23.5 1.33301 -40.5 0s-31.5 0.666992 -43.5 6l-6 7c-2 -1.33301 -4 -3 -6 -5s-4.33301 -2.66699 -7 -2l-7 6l-5 -6c-8 -0.666992 -18.167 0 -30.5 2s-23.833 3.66699 -34.5 5c-9.33301 -4.66699 -19 -6.83398 -29 -6.50098s-20 1.16602 -30 2.49902l-29.5 4
c-9.66699 1.33301 -18.5 1 -26.5 -1c-4.66699 18 -7.83398 34.667 -9.50098 50s3.16602 31 14.499 47c14.667 14.667 28 30.5 40 47.5s23.667 34.5 35 52.5l35 54.5c12 18.333 25 35.833 39 52.5c15.333 -4 30.666 -11.667 45.999 -23s25 -25.666 29 -42.999
c2 -14.667 -1.16699 -25.167 -9.5 -31.5s-17.5 -12.833 -27.5 -19.5c-4 4.66699 -9.33301 5.66699 -16 3s-12.334 -5.66699 -17.001 -9c-8 -7.33301 -12.833 -14.666 -14.5 -21.999s-2.83398 -14.666 -3.50098 -21.999s-1.5 -15 -2.5 -23s-4.83301 -16 -11.5 -24
c2.66699 -5.33301 6.66699 -7.33301 12 -6s10 1.33301 14 0c9.33301 8.66699 20.166 14.334 32.499 17.001s25.166 3.83398 38.499 3.50098s26.666 -1.5 39.999 -3.5s25.666 -3.33301 36.999 -4h-1z" />
    <glyph glyph-name="three" unicode="3" horiz-adv-x="373" 
d="M317 201c4.66699 -19.333 3.33105 -39.4961 -4.00195 -60.4961s-12.333 -41.833 -15 -62.5c-4.66699 -6.66699 -8.16699 -13.5 -10.5 -20.5s-7.5 -13.5 -15.5 -19.5c-4 0.666992 -8.33301 2.33398 -13 5.00098s-9.16699 4.66699 -13.5 6s-8.16602 1 -11.499 -1
s-5.66602 -7.33301 -6.99902 -16c3.33301 -10.667 2.16602 -19.334 -3.50098 -26.001s-12.5 -10.667 -20.5 -12c-4 0.666992 -8 0.833984 -12 0.500977s-7 1.83398 -9 6.50098l-12.5 -21c-3.66699 -6 -9.83398 -10 -18.501 -12c-27.333 -2 -52.666 4 -75.999 18
s-41 31.333 -53 52c-8 14 -13.833 28.5 -17.5 43.5s-4.5 30.833 -2.5 47.5c8.66699 -1.33301 17.834 -1.33301 27.501 0l29 4c9.66699 1.33301 19.167 2 28.5 2s17.666 -2 24.999 -6c4.66699 -10.667 7.66699 -21.834 9 -33.501s6.66602 -21.834 15.999 -30.501
c14.667 7.33301 25.5 17 32.5 29s12 25 15 39s5 28.5 6 43.5s2.83301 29.5 5.5 43.5c-9.33301 10 -19.333 18.5 -30 25.5s-22.334 11.167 -35.001 12.5c-2 -4 -4.83301 -6.16699 -8.5 -6.5s-7.16699 -0.833008 -10.5 -1.5c-6 6 -9.83301 12.667 -11.5 20s-2.5 15 -2.5 23
s0.333008 16.167 1 24.5s0.333984 16.166 -0.999023 23.499c14.667 2.66699 29.334 6.66699 44.001 12s25.667 14 33 26l10.5 50c3.66699 17.333 5.66699 34.333 6 51s-1.83398 32.5 -6.50098 47.5s-14 28.167 -28 39.5c-6.66699 -2 -9.16699 -6 -7.5 -12
s2.16699 -11.333 1.5 -16c-7.33301 2 -12.333 1.66699 -15 -1s-4.66699 -6.33398 -6 -11.001s-2.5 -9.33398 -3.5 -14.001s-3.83301 -8.33398 -8.5 -11.001c1.33301 -10 0.666016 -17.167 -2.00098 -21.5s-8.66699 -7.83301 -18 -10.5
c-7.33301 1.33301 -18.5 1.33301 -33.5 0s-27.167 0.666992 -36.5 6c-4.66699 20.667 -3.16699 41.667 4.5 63s16.5 41.333 26.5 60c22 17.333 45.333 28 70 32s51.334 3.66699 80.001 -1c12.667 2 23.667 -1.33301 33 -10s19.333 -15.667 30 -21
c12.667 -11.333 21.834 -24.166 27.501 -38.499s9.16699 -29.5 10.5 -45.5s1.16602 -32.167 -0.500977 -48.5s-3.5 -31.833 -5.5 -46.5c-4.66699 -6.66699 -8.16699 -14.5 -10.5 -23.5s-5 -17.667 -8 -26s-7 -15.833 -12 -22.5s-11.833 -11 -20.5 -13
c-7.33301 -14 -8.16602 -24 -2.49902 -30s13.334 -11 23.001 -15s19.167 -8.5 28.5 -13.5s14.333 -13.5 15 -25.5c-2.66699 -4.66699 -3.16699 -9.33398 -1.5 -14.001s3.5 -9 5.5 -13s3 -8 3 -12s-2.33301 -8 -7 -12v1z" />
    <glyph glyph-name="four" unicode="4" horiz-adv-x="373" 
d="M335 226l-8.99707 -78.001c-16.667 0.666992 -32.334 8.33398 -47.001 23.001c0 4 -0.166992 8 -0.5 12s-2.16602 6.66699 -5.49902 8c-5.33301 -38 -7.5 -73.667 -6.5 -107s-3.16699 -68.666 -12.5 -105.999c-17.333 2 -34 5.16699 -50 9.5s-33.333 4.83301 -52 1.5
c0.666992 8 0 16.667 -2 26s0 17.333 6 24c-1.33301 12 -1.66602 27.5 -0.999023 46.5s-2.33301 35.5 -9 49.5c-10.667 -6 -21.334 -10.167 -32.001 -12.5s-21.334 -3.66602 -32.001 -3.99902s-21.834 -0.333008 -33.501 0s-24.167 -0.166992 -37.5 -1.5
c-8 20 -11.5 39 -10.5 57s3.83301 35.667 8.5 53s9.66699 34.5 15 51.5s9 34.167 11 51.5c10 14.667 18 30.334 24 47.001l17.5 50c5.66699 16.667 11.667 33 18 49s14.5 30.667 24.5 44c-0.666992 19.333 2.5 37.666 9.5 54.999s15.5 34 25.5 50
c14.667 3.33301 28.167 3.16602 40.5 -0.500977s24.166 -4.83398 35.499 -3.50098c6.66699 2 16 3 28 3s22.333 -2.33301 31 -7l-12 -381zM165.003 527.999c-0.666992 -5.33301 -2.66211 -9.66504 -5.99512 -12.998s-6 -6.33301 -8 -9s-2.5 -5.16699 -1.5 -7.5
s5.5 -4.83301 13.5 -7.5c-3.33301 -24.667 -8.33301 -48.834 -15 -72.501s-13.667 -47.167 -21 -70.5s-14.333 -46.833 -21 -70.5s-11.667 -48.167 -15 -73.5c15.333 2 28.166 2.16699 38.499 0.5s21.5 -3.16699 33.5 -4.5c-4.66699 27.333 -6.33398 54.833 -5.00098 82.5
s3.16602 55.167 5.49902 82.5s4.16602 54.666 5.49902 81.999s-0.333984 54.333 -5.00098 81h1z" />
    <glyph glyph-name="five" unicode="5" horiz-adv-x="367" 
d="M285 624l-5.99805 -96.999c-8 6 -15.833 8.5 -23.5 7.5s-15.334 -2.66699 -23.001 -5s-15.167 -3.83301 -22.5 -4.5s-15 2.33301 -23 9c-4.66699 -4.66699 -9.16699 -7 -13.5 -7s-8.66602 0.5 -12.999 1.5s-8.5 1.5 -12.5 1.5s-8 -2.66699 -12 -8
c-4 0 -6.5 2.16699 -7.5 6.5l-3 13c-1 4.33301 -2.83301 7.83301 -5.5 10.5s-7.33398 2.33398 -14.001 -0.999023c-0.666992 -28 0 -56.5 2 -85.5s0.333008 -57.167 -5 -84.5c5.33301 -5.33301 10.833 -7.83301 16.5 -7.5s11.834 1.5 18.501 3.5l20 6
c6.66699 2 13.667 2.66699 21 2c15.333 3.33301 30.333 2 45 -4s26.667 -13.667 36 -23c5.33301 -11.333 9.66602 -22 12.999 -32s2.33301 -21 -3 -33c-8 -1.33301 -15.167 -5.83301 -21.5 -13.5s-12.666 -14.834 -18.999 -21.501s-13.166 -11.167 -20.499 -13.5
s-16 1.16699 -26 10.5c-1.33301 8.66699 -3 18.167 -5 28.5s-8.66699 15.166 -20 14.499c-6 1.33301 -11 1 -15 -1s-8 -4.16699 -12 -6.5s-7.83301 -3.83301 -11.5 -4.5s-8.16699 1.33301 -13.5 6c-2.66699 -6.66699 -4.83398 -13.834 -6.50098 -21.501
s-5.83398 -14.5 -12.501 -20.5c-12.667 1.33301 -27 3 -43 5s-26.667 8 -32 18c4.66699 -0.666992 8 1 10 5s4.33301 7.33301 7 10c-15.333 55.333 -21.333 111.5 -18 168.5s5.66602 112.833 6.99902 167.5c26.667 1.33301 54.334 1.33301 83.001 0
s54.667 1.33398 78 8.00098c8 -3.33301 16.667 -4.5 26 -3.5s18.666 2.16699 27.999 3.5s18.5 1.83301 27.5 1.5s17.167 -3.5 24.5 -9.5zM314.002 189.001l-5.99805 -61.999c-2 -21.333 -5.83301 -42 -11.5 -62s-14.5 -38.333 -26.5 -55s-29 -30 -51 -40
c-14.667 -2 -30.5 -4.33301 -47.5 -7s-33.833 -3.5 -50.5 -2.5s-32.167 4.83301 -46.5 11.5s-25.833 17.667 -34.5 33c-6.66699 17.333 -14.334 34.166 -23.001 50.499s-14.334 34.166 -17.001 53.499l31 9c11.333 3.33301 22.666 5.83301 33.999 7.5s22.333 1.66699 33 0
s19.334 -6.16699 26.001 -13.5c-4.66699 -8 -6.16699 -17.5 -4.5 -28.5s5.16699 -20.5 10.5 -28.5c6.66699 -0.666992 13.667 -3.5 21 -8.5s13.333 -2.83301 18 6.5c10 11.333 16 23.666 18 36.999s2.83301 27 2.5 41s-0.833008 27.833 -1.5 41.5s1 26.834 5 39.501
c7.33301 -1.33301 15 -1.66602 23 -0.999023s15.833 1 23.5 1s15 -1 22 -3s13.5 -6.33301 19.5 -13c14 4.66699 25 2 33 -8v1z" />
    <glyph glyph-name="six" unicode="6" horiz-adv-x="366" 
d="M315 166c-10 -4.66699 -15.4971 -11.1699 -16.4971 -19.5029s-0.666992 -17.333 1 -27s3 -19.5 4 -29.5s-1.16699 -19 -6.5 -27c-1.33301 -4.66699 -4.16602 -9.16699 -8.49902 -13.5s-8.16602 -8.83301 -11.499 -13.5s-5.33301 -9.5 -6 -14.5
s1.66602 -10.5 6.99902 -16.5c-6.66699 -15.333 -16 -26.166 -28 -32.499s-22.333 -16.833 -31 -31.5c-12.667 8 -26.667 13.333 -42 16s-30.5 5.66699 -45.5 9s-29 8.5 -42 15.5s-22.833 19.167 -29.5 36.5c-16 22.667 -28.167 47.334 -36.5 74.001
s-14.333 54.167 -18 82.5s-5.5 57 -5.5 86s0.666992 57.5 2 85.5c1.33301 26.667 3.66602 53.834 6.99902 81.501s9.16602 54 17.499 79s20.166 48 35.499 69s35.666 38.833 60.999 53.5c0.666992 11.333 4.5 18.833 11.5 22.5s15.333 5.33398 25 5.00098
s19.334 -1.5 29.001 -3.5s17.834 -3.33301 24.501 -4l39 -20c18 -19.333 32.333 -40.5 43 -63.5s13.334 -49.167 8.00098 -78.5l-48.5 -9.5c-15.667 -3 -31.5 -6.5 -47.5 -10.5c-4.66699 8 -7.33398 16.667 -8.00098 26s-1.5 18.666 -2.5 27.999s-2.83301 18.333 -5.5 27
s-8.33398 16 -17.001 22c-4.66699 0 -7.83398 -1 -9.50098 -3s-3.33398 -3.83301 -5.00098 -5.5s-3.66699 -3 -6 -4s-6.16602 -0.5 -11.499 1.5c-7.33301 -22 -12.666 -45.833 -15.999 -71.5s-4.33301 -49.5 -3 -71.5c0.666992 -6.66699 0.5 -16.667 -0.5 -30
s1.16699 -24.333 6.5 -33l52 38h64c18 -14 32 -29.5 42 -46.5s17.333 -35.167 22 -54.5s7.16699 -39.5 7.5 -60.5s0.166016 -42.167 -0.500977 -63.5h-1zM179.003 55.9971c5.33301 49.333 8.16797 93.833 8.50098 133.5s-4.5 83.167 -14.5 130.5l-6 -12l-6 6v-6
c-4.66699 -2.66699 -10.334 -5.5 -17.001 -8.5s-12 -2.5 -16 1.5c1.33301 -28 1.33301 -59.5 0 -94.5s1 -67.833 7 -98.5l4.5 -18.5c1.66699 -7 4.16699 -13.5 7.5 -19.5s7.5 -10.5 12.5 -13.5s11.833 -3.16699 20.5 -0.5h-1zM199.005 31.9971
c-6.66699 0.666992 -12.498 0 -17.498 -2l-15.5 -6c0 -4 -2 -6.83301 -6 -8.5s-8 -3.5 -12 -5.5s-7.16699 -4.66699 -9.5 -8s-1.83301 -8.33301 1.5 -15c5.33301 12.667 13.666 22.167 24.999 28.5s22.666 11.5 33.999 15.5v1z" />
    <glyph glyph-name="seven" unicode="7" horiz-adv-x="350" 
d="M284 698c4 -20.667 2.99902 -39.3252 -3.00098 -55.9922s-13 -32.834 -21 -48.501s-15.333 -31.5 -22 -47.5s-9 -34 -7 -54c-4.66699 0.666992 -7.66699 0 -9 -2s-2.16602 -4.5 -2.49902 -7.5s-0.666016 -6.16699 -0.999023 -9.5s-2.16602 -5.66602 -5.49902 -6.99902
l-7 6l-12 -70c10.667 -9.33301 15 -21.833 13 -37.5s-4.33301 -28.834 -7 -39.501c-10 -43.333 -19.333 -88.333 -28 -135s-8 -91.667 2 -135l-7 -6l7 -8l-6 -5c-0.666992 -6.66699 -0.5 -17 0.5 -31s-1.16699 -25.333 -6.5 -34c-7.33301 -4.66699 -17 -7 -29 -7
s-21.667 2.33301 -29 7c-0.666992 4.66699 0.166016 9.16699 2.49902 13.5l6.5 12.5c2 4 3.16699 8.16699 3.5 12.5s-1.83398 8.5 -6.50098 12.5c0 -12 -3.33301 -19.5 -10 -22.5s-14.5 -4.33301 -23.5 -4s-18.167 0.833008 -27.5 1.5s-17 -1.33301 -23 -6l-6 5
c0 41.333 3.83301 80.666 11.5 117.999s17.167 74 28.5 110s23.333 71.667 36 107s23.667 71.666 33 108.999c3.33301 11.333 8.16602 22.833 14.499 34.5s12 23.334 17 35.001s7.66699 23.5 8 35.5s-4.16699 24.333 -13.5 37c-2.66699 -4.66699 -6.16699 -9.5 -10.5 -14.5
s-2.83301 -8.83301 4.5 -11.5c-4.66699 -4 -9.33398 -5.66699 -14.001 -5s-9 1.66699 -13 3s-8.16699 2.16602 -12.5 2.49902s-8.83301 -1.83398 -13.5 -6.50098c-2.66699 7.33301 -6.33398 9 -11.001 5s-9 -6 -13 -6c-6 3.33301 -12.833 5.33301 -20.5 6
s-15.334 1.5 -23.001 2.5s-14.167 3.16699 -19.5 6.5s-8.33301 9.33301 -9 18c0.666992 14.667 5 28 13 40s14.667 24.333 20 37c8 -5.33301 17.5 -7.16602 28.5 -5.49902s20.5 -0.833008 28.5 -7.5c2.66699 5.33301 5.33398 7.66602 8.00098 6.99902s5.33398 -2 8.00098 -4
s5.33398 -3.33301 8.00098 -4s5.33398 1.66602 8.00098 6.99902c2 -5.33301 5.83301 -7.33301 11.5 -6s10.834 1.33301 15.501 0l6 6l5 -5c2 5.33301 5.66699 7.16602 11 5.49902s10.333 -1.83398 15 -0.500977l27 -39c0.666992 12 -0.333008 26.167 -3 42.5
s-8.33398 30.166 -17.001 41.499c4 10 9.66699 16 17 18s15.333 2.16699 24 0.5s17.5 -4.5 26.5 -8.5s16.833 -7.33301 23.5 -10v1z" />
    <glyph glyph-name="eight" unicode="8" horiz-adv-x="348" 
d="M291 441c-6 -4.66699 -11.502 -11.1641 -16.502 -19.4971s-10 -16 -15 -23s-10.5 -12.333 -16.5 -16s-13.667 -3.5 -23 0.5l-6 -6l5 -6c-10 -4 -15.333 -8.33301 -16 -13s0.5 -9.66699 3.5 -15l10 -17.5c3.66699 -6.33301 4.5 -13.166 2.5 -20.499
c14.667 -10 27.167 -22.833 37.5 -38.5s18 -32.667 23 -51s7.5 -37.333 7.5 -57s-3.33301 -38.834 -10 -57.501l-25 -72c-5.33301 0 -10.666 0.5 -15.999 1.5s-10.166 1.5 -14.499 1.5s-7.83301 -1.5 -10.5 -4.5s-3.66699 -8.5 -3 -16.5c-4 -12 -13.5 -21 -28.5 -27
s-27.167 -14.667 -36.5 -26c-10.667 3.33301 -21.834 5.5 -33.501 6.5s-23.334 2.16699 -35.001 3.5s-22.667 4.16602 -33 8.49902s-19.5 11.5 -27.5 21.5c-4.66699 50.667 -2.16699 101.667 7.5 153s26.834 98.333 51.501 141c-2 13.333 -6.33301 25.166 -13 35.499
s-13.5 20.166 -20.5 29.499s-12.667 19.166 -17 29.499s-5.16602 21.833 -2.49902 34.5c-9.33301 12 -15 25 -17 39s-2.16699 28.5 -0.5 43.5s4.5 29.833 8.5 44.5s7 28.334 9 41.001c15.333 19.333 31.166 36.666 47.499 51.999s36.833 24 61.5 26
c21.333 -8.66699 43.833 -14.667 67.5 -18s44.5 -12.666 62.5 -27.999c12 -10.667 20.833 -23.334 26.5 -38.001s9.33398 -30 11.001 -46s1.66699 -32.167 0 -48.5s-3.5 -32.166 -5.5 -47.499zM186.998 563.003l-6.00098 -5.99707c-10 7.33301 -14 18 -12 32
c-4.66699 -10.667 -11.334 -15.834 -20.001 -15.501s-16.667 -1.16699 -24 -4.5c-4 -15.333 -6.83301 -33 -8.5 -53s2.83301 -36.333 13.5 -49c-2 -7.33301 -1.83301 -14.833 0.5 -22.5s4.83301 -15 7.5 -22s4.83398 -13.833 6.50098 -20.5s1.16699 -12.334 -1.5 -17.001
c19.333 23.333 32.333 51.166 39 83.499s8.33398 63.833 5.00098 94.5zM137.997 377.006h-3h1l1 1zM168.997 73.0059c2 34 0.49707 64.1748 -4.50293 90.5078s-18.5 50.166 -40.5 71.499c2 4.66699 4.66699 7.83398 8 9.50098s6.83301 2.66699 10.5 3l11 1
c3.66699 0.333008 6.83398 2.16602 9.50098 5.49902c-2.66699 5.33301 -2 9.66602 2 12.999s5.66699 7.66602 5 12.999l-6 -6c-6 4 -9.83301 8.66699 -11.5 14s-2.5 11.166 -2.5 17.499s0.333008 12.666 1 18.999s0.333984 12.5 -0.999023 18.5
c-3.33301 -4 -5.16602 -9 -5.49902 -15l-1 -18c-0.333008 -6 -1.33301 -11.333 -3 -16s-5.83398 -7.33398 -12.501 -8.00098h-3h4c3.33301 -0.666992 6 -2.5 8 -5.5s4.33301 -5.16699 7 -6.5c-1.33301 -7.33301 -4.66602 -12.666 -9.99902 -15.999s-11 -6.5 -17 -9.5
s-11.5 -6.83301 -16.5 -11.5s-7.83301 -12 -8.5 -22c-4 -12.667 -7.5 -26 -10.5 -40s-4.5 -27.833 -4.5 -41.5s2 -26.834 6 -39.501s11.333 -23.667 22 -33c15.333 -2.66699 26 -1.83398 32 2.49902s14.667 10.166 26 17.499l7 -8h-1zM161.994 9.01367l-6 36.999l-14 -61
c2 2 5.5 4.33301 10.5 7s8.16699 8.33398 9.5 17.001zM126.994 285.013h-3h4h-1z" />
    <glyph glyph-name="nine" unicode="9" horiz-adv-x="351" 
d="M303 314l-19.0039 -127.999c-9.33301 -7.33301 -19.666 -13.166 -30.999 -17.499s-22.666 -2.83301 -33.999 4.5c0 6.66699 -1.83301 10.667 -5.5 12s-8 1.83301 -13 1.5l-15 -1c-5 -0.333008 -8.83301 1.5 -11.5 5.5c8.66699 37.333 4.66699 72 -12 104
c-5.33301 -7.33301 -8.66602 -15.333 -9.99902 -24s-6.66602 -16 -15.999 -22c-9.33301 -2.66699 -15.333 -1.5 -18 3.5l-8 15.5c2.66699 11.333 3.83398 23 3.50098 35s-7.5 20 -21.5 24c-2 -2 -3.83301 -4 -5.5 -6s-2.16699 -4 -1.5 -6
c-6.66699 7.33301 -16 11.333 -28 12s-22.333 -1.33301 -31 -6l-25 230c9.33301 31.333 23.333 58.5 42 81.5s43.334 38.5 74.001 46.5c10 -2.66699 20.667 -4 32 -4s22.5 -0.666992 33.5 -2s21 -4.66602 30 -9.99902s15.5 -14.333 19.5 -27
c-2.66699 -9.33301 -1.33398 -16.833 3.99902 -22.5l16 -16.5c9.33301 3.33301 16.666 2.16602 21.999 -3.50098l16 -16.5c1.33301 -42.667 5 -85.334 11 -128.001s5 -85.334 -3 -128.001zM225.996 51.001c3.33301 -8.66699 3.33496 -15.667 0.00195312 -21
s-8 -9.83301 -14 -13.5s-12.5 -6.83398 -19.5 -9.50098s-13.167 -5.66699 -18.5 -9c-2.66699 0 -5.83398 0.166992 -9.50098 0.5s-6.83398 -1.5 -9.50098 -5.5l-7 5c-5.33301 -10 -14.333 -14.167 -27 -12.5s-22.334 4.16699 -29.001 7.5c-6 8 -13.667 15.833 -23 23.5
s-18.166 15.834 -26.499 24.501s-15.5 18 -21.5 28s-8.33301 21 -7 33c-2 2.66699 -4.83301 5.33398 -8.5 8.00098s-5.16699 6.66699 -4.5 12l7 4c-5.33301 2.66699 -7.66602 6.66699 -6.99902 12s0.666992 10.666 0 15.999c30 16 64.333 22 103 18
c2.66699 -8 4.5 -17 5.5 -27s2.5 -19.667 4.5 -29s5.5 -17.333 10.5 -24s13.167 -10 24.5 -10c5.33301 4.66699 7.83301 10.167 7.5 16.5s1.5 11.833 5.5 16.5c14.667 -3.33301 29.667 -3.66602 45 -0.999023c2 -7.33301 2.16699 -14.333 0.5 -21
s-2.83398 -12.834 -3.50098 -18.501s0.333008 -10.5 3 -14.5s9 -7 19 -9zM199.998 351.001c2 8.66699 1.50195 17.1689 -1.49805 25.502s-8.83301 13.166 -17.5 14.499l-12 161l5 6l-5 6l5 6c0 12.667 -3.83301 24.167 -11.5 34.5s-14.5 21.166 -20.5 32.499
c-5.33301 -24 -11.833 -47.333 -19.5 -70s-11.834 -46.667 -12.501 -72c-2.66699 -6 -3.16699 -11.333 -1.5 -16s3.33398 -9 5.00098 -13s2.66699 -8 3 -12s-1.83398 -8 -6.50098 -12c2.66699 -19.333 6.66699 -38 12 -56s12.333 -35.333 21 -52c4 4 8.66699 6 14 6
s10.666 -0.166992 15.999 -0.5s10.5 0.166992 15.5 1.5s8.83301 5 11.5 11v-1z" />
    <glyph glyph-name="colon" unicode=":" horiz-adv-x="157" 
d="M130 408c-2.66699 1.33301 -5.16895 1.00293 -7.50195 -0.99707s-4.16602 -4 -5.49902 -6c-8.66699 0 -17.167 1 -25.5 3s-16.5 3.5 -24.5 4.5s-16 0.666992 -24 -1s-15.667 -6.5 -23 -14.5c-6.66699 6 -11 13.167 -13 21.5s-3 17.166 -3 26.499s0.5 18.166 1.5 26.499
s0.833008 15.5 -0.5 21.5l-1 31c9.33301 4 19.5 6.16699 30.5 6.5s22 0.5 33 0.5s21.833 0.333008 32.5 1s20.334 3 29.001 7c3.33301 -10 5 -20 5 -30s-0.666992 -20.333 -2 -31s-2.5 -21.334 -3.5 -32.001s-0.5 -21.667 1.5 -33v-1zM129.998 7.00293
c-9.33301 -4 -19.5 -6.16895 -30.5 -6.50195s-22 -0.5 -33 -0.5s-21.833 -0.333008 -32.5 -1s-20.334 -3 -29.001 -7c-3.33301 10 -5 20 -5 30s0.666992 20.333 2 31l4 32.5c1.33301 11 1 21.833 -1 32.5c3.33301 -1.33301 5.83301 -0.5 7.5 2.5
s3.83398 4.83301 6.50098 5.5c8.66699 0 17 -1 25 -3s16 -3.5 24 -4.5s16 -0.666992 24 1s15.667 6.5 23 14.5c7.33301 -6 11.833 -13.167 13.5 -21.5s2.5 -17.166 2.5 -26.499s-0.5 -18.166 -1.5 -26.499s-0.833008 -15.5 0.5 -21.5v-30v-1z" />
    <glyph glyph-name="semicolon" unicode=";" horiz-adv-x="153" 
d="M127 421c-3.33301 1.33301 -6 1.00195 -8 -0.998047s-3.66699 -4 -5 -6c-8.66699 0 -17.167 1 -25.5 3s-16.5 3.5 -24.5 4.5s-16 0.666992 -24 -1s-15.667 -6.5 -23 -14.5c-7.33301 6 -11.833 13.167 -13.5 21.5s-2.5 17.166 -2.5 26.499s0.5 18.166 1.5 26.499
s0.833008 15.5 -0.5 21.5v31c9.33301 4 19.5 6.16699 30.5 6.5s22 0.5 33 0.5s21.667 0.333008 32 1s19.833 3 28.5 7c3.33301 -10 5 -20 5 -30s-0.666992 -20.333 -2 -31s-2.5 -21.5 -3.5 -32.5s-0.5 -21.833 1.5 -32.5v-1zM167 195.002
c-17.333 -13.333 -28.168 -29.3281 -32.501 -47.9951s-7.16602 -37.834 -8.49902 -57.501s-3.5 -39 -6.5 -58s-11.833 -35.5 -26.5 -49.5c-7.33301 -8 -11.5 -19.333 -12.5 -34s-3 -28.167 -6 -40.5s-8.66699 -21.333 -17 -27s-23.166 -3.83398 -44.499 5.49902l11.5 67.5
c3.66699 22.333 9.16699 43.833 16.5 64.5c-14 6 -22.667 14 -26 24s-4.83301 21 -4.5 33s1 24.167 2 36.5s-1.5 23.166 -7.5 32.499c8.66699 9.33301 21 13.833 37 13.5s31.333 0 46 1s26.667 5 36 12s11.666 22.167 6.99902 45.5l8 7
c8 -4.66699 13.833 -8.33398 17.5 -11.001s7.16699 -8.33398 10.5 -17.001z" />
    <glyph glyph-name="less" unicode="&#x3c;" horiz-adv-x="366" 
d="M311 477c4 -19.333 1.49805 -33.333 -7.50195 -42s-20.167 -15.5 -33.5 -20.5s-27.5 -9.83301 -42.5 -14.5s-26.5 -13 -34.5 -25c-16 6 -28.5 7.16699 -37.5 3.5s-17 -9.5 -24 -17.5s-13.667 -16.667 -20 -26s-15.166 -16.666 -26.499 -21.999
c8.66699 -5.33301 14.667 -12.333 18 -21s4.33301 -18 3 -28c-7.33301 10 -17.833 15.667 -31.5 17s-26.667 3.16602 -39 5.49902s-22.166 7 -29.499 14s-8 20.833 -2 41.5c16 6.66699 32.833 12.167 50.5 16.5s35 9 52 14s33 11.5 48 19.5s27.5 19 37.5 33zM315.998 208
c-1.33301 -6.66699 -1.00391 -13.999 0.996094 -21.999s-1.33301 -14 -10 -18c-12 12 -25.167 21 -39.5 27s-29.166 11.167 -44.499 15.5l-45 13c-14.667 4.33301 -28.667 11.166 -42 20.499l-1 30c16.667 -2 32.334 -6.16699 47.001 -12.5s29.334 -13 44.001 -20
s29.334 -13.667 44.001 -20s30 -10.833 46 -13.5z" />
    <glyph glyph-name="equal" unicode="=" horiz-adv-x="568" 
d="M493 421l-477.998 6.00098v46c34 0 69.667 1.66699 107 5l110.5 10c36.333 3.33301 71.333 5.16602 105 5.49902s64.167 -2.5 91.5 -8.5c4.66699 -4.66699 8.66699 -10.667 12 -18s7.16602 -14 11.499 -20s9.66602 -10.333 15.999 -13s14.5 -1.66699 24.5 3v-16z
M512.002 278.001l-13.998 -65.001c-20 2 -40.833 2 -62.5 0s-43.167 -3.33301 -64.5 -4s-41.666 0.833008 -60.999 4.5s-36.666 12.5 -51.999 26.5c-2 -14.667 -7.83301 -24.167 -17.5 -28.5s-20.834 -6.5 -33.501 -6.5s-26 0.833008 -40 2.5s-26.333 1.16699 -37 -1.5
c-2 10 -7.83301 17.5 -17.5 22.5s-19.834 7.33301 -30.501 7s-20.834 -3 -30.501 -8s-15.5 -12.5 -17.5 -22.5c-6.66699 -3.33301 -12.334 -2.83301 -17.001 1.5s-9.66699 8.5 -15 12.5c5.33301 4.66699 10 9.5 14 14.5s4.66699 11.5 2 19.5l-18 14
c30.667 12.667 65.667 19.334 105 20.001s73.666 -4.33301 102.999 -15c4 7.33301 9.16699 12 15.5 14s13.333 3 21 3s15.334 -0.333008 23.001 -1s14.5 -0.333984 20.5 0.999023c1.33301 -8.66699 2 -17.667 2 -27s5.33301 -16.333 16 -21
c6.66699 -2 12.334 -0.666992 17.001 4s9.66699 9.33398 15 14.001l-18 14c16.667 11.333 32.5 16.833 47.5 16.5s30.167 -2.33301 45.5 -6s31.166 -7 47.499 -10s33.5 -1.5 51.5 4.5z" />
    <glyph glyph-name="greater" unicode="&#x3e;" horiz-adv-x="366" 
d="M327 338c-0.666992 -18 -6.00195 -31.8389 -16.002 -41.5059s-22.167 -17.5 -36.5 -23.5s-29.166 -11.667 -44.499 -17s-28.666 -12.333 -39.999 -21c-5.33301 0.666992 -11 0.833984 -17 0.500977s-10.333 2.5 -13 8.5c-5.33301 -14 -14.166 -24.833 -26.499 -32.5
s-26 -14.167 -41 -19.5s-30.5 -10 -46.5 -14s-30.667 -9.66699 -44 -17c-2 4.66699 -1.66699 8.5 1 11.5s5.33398 5.83301 8.00098 8.5l-10 11c7.33301 8.66699 16.666 14.334 27.999 17.001s23.333 5.33398 36 8.00098s24.834 6.33398 36.501 11.001
s21.167 13.334 28.5 26.001c24.667 1.33301 46.834 8.16602 66.501 20.499s40.167 22.833 61.5 31.5c-33.333 26.667 -69.833 51.334 -109.5 74.001s-83.834 36.334 -132.501 41.001c1.33301 8 -0.833984 14.5 -6.50098 19.5s-6.83398 11.833 -3.50098 20.5
c54.667 -17.333 108.667 -36.833 162 -58.5z" />
    <glyph glyph-name="question" unicode="?" horiz-adv-x="309" 
d="M104 650c-12 -15.333 -27.1641 -28.832 -45.4971 -40.499s-37.5 -19.5 -57.5 -23.5c-0.666992 9.33301 1.16602 18.166 5.49902 26.499s9.66602 16.5 15.999 24.5s13.166 15.333 20.499 22s13.333 12.667 18 18zM253.003 438.001
c-16.667 -27.333 -32.498 -52 -47.498 -74s-25.167 -48.667 -30.5 -80c1.33301 -12.667 1.33301 -25.834 0 -39.501s1 -26.167 7 -37.5c-4 -2 -6.16699 -5 -6.5 -9s-0.5 -7.33301 -0.5 -10c-4.66699 -1.33301 -8.33398 -0.166016 -11.001 3.50098
s-5.33398 6.83398 -8.00098 9.50098c-2 -2 -3.83301 -4 -5.5 -6s-2.16699 -4.66699 -1.5 -8c-4 -2.66699 -7.66699 -3.16699 -11 -1.5s-6.33301 3.33398 -9 5.00098s-5.5 2.66699 -8.5 3s-5.83301 -2.16699 -8.5 -7.5c-4 2 -8 6.66699 -12 14s-3 13.666 3 18.999
c0 6.66699 0.333008 16.667 1 30s-5.66602 22.666 -18.999 27.999c-2.66699 27.333 0.666016 52.833 9.99902 76.5s19.166 47 29.499 70s18.333 46 24 69s3.5 47.5 -6.5 73.5v27c8.66699 -3.33301 16.167 -4.16602 22.5 -2.49902s12.333 4.16699 18 7.5s11.5 6.5 17.5 9.5
s12.667 4.16699 20 3.5c0.666992 -30.667 4.83398 -59.834 12.501 -87.501s14.167 -56.167 19.5 -85.5h1zM195.005 109.001c-6.66699 -20 -8.99902 -37.667 -6.99902 -53s2 -34 0 -56c-5.33301 -6.66699 -12.333 -9.16699 -21 -7.5s-16.667 2.16699 -24 1.5l-5 6
c-2 -4.66699 -4.83301 -6.83398 -8.5 -6.50098s-7.5 0.166016 -11.5 -0.500977c-4.66699 1.33301 -11.5 1.5 -20.5 0.5s-17.167 -0.833008 -24.5 0.5l-6 114c7.33301 3.33301 15.833 5.33301 25.5 6s19.667 0.833984 30 0.500977s20.666 -0.166016 30.999 0.500977
s19.833 2.66699 28.5 6z" />
    <glyph glyph-name="at" unicode="@" horiz-adv-x="512" 
d="M419 394c-4.66699 -63.333 -27.333 -119.67 -68 -169.003c-12 -11.333 -27 -15.833 -45 -13.5s-35 2.5 -51 0.5c-4.66699 10.667 -10 17 -16 19s-12.167 1.83301 -18.5 -0.5s-12.666 -5.83301 -18.999 -10.5s-12.5 -8 -18.5 -10l-84 34c12.667 10 16.667 22.167 12 36.5
l-15 45c-5.33301 15.667 -7.16602 31 -5.49902 46s15.167 28.5 40.5 40.5c18 14 38.667 25.5 62 34.5s46.666 6.83301 69.999 -6.5c4.66699 -9.33301 9.16699 -13.666 13.5 -12.999s8.66602 2.83398 12.999 6.50098s9.16602 6.83398 14.499 9.50098s11.333 2 18 -2
c4.66699 -18 3.33398 -36.5 -3.99902 -55.5l-20.5 -55c-6.33301 -17.667 -8.83301 -33.667 -7.5 -48s13.666 -25.5 36.999 -33.5c12 10 21.167 22.333 27.5 37l18 43.5c5.66699 14.333 11.834 27.333 18.501 39s16 20.167 28 25.5zM406.001 429.996
c-15.333 20.667 -33.832 37.666 -55.499 50.999s-45 23.666 -70 30.999s-50.5 11.5 -76.5 12.5s-51 -0.5 -75 -4.5c-26 -24 -48.333 -49.5 -67 -76.5s-27 -57.833 -25 -92.5c-1.33301 -20 0.666992 -38.833 6 -56.5s12.5 -34.5 21.5 -50.5s19.167 -31 30.5 -45l33 -40
c4.66699 -2 7.33398 -5.33301 8.00098 -10c10.667 1.33301 23.167 1.83301 37.5 1.5s29.166 -0.333008 44.499 0s30.5 1.33301 45.5 3s28.5 5.5 40.5 11.5c18 24.667 41.667 37 71 37l12 -12c-15.333 -18 -33 -31.667 -53 -41s-41 -15.666 -63 -18.999
s-44.667 -4.16602 -68 -2.49902s-45.333 4.83398 -66 9.50098c0 6 -0.333008 10 -1 12l-8 10c-3.33301 1.33301 -7.5 1.83301 -12.5 1.5s-10 -0.5 -15 -0.5s-9.66699 0.666992 -14 2s-7.83301 4.66602 -10.5 9.99902l-24.5 32.5c-8.33301 11 -16.166 22.167 -23.499 33.5
s-13.5 23.166 -18.5 35.499s-7.83301 25.5 -8.5 39.5c-0.666992 43.333 7.83301 84.333 25.5 123s43.834 70.667 78.501 96c13.333 10 28.5 17 45.5 21s34.667 6.16699 53 6.5s36.666 -0.666992 54.999 -3s35.166 -5.16602 50.499 -8.49902l31.5 -22
c11.667 -8 22.667 -16.833 33 -26.5s18.666 -20.167 24.999 -31.5s8.83301 -24 7.5 -38zM215.002 413.995c-10.667 -5.33301 -20.8311 -12.167 -30.498 -20.5s-18.167 -17.666 -25.5 -27.999s-12.333 -21.5 -15 -33.5s-2.33398 -25 0.999023 -39
c0 -7.33301 1.66699 -12.833 5 -16.5s7.66602 -6.33398 12.999 -8.00098s11 -3.16699 17 -4.5s11 -3.33301 15 -6c10.667 6.66699 22.5 17.5 35.5 32.5s22.5 30.5 28.5 46.5s6.5 31.333 1.5 46s-20.167 25 -45.5 31z" />
    <glyph glyph-name="A" unicode="A" horiz-adv-x="408" 
d="M355 -80c-18 8 -35.665 9.16406 -52.998 3.49707s-34.666 -9.16699 -51.999 -10.5c-9.33301 18 -15 37.333 -17 58s-5.33301 41.334 -10 62.001c4.66699 10 4 17.167 -2 21.5s-12.333 8 -19 11s-10.5 6.33301 -11.5 10s5.83301 9.83398 20.5 18.501
c-5.33301 6.66699 -7.83301 15 -7.5 25s-2.83398 18 -9.50098 24c-6 -4.66699 -12.333 -8 -19 -10s-13.334 -3.5 -20.001 -4.5l-19.5 -3c-6.33301 -1 -12.166 -3.16699 -17.499 -6.5c0.666992 -19.333 0.166992 -38.333 -1.5 -57s-9.16699 -34.667 -22.5 -48
c-6 1.33301 -10.5 0.833008 -13.5 -1.5s-5.5 -5.5 -7.5 -9.5s-4.16699 -8 -6.5 -12s-5.83301 -7 -10.5 -9l6 -7c-6.66699 -5.33301 -15.334 -7.16602 -26.001 -5.49902s-20.667 1.83398 -30 0.500977l-6 18l50 535l6 7v32c0 13.333 1.33301 25.666 4 36.999
c-0.666992 10.667 0.166016 21.5 2.49902 32.5s8.16602 18.833 17.499 23.5c15.333 -10 33.833 -12.333 55.5 -7s42.334 9.5 62.001 12.5s36 0.833008 49 -6.5s18.167 -28 15.5 -62c-2 -28.667 -0.333008 -56 5 -82s11.333 -52 18 -78s12.5 -52.333 17.5 -79
s6.16699 -55 3.5 -85c-16.667 -9.33301 -34.667 -14.5 -54 -15.5s-39 -2.16699 -59 -3.5c-7.33301 50 -13.5 100.333 -18.5 151s-13.5 100 -25.5 148l-26 -286c-1.33301 -8.66699 -0.333008 -15.834 3 -21.501s8 -9.83398 14 -12.501s12.667 -3.66699 20 -3s14 2.66699 20 6
c5.33301 2 9.83301 1.33301 13.5 -2l11.5 -11c0 -6.66699 0.166992 -13.667 0.5 -21s4.5 -12.666 12.5 -15.999c13.333 9.33301 27.333 16.333 42 21s29.667 10.334 45 17.001c11.333 -14.667 17 -31.834 17 -51.501s2.33301 -38.167 7 -55.5c4 -32 10.5 -64.167 19.5 -96.5
s11.167 -64.166 6.5 -95.499zM117.002 -49.0029c3.33301 -16 0.331055 -28.1689 -9.00195 -36.502s-20.666 -12.833 -33.999 -13.5c-5.33301 2.66699 -10 4.83398 -14 6.50098s-7.33301 5.83398 -10 12.501c4 2.66699 9 9 15 19s12.333 18.667 19 26s12.834 11 18.501 11
s10.5 -8.33301 14.5 -25z" />
    <glyph glyph-name="B" unicode="B" horiz-adv-x="425" 
d="M344 64c-16.667 -17.333 -34.667 -34.0029 -54 -50.0029s-43.333 -24.667 -72 -26c-6 -2.66699 -11.667 -3.16699 -17 -1.5l-15.5 5c-5 1.66699 -9.83301 2.83398 -14.5 3.50098s-9.66699 -1.33301 -15 -6l-105 -1c-1.33301 16 -1.5 33.333 -0.5 52
s0.833008 37.167 -0.5 55.5s-5 35.666 -11 51.999s-16.667 29.5 -32 39.5c-5.33301 75.333 -7.5 147.833 -6.5 217.5s1.16699 142.834 0.5 219.501c40 5.33301 78.167 7 114.5 5l108.5 -6c24.667 -5.33301 45.5 -20.166 62.5 -44.499s27.833 -48.833 32.5 -73.5
c3.33301 -18 3.33301 -36.167 0 -54.5s-8.83301 -36 -16.5 -53s-17 -32.667 -28 -47s-23.167 -26.833 -36.5 -37.5c-2.66699 -1.33301 -5 -1.16602 -7 0.500977s-4 3.5 -6 5.5l-6 -6c-2 -2 -2.33301 -4 -1 -6c4.66699 -4.66699 10 -7.5 16 -8.5l17.5 -3
c5.66699 -1 11.167 -2.83301 16.5 -5.5s9.33301 -7.66699 12 -15c6 1.33301 10.667 3.83301 14 7.5l10 10.5c3.33301 3.33301 6.83301 6.33301 10.5 9s9.16699 4 16.5 4c15.333 -16.667 26 -35.167 32 -55.5s9 -41.333 9 -63s-2.66699 -43.167 -8 -64.5s-12 -41 -20 -59z
M219 466.997l-7.00195 -5.99707c-2.66699 4.66699 -6.5 8.66699 -11.5 12s-7.16699 7.66602 -6.5 12.999c-3.33301 6 -6.83301 12.667 -10.5 20s-7.66699 14 -12 20s-9.66602 10.833 -15.999 14.5s-14.166 4.5 -23.499 2.5c-1.33301 -34.667 -1.5 -65.834 -0.5 -93.501
s0.833008 -59.167 -0.5 -94.5l12 13c8.66699 -2.66699 15 -2 19 2s7.66699 8.5 11 13.5s7.33301 9 12 12s11.667 2.16699 21 -2.5c1.33301 6 4.33301 12 9 18s8.66699 12.167 12 18.5s4.83301 12.666 4.5 18.999s-4.83301 12.5 -13.5 18.5h1zM242.998 219
c0 6 -1.83008 11.498 -5.49707 16.498s-7.5 9.66699 -11.5 14s-7.5 9 -10.5 14s-3.83301 10.833 -2.5 17.5c-5.33301 -10 -13 -15.667 -23 -17s-19.333 0.333984 -28 5.00098l1 -12c-2 -4 -4.83301 -6.16699 -8.5 -6.5s-7.16699 -0.833008 -10.5 -1.5c-1.33301 2 -3 4 -5 6
s-2.66699 4.33301 -2 7c-3.33301 -4.66699 -6.16602 -10.167 -8.49902 -16.5s-1.5 -10.833 2.5 -13.5c1.33301 -22 1.16602 -48.167 -0.500977 -78.5s0.166016 -56.5 5.49902 -78.5c4.66699 8 9.5 13.5 14.5 16.5s10.5 4.5 16.5 4.5s12.167 -0.5 18.5 -1.5
s13.166 -1.16699 20.499 -0.5c10 6 17 13.833 21 23.5s6.83301 20.334 8.5 32.001s2.66699 23.5 3 35.5s2.16602 23.333 5.49902 34h-1z" />
    <glyph glyph-name="C" unicode="C" horiz-adv-x="422" 
d="M373 254c-3.33301 -14.667 -5.83203 -29.8389 -7.49902 -45.5059s-3.5 -31.334 -5.5 -47.001s-4.83301 -30.834 -8.5 -45.501s-9.5 -28.334 -17.5 -41.001l-7 8c-6.66699 -15.333 -14 -28.333 -22 -39s-20.333 -18 -37 -22c-8.66699 -10 -18.834 -16.167 -30.501 -18.5
s-23.834 -2.66602 -36.501 -0.999023s-25.167 4.5 -37.5 8.5s-23.166 7.33301 -32.499 10c-10.667 8.66699 -22.5 19 -35.5 31s-18.833 25.667 -17.5 41c-8.66699 12.667 -14.834 26.167 -18.501 40.5s-6.66699 29 -9 44l-7 45c-2.33301 15 -6.83301 29.167 -13.5 42.5
c-5.33301 -4 -11 -5.5 -17 -4.5s-10.333 4.83301 -13 11.5l7 6c-4.66699 4.66699 -6.66699 9.33398 -6 14.001s2 9.33398 4 14.001s3.33301 9.33398 4 14.001s-1.66602 9.33398 -6.99902 14.001c4.66699 24 9.16699 48.333 13.5 73s6.83301 49.667 7.5 75
c6 4 9.83301 8.83301 11.5 14.5s2.66699 11.834 3 18.501s0.666016 13 0.999023 19s2.5 11.333 6.5 16c10.667 22.667 25.5 43.334 44.5 62.001s40.833 31.667 65.5 39c12.667 -2 25.667 -2.66699 39 -2s25.333 -2 36 -8c17.333 2 31.833 -3.33301 43.5 -16l35.5 -38
c29.333 -44 39 -94.667 29 -152c-11.333 1.33301 -20 -2.83398 -26 -12.501s-10.333 -18.834 -13 -27.501l-68 -3c-6 12 -9.16699 25.333 -9.5 40s0 29.5 1 44.5s1.33301 29.667 1 44s-3.5 27.833 -9.5 40.5l-21 -13c-8 4.66699 -12 9.83398 -12 15.501
s0.5 11.334 1.5 17.001s1 10.667 0 15s-6.5 7.83301 -16.5 10.5c-6.66699 -50.667 -11.667 -99.334 -15 -146.001s-5.33301 -95 -6 -145c2 -3.33301 5.16699 -5.33301 9.5 -6s8.33301 -1.66699 12 -3s6.5 -3.16602 8.5 -5.49902s2 -6.5 0 -12.5l-7 -6
c3.33301 -8.66699 4.83301 -19 4.5 -31s-1 -24.167 -2 -36.5s-1.16699 -24.666 -0.5 -36.999s3.66699 -23.166 9 -32.499c-1.33301 -14.667 3 -25 13 -31c17.333 7.33301 30.666 5.83301 39.999 -4.5s15.666 -22.5 18.999 -36.5
c0.666992 -4.66699 0.333984 -9.5 -0.999023 -14.5s0.666992 -8.83301 6 -11.5c6.66699 4 10.834 9.16699 12.501 15.5s2.5 13 2.5 20s0.333008 13.833 1 20.5s3 12.334 7 17.001c-0.666992 10 -3 19.5 -7 28.5s-7.33301 18.167 -10 27.5s-4.16699 18.666 -4.5 27.999
s2.5 19 8.5 29c-5.33301 2.66699 -7.33301 6.66699 -6 12s1.66602 10.333 0.999023 15c16.667 4 35.334 5.33301 56.001 4s39.334 -5 56.001 -11v1z" />
    <glyph glyph-name="D" unicode="D" horiz-adv-x="398" 
d="M337 476c12.667 -68 15.832 -137.831 9.49902 -209.498s-19.833 -138.834 -40.5 -201.501l-36 -31c-12 13.333 -21 27.333 -27 42s-11.667 29.667 -17 45c-2 -2 -4 -3.83301 -6 -5.5s-4.33301 -1.83398 -7 -0.500977c-4.66699 2.66699 -7 5.16699 -7 7.5
s1.16699 4.83301 3.5 7.5s4.83301 5.33398 7.5 8.00098s3.66699 5.33398 3 8.00098c6.66699 54.667 7.83398 110 3.50098 166s-10.166 110.667 -17.499 164c4 1.33301 8.66699 1.33301 14 0s9 0.666992 11 6c-10 7.33301 -18.667 17.666 -26 30.999
s-8.66602 28.333 -3.99902 45l26 23c-4.66699 8.66699 -9.66699 10.334 -15 5.00098l-10 -10c-4 10 -9.16699 19.167 -15.5 27.5s-7.83301 19.833 -4.5 34.5l-6 6l-12 -24c-3.33301 -0.666992 -6.33301 0.166016 -9 2.49902l-7.5 6.5c-2.33301 2 -4.83301 3 -7.5 3
s-5.33398 -2.33301 -8.00098 -7c6.66699 -3.33301 8.16699 -7 4.5 -11s-5.16699 -8 -4.5 -12c1.33301 -12 4.83301 -23.667 10.5 -35s4.16699 -22.666 -4.5 -33.999c2.66699 -15.333 4.83398 -32.666 6.50098 -51.999s-2.5 -35 -12.5 -47
c-0.666992 -3.33301 0.166016 -6.33301 2.49902 -9l6.5 -7.5c2 -2.33301 3.33301 -4.83301 4 -7.5s-1.33301 -5.33398 -6 -8.00098c5.33301 -14.667 7.33301 -30.834 6 -48.501s-1.33301 -34.5 0 -50.5c-4.66699 -1.33301 -9.66699 -1.33301 -15 0s-9 -0.666992 -11 -6
c11.333 0 18.5 -4.5 21.5 -13.5s6.5 -17.167 10.5 -24.5v-100c2 -9.33301 1.16699 -17.666 -2.5 -24.999s-8.83398 -13.666 -15.501 -18.999c-14 5.33301 -27.167 12.666 -39.5 21.999s-24.166 19 -35.499 29c-4.66699 0.666992 -9.33398 -1.16602 -14.001 -5.49902
s-8.66699 -2.83301 -12 4.5c-4 9.33301 -6.33301 18.666 -7 27.999s-0.833984 18.833 -0.500977 28.5s0.5 19.667 0.5 30s-1.66699 20.833 -5 31.5l12 13c-6 8.66699 -9.66699 18.5 -11 29.5s-1.83301 22.167 -1.5 33.5s0.333008 22.833 0 34.5s-2.83301 22.5 -7.5 32.5
c4 0 7.83301 0.166992 11.5 0.5s6.5 2.5 8.5 6.5c-7.33301 32.667 -12.666 63.667 -15.999 93s-4.33301 60.666 -3 93.999c0.666992 7.33301 -0.5 15.166 -3.5 23.499s-5.33301 16.5 -7 24.5s-1.66699 15.333 0 22s7.16699 12 16.5 16c16.667 -2 33.834 -2.33301 51.501 -1
s35.5 2.83301 53.5 4.5s36 2.66699 54 3s35.667 -1.83398 53 -6.50098l62 -49c2.66699 -7.33301 6.16699 -14.166 10.5 -20.499s5.16602 -13.833 2.49902 -22.5l-25 -13c16 0 27 -3.83301 33 -11.5s9.5 -17 10.5 -28s1.33301 -22.667 1 -35s1.5 -22.833 5.5 -31.5l-6 -6z
M257.998 4.00195c-14 -9.33301 -29.165 -16.8311 -45.498 -22.498s-32.5 -4.83398 -48.5 2.49902c-6 -6 -12.167 -9.5 -18.5 -10.5s-12.5 -1.16699 -18.5 -0.5s-12.167 0.833984 -18.5 0.500977s-12.833 -2.5 -19.5 -6.5c-6.66699 5.33301 -14.5 7.33301 -23.5 6
s-18.167 -1.33301 -27.5 0c-7.33301 10 -12.166 20.167 -14.499 30.5s-3.66602 20.833 -3.99902 31.5s-0.5 21.667 -0.5 33s-2 23 -6 35l7 6c-4.66699 3.33301 -7 8.66602 -7 15.999s2 12.333 6 15c11.333 0 21.666 -2.33301 30.999 -7s18.666 -9.83398 27.999 -15.501
s18.833 -10.667 28.5 -15s20.167 -6.16602 31.5 -5.49902c5.33301 -7.33301 12.166 -13 20.499 -17s16.166 -2.66699 23.499 4c4.66699 10 9.5 13.167 14.5 9.5s10.5 -6.83398 16.5 -9.50098c8 -10 16.167 -22.167 24.5 -36.5s14.833 -28.833 19.5 -43.5h1zM282 595.004
l-6 6l-4 -4zM268 598.004c-2.66699 2 -5.33301 2.83203 -8 2.49902s-5.66699 -0.166016 -9 0.500977z" />
    <glyph glyph-name="E" unicode="E" horiz-adv-x="348" 
d="M288 539c-21.333 -2.66699 -44.834 -1.66309 -70.501 3.00391s-48.167 7.66699 -67.5 9c-6 -8.66699 -9.83301 -18.334 -11.5 -29.001s-2.5 -21.667 -2.5 -33s0.333008 -22.833 1 -34.5s0.666992 -22.834 0 -33.501c6 -3.33301 9.83301 -7.83301 11.5 -13.5
s2.5 -11.5 2.5 -17.5s-0.333008 -11.833 -1 -17.5s-0.333984 -9.83398 0.999023 -12.501c-4 -2 -6.16699 -5 -6.5 -9s-0.5 -7.66699 -0.5 -11c-5.33301 2 -13.166 7.33301 -23.499 16s-15.166 18 -14.499 28l-6 -6l-6 6c-5.33301 -0.666992 -14.5 2 -27.5 8
s-22.167 11.667 -27.5 17c0 3.33301 -0.166992 6.66602 -0.5 9.99902s1.5 6 5.5 8l-13 14l-6 -9c-4.66699 37.333 -7 72.833 -7 106.5s2 69.5 6 107.5c42 -6.66699 84.5 -9.16699 127.5 -7.5s88.167 2.16699 135.5 1.5c7.33301 -6 11.333 -13 12 -21
s0.166992 -16.5 -1.5 -25.5s-3.66699 -18.167 -6 -27.5s-3.5 -18.333 -3.5 -27zM293.999 61.0039c-6.66699 -14 -9.16406 -29.334 -7.49707 -46.001s2.16699 -32.667 1.5 -48c-25.333 -1.33301 -46.833 -1.33301 -64.5 0s-37.834 -1 -60.501 -7l-19 20l-5.5 -5.5
c-1.66699 -1.66699 -1.83398 -4.16699 -0.500977 -7.5c-12 1.33301 -27.333 1.33301 -46 0s-34.667 0.666992 -48 6c-4.66699 -4.66699 -10.834 -6.83398 -18.501 -6.50098s-14.167 2.5 -19.5 6.5c-4 3.33301 -5.66699 6.66602 -5 9.99902s1.66699 7 3 11
s2.16602 7.83301 2.49902 11.5s-1.83398 7.16699 -6.50098 10.5c0.666992 25.333 2.16699 49.333 4.5 72s4.33301 45.334 6 68.001s2.33398 45.5 2.00098 68.5s-2.83301 47.167 -7.5 72.5c8 8 16.333 11.667 25 11s17.167 -3.16699 25.5 -7.5s16.333 -9.5 24 -15.5
s14.5 -10.333 20.5 -13l6 -7c4.66699 9.33301 7.83398 19.833 9.50098 31.5s6.83398 20.167 15.501 25.5l6 -6c6 2.66699 12 6.66699 18 12s12.167 9.83301 18.5 13.5s12.666 5.5 18.999 5.5s12.5 -4 18.5 -12c14 -7.33301 21.667 -17 23 -29s4.66602 -23.667 9.99902 -35
c-10 -0.666992 -22.5 -1 -37.5 -1s-27.167 0.666992 -36.5 2c-3.33301 -5.33301 -6.66602 -7.66602 -9.99902 -6.99902s-6.5 1.83398 -9.5 3.50098s-6.16699 3 -9.5 4s-6.66602 -1.16699 -9.99902 -6.5c0.666992 -33.333 0.5 -66 -0.5 -98s1.16699 -65.667 6.5 -101
c25.333 -1.33301 50.666 -1.33301 75.999 0s52.333 -1 81 -7v1z" />
    <glyph glyph-name="F" unicode="F" horiz-adv-x="339" 
d="M280 580c-4 -6.66699 -8.99707 -10.335 -14.9971 -11.002s-11.333 1 -16 5c-8.66699 1.33301 -20.667 1.33301 -36 0s-28.333 0.666992 -39 6c-2.66699 0 -5.66699 -1.33301 -9 -4s-6.66602 -5 -9.99902 -7s-6.16602 -2.5 -8.49902 -1.5s-3.5 5.16699 -3.5 12.5
c-1.33301 5.33301 -1.33301 11 0 17s-1 10.667 -7 14l-13 -11c-8 -6.66699 -9.16699 -13.167 -3.5 -19.5s9.16699 -12.833 10.5 -19.5c1.33301 -17.333 1.66602 -33.666 0.999023 -48.999s-1.16699 -30.166 -1.5 -44.499s0.333984 -28.5 2.00098 -42.5
s5.16699 -28.333 10.5 -43c4.66699 5.33301 11 6.83301 19 4.5s14.333 -0.166016 19 6.50098c5.33301 -6 10.666 -8.5 15.999 -7.5s10.666 2.5 15.999 4.5s10.666 3 15.999 3s10.333 -4 15 -12l-6 -88l-14 4c-4.66699 1.33301 -8.66699 4.33301 -12 9
c-4.66699 -14.667 -11.834 -22.5 -21.501 -23.5s-20.834 -1.5 -33.501 -1.5c0.666992 4 -2 8.33301 -8 13c-13.333 -6.66699 -21 -17.334 -23 -32.001s-2.33301 -29 -1 -43c-0.666992 -4 -0.5 -11 0.5 -21s-1.16699 -18 -6.5 -24c-8.66699 -1.33301 -16.667 -0.333008 -24 3
s-14.5 7.16602 -21.5 11.499s-14 7.83301 -21 10.5s-14.167 3 -21.5 1l-19 -6l-11 405v63c30 10 63.5 14.167 100.5 12.5s71.833 -4.5 104.5 -8.5c2.66699 6 6.16699 9.33301 10.5 10s9 0.5 14 -0.5l15.5 -3c5.33301 -1 10.666 -0.5 15.999 1.5l5 6
c10.667 -5.33301 16.834 -11.666 18.501 -18.999s1.5 -15.5 -0.5 -24.5l-6.5 -28c-2.33301 -9.66699 -1.83301 -19.167 1.5 -28.5h1zM131.003 -43.001c-9.33301 -5.33301 -20.1699 -7.33398 -32.5029 -6.00098s-24.166 1 -35.499 -1
c-3.33301 4.66699 -5.16602 10.834 -5.49902 18.501s-1.33301 14.667 -3 21s-4.5 11.5 -8.5 15.5s-11 4.66699 -21 2h-18v149c10 5.33301 22.167 8 36.5 8s26.833 -2.66699 37.5 -8c-0.666992 -6.66699 2 -10.167 8 -10.5s11.667 -0.5 17 -0.5h19
c4.66699 -30 7.33398 -61.667 8.00098 -95s0 -64.333 -2 -93z" />
    <glyph glyph-name="G" unicode="G" horiz-adv-x="389" 
d="M344 259l-14.9971 -160.498c-4.66699 -50.333 -9 -103.166 -13 -158.499l-49 -3c2.66699 10.667 1.66699 19.667 -3 27s-8.33398 15.333 -11.001 24c-10.667 -2 -18.834 -6.5 -24.501 -13.5l-16.5 -20.5c-5.33301 -6.66699 -11 -11.834 -17 -15.501
s-15 -2.83398 -27 2.49902c-10 -7.33301 -21.5 -10 -34.5 -8s-25.167 3.66699 -36.5 5c-0.666992 14 -6.83398 23.833 -18.501 29.5s-22.167 10.167 -31.5 13.5c0 6.66699 -1.83301 13.334 -5.5 20.001s-7 13.167 -10 19.5s-4.83301 12.333 -5.5 18
s1.66602 10.834 6.99902 15.501c-2 7.33301 -5.33301 15.166 -10 23.499s-8.66699 17 -12 26s-5.33301 18.167 -6 27.5s1.33301 19 6 29c-7.33301 57.333 -10.833 111.833 -10.5 163.5s8.5 103.5 24.5 155.5c-3.33301 22.667 -2 44.167 4 64.5s18 36.166 36 47.499v13
c12.667 16.667 28.834 32.167 48.501 46.5s39.834 25.166 60.501 32.499c13.333 -3.33301 27 -6 41 -8s27.667 -5 41 -9s25.5 -10 36.5 -18s20.167 -19.667 27.5 -35c6.66699 -4 10.667 -8.83301 12 -14.5s2 -11.834 2 -18.501s0.166992 -13.167 0.5 -19.5
s2.5 -11.833 6.5 -16.5l-5 -6c1.33301 -9.33301 3.16602 -20 5.49902 -32s3.66602 -23.833 3.99902 -35.5s-0.833984 -22.667 -3.50098 -33s-8 -18.833 -16 -25.5c-7.33301 -0.666992 -13.833 0.5 -19.5 3.5s-11.5 5.83301 -17.5 8.5
c-4.66699 -4.66699 -9.16699 -6.83398 -13.5 -6.50098s-8.83301 1.33301 -13.5 3s-9.33398 3.16699 -14.001 4.5s-10 0.666016 -16 -2.00098c-0.666992 23.333 -1 43.666 -1 60.999s1.33301 36.333 4 57c-4.66699 2.66699 -8.16699 6.16699 -10.5 10.5
s-4.5 8.83301 -6.5 13.5s-4.5 8.66699 -7.5 12s-7.5 5.66602 -13.5 6.99902c-1.33301 -2 -3 -4 -5 -6s-2.66699 -4.33301 -2 -7l-18 6c-10.667 -12 -18 -26.167 -22 -42.5s-6.83301 -33.166 -8.5 -50.499s-3.5 -34.666 -5.5 -51.999s-6.66699 -33.666 -14 -48.999
c6 -6 9.5 -12.833 10.5 -20.5s1 -15.5 0 -23.5l-3 -25c-1 -8.66699 -0.5 -17 1.5 -25l-12 -12c6.66699 -27.333 9.83398 -56 9.50098 -86s0.166992 -59.333 1.5 -88c-5.33301 -1.33301 -11 -1.66602 -17 -0.999023s-10.667 -1.66602 -14 -6.99902
c16 4 27.333 1.16699 34 -8.5s12 -19.667 16 -30s8.83301 -17.333 14.5 -21s15.834 2.5 30.501 18.5c17.333 18.667 26.833 41.334 28.5 68.001s-0.5 52.334 -6.5 77.001c-4 -2.66699 -6.16699 -5.83398 -6.5 -9.50098s-0.5 -7.16699 -0.5 -10.5
c-3.33301 0 -6.83301 -0.166992 -10.5 -0.5s-6.83398 -2.5 -9.50098 -6.5c-5.33301 2 -7.16602 5.66699 -5.49902 11s1.83398 10 0.500977 14c7.33301 2.66699 11.166 5.5 11.499 8.5s-0.5 6.33301 -2.5 10s-3.83301 7.5 -5.5 11.5s-1.16699 8.33301 1.5 13l4 39
c14.667 -4 30 -5.83301 46 -5.5s32.333 0.833008 49 1.5c-1.33301 -3.33301 -1.16602 -5.83301 0.500977 -7.5l5.5 -5.5c4 4.66699 8.16699 7.16699 12.5 7.5s8.5 -0.333984 12.5 -2.00098s8.16699 -3.5 12.5 -5.5s8.5 -3 12.5 -3z" />
    <glyph glyph-name="H" unicode="H" horiz-adv-x="385" 
d="M337 368c-11.333 -16.667 -15.833 -32.3262 -13.5 -46.9932s2.5 -32.334 0.5 -53.001v-287c-8.66699 -4.66699 -17.5 -6.66699 -26.5 -6s-17.833 1.83398 -26.5 3.50098s-17 2.83398 -25 3.50098s-15.333 -1.66602 -22 -6.99902
c-7.33301 -2.66699 -12.666 -3.33398 -15.999 -2.00098s-5.83301 3.83301 -7.5 7.5s-2.83398 7.66699 -3.50098 12s-2 8.5 -4 12.5c4.66699 31.333 6.66699 65.166 6 101.499s-0.666992 69.166 0 98.499c7.33301 11.333 10.166 21.333 8.49902 30
s-4.83398 16.667 -9.50098 24s-9.66699 14.666 -15 21.999s-8.33301 15.333 -9 24l-6 -5c4.66699 -2 6.83398 -4.83301 6.50098 -8.5s-0.833008 -7.5 -1.5 -11.5c-5.33301 2 -9 5.16699 -11 9.5s-3.5 9.33301 -4.5 15s-1.83301 11.334 -2.5 17.001
s-2.33398 10.834 -5.00098 15.501c-8.66699 -29.333 -14.167 -58.833 -16.5 -88.5s-3.5 -59.5 -3.5 -89.5v-91c0 -30.667 -1.66699 -61.667 -5 -93c-11.333 2 -22 2.33301 -32 1s-19.667 -2.83301 -29 -4.5s-18.666 -2.66699 -27.999 -3s-19 1.83398 -29 6.50098
c-1.33301 11.333 -3.33301 21.666 -6 30.999s-1 19.666 5 30.999c-4 4.66699 -5.66699 9.66699 -5 15s1.66699 10.666 3 15.999s2.33301 10.666 3 15.999s-1.33301 10.333 -6 15c5.33301 12.667 7.16602 27.667 5.49902 45s-1.83398 31.333 -0.500977 42l-5 6
c4 9.33301 6 19.666 6 30.999s-0.166992 22.5 -0.5 33.5s0.166992 21.833 1.5 32.5s5 20.334 11 29.001l-6 6c4 6.66699 5.83301 14.5 5.5 23.5s-1.16602 18.333 -2.49902 28s-2.83301 19.167 -4.5 28.5s-1.5 18 0.5 26c-5.33301 29.333 -7.33301 56.666 -6 81.999
s1.33301 54 0 86c2 9.33301 6.16699 18.666 12.5 27.999s12.5 16.666 18.5 21.999h94c4 -23.333 5.83301 -45.5 5.5 -66.5s-1.16602 -41.833 -2.49902 -62.5l-4 -63.5c-1.33301 -21.667 -0.666016 -44.5 2.00098 -68.5c10.667 -4 23.5 -6.83301 38.5 -8.5
s26.5 3.16602 34.5 14.499l1 191c-1.33301 9.33301 -2 21 -2 35s4.33301 25.667 13 35c20 2 37.333 1.5 52 -1.5s30.667 -0.5 48 7.5l19 -18c-4.66699 -44 -7 -89.833 -7 -137.5s2.33301 -93.167 7 -136.5h1z" />
    <glyph glyph-name="I" unicode="I" horiz-adv-x="217" 
d="M139 638l-18.9971 -498.002l-6 -6c5.33301 -4 7.66602 -8.16699 6.99902 -12.5s-2 -8.5 -4 -12.5s-3.33301 -8.16699 -4 -12.5s1.66602 -8.5 6.99902 -12.5c-4.66699 -9.33301 -6.83398 -20.833 -6.50098 -34.5s-0.333984 -26.5 -2.00098 -38.5s-6 -21.167 -13 -27.5
s-20.5 -6.16602 -40.5 0.500977c-4.66699 6.66699 -9.83398 9.83398 -15.501 9.50098s-11.334 -1 -17.001 -2s-10.5 -1 -14.5 0s-7 6.5 -9 16.5c4.66699 13.333 6.83398 27 6.50098 41s-1.33301 28 -3 42s-3.16699 27.667 -4.5 41s-0.666016 26 2.00098 38
c0.666992 48 0.166992 99.333 -1.5 154s0.833008 107 7.5 157l5 6c-5.33301 4.66699 -7.5 9.16699 -6.5 13.5s2.33301 8.5 4 12.5s2.83398 8.16699 3.50098 12.5s-1.33301 8.5 -6 12.5c4.66699 6 6.66699 12.167 6 18.5s-1.83398 12.666 -3.50098 18.999
s-3 12.666 -4 18.999s1.16699 12.5 6.5 18.5l-5 6c4.66699 2.66699 6.33398 6.33398 5.00098 11.001s-1.33301 9.33398 0 14.001c10 2.66699 19.833 3.16699 29.5 1.5s19.167 -3.5 28.5 -5.5s18 -2.66699 26 -2s15.333 4.66699 22 12z" />
    <glyph glyph-name="J" unicode="J" horiz-adv-x="263" 
d="M218 705c-4 -24.667 -6 -48.832 -6 -72.499v-70c0 -23 -0.666992 -45.833 -2 -68.5s-5 -45.667 -11 -69l-7 -7c11.333 -1.33301 16.833 -6 16.5 -14s-1.5 -15.667 -3.5 -23c4.66699 -15.333 7 -33 7 -53s-2.33301 -38 -7 -54c-2.66699 1.33301 -5 1.16602 -7 -0.500977
s-3.66699 -3.16699 -5 -4.5l-6 5c-10 -5.33301 -18.167 -12.833 -24.5 -22.5s-12.666 -18.5 -18.999 -26.5s-13.333 -13.5 -21 -16.5s-17.834 0.166992 -30.501 9.5c-5.33301 26.667 -7.33301 54.5 -6 83.5s1.33301 57.5 0 85.5c6.66699 2 13.167 5.16699 19.5 9.5
s12.833 8 19.5 11s13.5 4.83301 20.5 5.5s14.5 -1.66602 22.5 -6.99902c2.66699 -6.66699 6.5 -8 11.5 -4l12.5 10c-5.33301 2 -10.166 5.5 -14.499 10.5s-9.16602 7.83301 -14.499 8.5c-12.667 2 -24 1 -34 -3s-19.667 -9.33301 -29 -16
c-7.33301 7.33301 -11.5 19.166 -12.5 35.499s-1.5 29.5 -1.5 39.5l7 6c-4.66699 4.66699 -7 11.667 -7 21s2 16.666 6 21.999c-5.33301 26.667 -7.33301 56.334 -6 89.001s1.33301 61.334 0 86.001c7.33301 3.33301 15.666 5.16602 24.999 5.49902s19.166 0.5 29.499 0.5
s20.5 0.333008 30.5 1s19.333 2.66699 28 6zM211 151.002c-1.33301 -5.33301 -1.33008 -14.1729 0.00292969 -26.5059s-0.666992 -22.166 -6 -29.499c-0.666992 -5.33301 -0.5 -14.166 0.5 -26.499s-1.16699 -22.166 -6.5 -29.499
c-12.667 -4.66699 -25.667 -7.83398 -39 -9.50098s-25.333 -6.83398 -36 -15.501c6 -13.333 7 -22.333 3 -27s-9.83301 -7.66699 -17.5 -9s-16.167 -2 -25.5 -2s-16.666 -2 -21.999 -6c-20 -4 -33.333 -2.33301 -40 5s-10.5 16.833 -11.5 28.5s-1.33301 24.334 -1 38.001
s-2.83398 25.167 -9.50098 34.5c6 4.66699 12.833 7.33398 20.5 8.00098l23.5 2c8 0.666992 15.667 2.33398 23 5.00098s13.666 8 18.999 16v82c2.66699 -1.33301 5.16699 -1.16602 7.5 0.500977s4.16602 3.5 5.49902 5.5c10 -4.66699 18.833 -5.16699 26.5 -1.5
s15 8.83398 22 15.501l21 21c7 7.33301 14.833 12 23.5 14c13.333 -2 21.166 -6.33301 23.499 -13s2.5 -14.5 0.5 -23.5l-6.5 -28.5c-2.33301 -10 -1.83301 -19.333 1.5 -28z" />
    <glyph glyph-name="K" unicode="K" horiz-adv-x="384" 
d="M339 -7c-4 0 -7.83789 0.167969 -11.5049 0.500977s-6.5 2.5 -8.5 6.5l-6 -6l-6 6c-5.33301 -1.33301 -14.166 -1.33301 -26.499 0s-22.166 -0.666992 -29.499 -6c-13.333 10 -22.333 22.667 -27 38s-7.66699 31.5 -9 48.5s-2.5 34.333 -3.5 52s-4.5 33.834 -10.5 48.501
c-8.66699 20.667 -14.334 43.334 -17.001 68.001s-3.33398 47.334 -2.00098 68.001l-12 19c0 -12.667 -4 -21.5 -12 -26.5s-16.667 -10.833 -26 -17.5c-7.33301 -2.66699 -13.666 -1.66699 -18.999 3s-11.333 8 -18 10
c-2.66699 -5.33301 -5.33398 -7.66602 -8.00098 -6.99902s-5.16699 2 -7.5 4s-4.83301 3.33301 -7.5 4s-5 -1.66602 -7 -6.99902c2.66699 -10.667 10.5 -16.5 23.5 -17.5s25.5 -2.16699 37.5 -3.5s20.333 -4.66602 25 -9.99902s0.333984 -18 -12.999 -38
c-10 -14.667 -15.5 -28.834 -16.5 -42.501s-0.5 -27.5 1.5 -41.5s3.5 -28.333 4.5 -43s-1.5 -30.334 -7.5 -47.001c-2 -6 -2.33301 -11.667 -1 -17s2.83301 -10.5 4.5 -15.5s2.66699 -10 3 -15s-1.83398 -10.167 -6.50098 -15.5c-9.33301 6 -18.666 8.33301 -27.999 7
s-18.5 -3 -27.5 -5s-17.833 -2.83301 -26.5 -2.5s-16.667 4.5 -24 12.5c-8.66699 9.33301 -13 20 -13 32s1 24.333 3 37s3.66699 25.5 5 38.5s-0.666992 25.5 -6 37.5c5.33301 27.333 7.16602 56.666 5.49902 87.999s-1.83398 62 -0.500977 92
c4.66699 0.666992 9.33398 0.5 14.001 -0.5s8.33398 1.16699 11.001 6.5c-10 10 -15.667 21 -17 33s-1.16602 24.333 0.500977 37s3.5 25.834 5.5 39.501s1.33301 27.167 -2 40.5c-4 18 -6.16699 34.667 -6.5 50s0.5 30.5 2.5 45.5l6.5 46.5c2.33301 16 3.83301 33 4.5 51
l119 -7c0.666992 -18.667 -0.666016 -37.5 -3.99902 -56.5l-9.5 -55.5c-3 -18 -5.16699 -35.833 -6.5 -53.5s0.666992 -35.167 6 -52.5c1.33301 -4 1.33301 -8.5 0 -13.5s0.666992 -8.5 6 -10.5c-2 16 0.166992 30.167 6.5 42.5s13.333 24.5 21 36.5
s14.334 24.5 20.001 37.5s6.5 27.833 2.5 44.5c6.66699 6 11.834 13.167 15.501 21.5s7 16.666 10 24.999s6.16699 16.166 9.5 23.499s8.33301 13.333 15 18l100 -13v-19l-6 1l-28.5 -68.5c-9.66699 -23 -23.167 -44.167 -40.5 -63.5c-7.33301 -28.667 -9 -56.667 -5 -84
s10 -54.833 18 -82.5l24 -83c8 -27.667 12.333 -55.834 13 -84.501c2 -16 5 -31.833 9 -47.5s7.5 -31.334 10.5 -47.001s5.33301 -31.334 7 -47.001s1.16699 -31.167 -1.5 -46.5z" />
    <glyph glyph-name="L" unicode="L" horiz-adv-x="325" 
d="M274 -19c-16 -2.66699 -33.0068 -3.16602 -51.0068 -1.49902s-36 3.5 -54 5.5s-35.667 2.66699 -53 2s-33 -5 -47 -13c-2 12 -6.5 22.167 -13.5 30.5l-20 24.5c-6.33301 8 -11 17 -14 27s-1.83301 22.667 3.5 38c-4.66699 8.66699 -5.5 19.667 -2.5 33
s5.5 26.166 7.5 38.499s1.5 23 -1.5 32s-12.5 13.5 -28.5 13.5v212c17.333 12.667 34 19 50 19c-5.33301 41.333 -8 80.666 -8 117.999s2.33301 76.666 7 117.999c24 0 48.667 -0.5 74 -1.5s47 -4.5 65 -10.5l-19 -180c-8.66699 -5.33301 -19.5 -7.66602 -32.5 -6.99902
s-22.833 0.666992 -29.5 0c-1.33301 -10 -6.66602 -15 -15.999 -15s-16.666 -3 -21.999 -9c8 -5.33301 17.833 -7.5 29.5 -6.5s22.834 1.16699 33.501 0.5c2.66699 -52.667 1.83398 -104 -2.49902 -154s-7.83301 -100.333 -10.5 -151
c4.66699 -3.33301 6.83398 -6.33301 6.50098 -9s-1.33301 -5.5 -3 -8.5s-3.16699 -6.16699 -4.5 -9.5s-0.666016 -7 2.00098 -11c-14 0.666992 -24.833 -3 -32.5 -11s-13.834 -16.667 -18.501 -26c4.66699 -4 10.5 -3.66699 17.5 1s13.5 8.33398 19.5 11.001
c8.66699 5.33301 17.334 7.66602 26.001 6.99902s17.5 -2 26.5 -4s17.833 -3.16699 26.5 -3.5s17.334 2.16699 26.001 7.5c7.33301 -4 16.333 -4.66699 27 -2s20.334 3.33398 29.001 2.00098c6.66699 -19.333 9.16699 -36.5 7.5 -51.5s-1.83398 -33.5 -0.500977 -55.5z" />
    <glyph glyph-name="M" unicode="M" horiz-adv-x="497" 
d="M444 405c-1.33301 -8 -1.33203 -19.5176 0.000976562 -34.5176s-0.666992 -28.167 -6 -39.5c-4.66699 -14 -6.83398 -29.667 -6.50098 -47s0.5 -35 0.5 -53s-1 -35.667 -3 -53s-7.66699 -32.666 -17 -45.999c4.66699 -32 3.16699 -61.667 -4.5 -89
s-16.167 -53.666 -25.5 -78.999c-9.33301 -3.33301 -16.166 -4.16602 -20.499 -2.49902s-7.83301 4.5 -10.5 8.5s-4.66699 9 -6 15s-3.33301 11.333 -6 16c-1.33301 36.667 -1.5 74.334 -0.5 113.001s-1.16699 75.667 -6.5 111l6 6c-4.66699 18 -6.83398 36.333 -6.50098 55
s1.33301 37.167 3 55.5l5 54.5c1.66699 18 1.5 35.667 -0.5 53c-16.667 -42.667 -27.5 -88.834 -32.5 -138.501s-8.83301 -96.834 -11.5 -141.501c-4.66699 -7.33301 -7.33398 -14 -8.00098 -20s-6.33398 -9.66699 -17.001 -11
c-2.66699 4.66699 -5.16699 6.83398 -7.5 6.50098s-4.83301 -1.5 -7.5 -3.5s-5.16699 -4.33301 -7.5 -7s-5.16602 -3.66699 -8.49902 -3l-13 -12c5.33301 -6 11.5 -8.33301 18.5 -7s13.667 3 20 5s11.666 2.33301 15.999 1s6.83301 -7.33301 7.5 -18
c0.666992 -11.333 -0.5 -22.166 -3.5 -32.499s-6.16699 -20.5 -9.5 -30.5s-5.83301 -20.5 -7.5 -31.5s-0.833984 -22.833 2.49902 -35.5l-69 -12c-10 20.667 -15.167 43.334 -15.5 68.001s-5.5 47.334 -15.5 68.001c4 4.66699 6 9.33398 6 14.001
s-0.833008 9.33398 -2.5 14.001s-3.66699 9.5 -6 14.5s-3.83301 9.83301 -4.5 14.5c-2 20.667 -5.16699 41.834 -9.5 63.501s-5.16602 41.834 -2.49902 60.501c0 4.66699 -1.16699 9.16699 -3.5 13.5l-7 12.5c-2.33301 4 -4 7.83301 -5 11.5s0.166992 7.5 3.5 11.5
c-3.33301 4 -5.16602 8.33301 -5.49902 13s-0.5 9.66699 -0.5 15s-0.166992 10.333 -0.5 15s-2.16602 9 -5.49902 13c-6 -16 -9.66699 -33 -11 -51s-2 -36.333 -2 -55s0.166992 -37 0.5 -55s-0.166992 -34.667 -1.5 -50l7 -6l-7 -6c6.66699 -29.333 9.16699 -60 7.5 -92
s-1.83398 -63.667 -0.500977 -95c-6.66699 -6 -13.167 -9.66699 -19.5 -11s-12.666 -2 -18.999 -2h-20c-7 0 -14.5 -2 -22.5 -6c-10.667 16.667 -15.167 36.834 -13.5 60.501s4.5 44.834 8.5 63.501c-6 10.667 -9.83301 22.5 -11.5 35.5s-2.5 26.167 -2.5 39.5
s0.5 26.5 1.5 39.5s1.16699 24.5 0.5 34.5c8 3.33301 11.333 7 10 11s-3.33301 8.16699 -6 12.5s-4.83398 8.83301 -6.50098 13.5s0.833008 9.33398 7.5 14.001l-27 323c8.66699 6 18.334 9.66699 29.001 11s21.667 1.83301 33 1.5s22.5 -0.333008 33.5 0
s21.167 2.5 30.5 6.5c4 2.66699 7.33301 3.33398 10 2.00098s5.16699 -3 7.5 -5s4.5 -3.16699 6.5 -3.5s4.33301 1.5 7 5.5l19 -18c6 -21.333 10.333 -43.5 13 -66.5s5.16699 -46 7.5 -69s5.5 -45.667 9.5 -68s10.333 -43.5 19 -63.5l19.5 74l18.5 75l19 130l155 6
c0.666992 -11.333 2.16699 -23.333 4.5 -36s4.5 -25.667 6.5 -39s2.83301 -26.666 2.5 -39.999s-2.5 -26.666 -6.5 -39.999c5.33301 -7.33301 8 -16.666 8 -27.999s-2.66699 -20.666 -8 -27.999z" />
    <glyph glyph-name="N" unicode="N" horiz-adv-x="379" 
d="M331 -11c-2.66699 -10 -6.67969 -15.498 -12.0127 -16.498s-11.166 -0.833008 -17.499 0.5l-19.5 4c-6.66699 1.33301 -13 -1 -19 -7c-7.33301 2.66699 -16 6 -26 10s-16.333 11.333 -19 22c9.33301 13.333 16.666 27.5 21.999 42.5s6.66602 31.5 3.99902 49.5
c1.33301 12.667 2 27.667 2 45s-4.66699 31.666 -14 42.999l-7 -6c-2.66699 2.66699 -6 7.33398 -10 14.001s-11 8 -21 4c2 13.333 0 23.5 -6 30.5s-13.333 12.667 -22 17l-26.5 13.5c-9 4.66699 -15.5 11.667 -19.5 21c-9.33301 -16 -12.333 -33.833 -9 -53.5
s6 -38.667 8 -57s0.666992 -34.5 -4 -48.5s-19.667 -23.333 -45 -28c-5.33301 4.66699 -12.166 6.33398 -20.499 5.00098s-16.166 -1.33301 -23.499 0c-7.33301 92.667 -12.5 182.167 -15.5 268.5s-4.16699 177.5 -3.5 273.5c8.66699 3.33301 17.834 5.16602 27.501 5.49902
s19.334 0.5 29.001 0.5s19.334 0.166992 29.001 0.5s18.834 2.16602 27.501 5.49902l38 -67c2.66699 -21.333 7.83398 -41.833 15.501 -61.5s16.834 -38.834 27.501 -57.501v-44c-15.333 9.33301 -29.333 21 -42 35s-25.667 27.333 -39 40
c0.666992 -6 -0.666016 -9.66699 -3.99902 -11s-7 -2.33301 -11 -3s-7.33301 -2 -10 -4s-2.66699 -6.33301 0 -13c10 -8.66699 22.667 -17 38 -25s29.666 -17 42.999 -27s24.333 -21.833 33 -35.5s11.667 -30.167 9 -49.5l20 -21c4.66699 3.33301 6.83398 6.33301 6.50098 9
s-1.5 5.33398 -3.5 8.00098s-4.16699 5.33398 -6.5 8.00098s-3.16602 5.66699 -2.49902 9c-1.33301 27.333 -1.33301 55.5 0 84.5s-1.33398 56.5 -8.00098 82.5c4.66699 6.66699 6.83398 13.167 6.50098 19.5s-1.16602 12.833 -2.49902 19.5s-2.83301 13.5 -4.5 20.5
s-1.5 14.167 0.5 21.5c-2.66699 10 -1.66699 18.667 3 26s8.33398 15.333 11.001 24c4.66699 1.33301 8 0.166016 10 -3.50098s4.33301 -6.83398 7 -9.50098c14.667 4 27.334 6.5 38.001 7.5s23.334 -1.16699 38.001 -6.5l-6 -517l6 -7v-111zM113.987 7.00195
c-9.33301 -2.66699 -19.832 -5.83398 -31.499 -9.50098s-17.834 -10.834 -18.501 -21.501l-37 31c-2 -3.33301 -4.83301 -5 -8.5 -5s-7.5 -0.333008 -11.5 -1c-5.33301 6.66699 -7.33301 14.5 -6 23.5s1.33301 17.833 0 26.5c8 0 15.667 1.33301 23 4l21.5 7.5
c7 2.33301 14.167 3.83301 21.5 4.5s14.333 -0.666016 21 -3.99902l5.5 5.5c1.66699 1.66699 4.16699 1.83398 7.5 0.500977c8 -4 12 -8.5 12 -13.5s-0.833008 -10.167 -2.5 -15.5s-3 -10.833 -4 -16.5s1.16699 -11.167 6.5 -16.5h1z" />
    <glyph glyph-name="O" unicode="O" horiz-adv-x="410" 
d="M362 230c-4.66699 -29.333 -7.83105 -59.1709 -9.49805 -89.5039s-6.83398 -59.5 -15.501 -87.5c-10 -4 -16.667 -3.66699 -20 1s-6.16602 9.83398 -8.49902 15.501s-5.16602 9.66699 -8.49902 12s-10 -0.5 -20 -8.5c-6 4 -12.167 7.16699 -18.5 9.5s-12 5 -17 8
s-9 7 -12 12s-3.83301 11.833 -2.5 20.5l8 5c-6.66699 33.333 -10.667 68.5 -12 105.5s-2.5 74.333 -3.5 112s-3.66699 74.667 -8 111s-13.166 70.5 -26.499 102.5c-6.66699 -2.66699 -9.33398 -6.66699 -8.00098 -12s1.66602 -9.66602 0.999023 -12.999l-19 31
c-5.33301 -5.33301 -7.33301 -12.166 -6 -20.499s1.33301 -16.166 0 -23.499c-10.667 1.33301 -17.334 -0.833984 -20.001 -6.50098s-6.33398 -11.834 -11.001 -18.501l19 -323l-13 -13l-6 6c-8.66699 -4.66699 -16.167 -10.167 -22.5 -16.5s-12.5 -12.166 -18.5 -17.499
s-13 -9.66602 -21 -12.999s-18.333 -4.33301 -31 -3c-5.33301 38.667 -11.666 80.5 -18.999 125.5s-11.333 89.5 -12 133.5s4.66602 85.833 15.999 125.5s33 73.5 65 101.5c9.33301 2 18.5 5 27.5 9s18 7.5 27 10.5s18.167 4.66699 27.5 5s19 -1.83398 29 -6.50098
c2 6.66699 5.66699 9.33398 11 8.00098s9.66602 -1 12.999 1c6.66699 -11.333 17.334 -16.333 32.001 -15c30 -21.333 51.833 -47 65.5 -77s23 -62 28 -96s7.66699 -68.833 8 -104.5s1.83301 -69.5 4.5 -101.5l6 -6zM319.003 -6.00488
c-7.33301 -1.33301 -14.1709 -1.33105 -20.5039 0.00195312s-12.666 2.33301 -18.999 3s-12.333 0.5 -18 -0.5s-11.167 -4.16699 -16.5 -9.5l-13 -25c-2.66699 3.33301 -5.83398 5.16602 -9.50098 5.49902s-7.66699 0.5 -12 0.5s-8.33301 0.333008 -12 1
s-6.83398 2.66699 -9.50098 6c-2.66699 -5.33301 -6.66699 -7.5 -12 -6.5s-9.66602 0.833008 -12.999 -0.5c0.666992 3.33301 -1.66602 7.66602 -6.99902 12.999c-3.33301 -6.66699 -8 -9.16699 -14 -7.5s-11.667 2.16699 -17 1.5l-6 6l-5.5 -5.5
c-1.66699 -1.66699 -3.83398 -1.83398 -6.50098 -0.500977c-4 1.33301 -6.16699 3.83301 -6.5 7.5s-0.5 7.16699 -0.5 10.5c7.33301 2 14.833 5.5 22.5 10.5s12.834 11.833 15.501 20.5c-5.33301 12 -13.166 18 -23.499 18s-19.166 2.66699 -26.499 8
c-6 -1.33301 -11.833 -3 -17.5 -5s-11 -3.33301 -16 -4s-9.5 0.333008 -13.5 3s-7 8.33398 -9 17.001c-3.33301 8.66699 -3.83301 14.667 -1.5 18s6 5.5 11 6.5s10.167 1.66699 15.5 2s9.33301 2.16602 12 5.49902c13.333 7.33301 25.833 16.833 37.5 28.5
s26.167 16.834 43.5 15.501c4.66699 -8.66699 7.5 -18.667 8.5 -30s2.66699 -22.333 5 -33s6.5 -20 12.5 -28s16 -13 30 -15c4 6.66699 6.83301 14.167 8.5 22.5s6.5 13.166 14.5 14.499c6 0 11.333 -1.5 16 -4.5l14 -9c4.66699 -3 9.83398 -5.16699 15.501 -6.5
s11.834 -0.666016 18.501 2.00098c7.33301 -8 12.166 -17.167 14.499 -27.5s5.83301 -19.833 10.5 -28.5z" />
    <glyph glyph-name="P" unicode="P" horiz-adv-x="356" 
d="M307 473c3.33301 -18 2.66504 -35.0029 -2.00195 -51.0029s-8 -32.333 -10 -49c4.66699 -2.66699 7 -5.33398 7 -8.00098s-0.833008 -5.5 -2.5 -8.5s-3.16699 -6.16699 -4.5 -9.5s-1 -6.66602 1 -9.99902c-12 -8.66699 -20.5 -19.5 -25.5 -32.5
s-11.167 -25.167 -18.5 -36.5c-4 6.66699 -9 10.334 -15 11.001s-12.333 0.833984 -19 0.500977s-13.167 0 -19.5 1s-11.166 5.16699 -14.499 12.5c-11.333 0 -19.166 -2.83301 -23.499 -8.5s-7 -12.334 -8 -20.001s-1.66699 -15.834 -2 -24.501s-2.16602 -16 -5.49902 -22
l1 -7c-10.667 3.33301 -17.834 9.16602 -21.501 17.499s-6.16699 17.833 -7.5 28.5l-4 32.5c-1.33301 11 -5 20.833 -11 29.5c-1.33301 -2 -2.83301 -4 -4.5 -6s-1.83398 -4.66699 -0.500977 -8c-11.333 -2.66699 -18 -1.16699 -20 4.5s-3.16699 11.834 -3.5 18.501
s-1.33301 12.334 -3 17.001s-7.5 4.33398 -17.5 -0.999023c4 -2.66699 5.83301 -5.83398 5.5 -9.50098s-0.166016 -7.5 0.500977 -11.5c-4.66699 0 -8.66699 1.66699 -12 5s-8 4 -14 2c-5.33301 18 -7.16602 34.167 -5.49902 48.5s1.83398 28.833 0.500977 43.5
c-5.33301 18.667 -8 35.334 -8 50.001s2.66699 31.667 8 51c-5.33301 3.33301 -7.5 8 -6.5 14s1.16699 11.667 0.5 17c4 7.33301 4.66699 16.333 2 27s-5 21.167 -7 31.5s-2 19.5 0 27.5s9.66699 13 23 15c5.33301 -7.33301 9.66602 -15.166 12.999 -23.499
s9.66602 -15.5 18.999 -21.5c12.667 4 27.667 6.5 45 7.5s30.666 -3.5 39.999 -13.5c7.33301 4.66699 16 7 26 7s18 -2.33301 24 -7c26.667 -12.667 48.834 -30 66.501 -52s29.167 -48.333 34.5 -79h-1zM126.999 180.997
c-1.33301 -29.333 -1.33398 -62.168 -0.000976562 -98.501s-0.666992 -70.166 -6 -101.499c-12.667 7.33301 -26.167 9.33301 -40.5 6s-30.166 -3 -47.499 1c-10.667 -4.66699 -17.667 -3.33398 -21 3.99902l-10 21c-2 8.66699 -2.33301 17 -1 25s2.83301 15.667 4.5 23
s2.66699 14.833 3 22.5s-1.83398 15.5 -6.50098 23.5l6 5l-6 206c13.333 -7.33301 28 -13.666 44 -18.999s26.333 -15.333 31 -30c4.66699 -7.33301 8.16699 -15.333 10.5 -24s5 -17.167 8 -25.5s6.83301 -16 11.5 -23s11.334 -12.5 20.001 -16.5v1zM170.998 366.995
c7.33301 32.667 8.66699 62.168 4 88.501s-10.667 55.166 -18 86.499l-6 -6c1.33301 -24.667 1.33301 -52.5 0 -83.5s0.666992 -59.5 6 -85.5h14z" />
    <glyph glyph-name="Q" unicode="Q" horiz-adv-x="413" 
d="M361 393c-2.66699 -18 -4.33105 -36.8262 -4.99805 -56.4932s-1.83398 -39.167 -3.50098 -58.5s-4 -37.833 -7 -55.5s-8.16699 -33.834 -15.5 -48.501c-2.66699 -2.66699 -5.66699 -5.33398 -9 -8.00098s-4.33301 -6 -3 -10c-2.66699 0.666992 -6 0.833984 -10 0.500977
s-7 1.5 -9 5.5c-2 -2 -3.83301 -4 -5.5 -6s-1.83398 -4.66699 -0.500977 -8c2.66699 -5.33301 6.33398 -7.33301 11.001 -6s9 1.66602 13 0.999023c-5.33301 -22 -7.33301 -45.333 -6 -70s1.33301 -49 0 -73c4 -10 10.5 -14.167 19.5 -12.5s17.167 1.83398 24.5 0.500977
c3.33301 -17.333 5.66602 -36.666 6.99902 -57.999s-3 -39.666 -13 -54.999c-12.667 1.33301 -25.5 2.83301 -38.5 4.5s-25.333 4.5 -37 8.5s-22.334 9.83301 -32.001 17.5s-17.5 18.167 -23.5 31.5c-0.666992 16.667 -9 31.667 -25 45l-54 9
c-19.333 3.33301 -32.333 13 -39 29c-0.666992 9.33301 1.16602 17.333 5.49902 24s9.33301 13.167 15 19.5s11.167 12.833 16.5 19.5s9 14 11 22c6.66699 2 12.834 0.333008 18.501 -5s10.834 -10.5 15.501 -15.5s9.33398 -8.33301 14.001 -10s9.66699 2.16602 15 11.499
c4.66699 22 7.83398 44.5 9.50098 67.5s6.83398 44.167 15.501 63.5c-4.66699 24 -7 50 -7 78s2.33301 54.333 7 79l-6 5c7.33301 7.33301 9 14.666 5 21.999s-5.66699 14.666 -5 21.999c9.33301 42 9.33301 83.333 0 124c-10 1.33301 -19.333 5.66602 -28 12.999
s-15.334 14 -20.001 20c-2 -2 -3.16699 -4.16699 -3.5 -6.5s-1.5 -4.83301 -3.5 -7.5l-6 6c-2 2 -2.33301 4.66699 -1 8c4.66699 2.66699 5.66699 7.33398 3 14.001s-6 12.334 -10 17.001c-4.66699 -27.333 -9.5 -58.833 -14.5 -94.5s-5.83301 -68.5 -2.5 -98.5
c-6 -22.667 -9.83301 -44.834 -11.5 -66.501s-2.5 -43.334 -2.5 -65.001s0.333008 -43.834 1 -66.501s0.666992 -46.334 0 -71.001c1.33301 -4.66699 3 -9.33398 5 -14.001s2.66699 -9.66699 2 -15c-9.33301 2.66699 -15 0.833984 -17 -5.49902s-4.66699 -11.5 -8 -15.5
l-1 -12c-5.33301 0.666992 -9.66602 -1.33301 -12.999 -6s-7.33301 -8.66699 -12 -12c2 -6.66699 1.33301 -11.834 -2 -15.501l-10 -10.5c-11.333 0 -19 2.83301 -23 8.5s-7.33301 12.667 -10 21l-8 25.5c-2.66699 8.66699 -8 15.667 -16 21
c-5.33301 12.667 -7.33301 28.334 -6 47.001s1.66602 34 0.999023 46l-13 31c5.33301 35.333 8.16602 71.833 8.49902 109.5s2.83301 74.5 7.5 110.5s14 69.5 28 100.5s37 56.833 69 77.5l48 10.5c16.667 3.66699 31.334 4.5 44.001 2.5
c6 5.33301 11.5 7.66602 16.5 6.99902s10 -2.33398 15 -5.00098l14.5 -8c4.66699 -2.66699 10 -3 16 -1c11.333 -4.66699 20.666 -11.167 27.999 -19.5s13.666 -17.333 18.999 -27s10 -19.5 14 -29.5s8.66699 -19.667 14 -29c-10 -8.66699 -14.5 -16.5 -13.5 -23.5
s3.66699 -14.167 8 -21.5s8.5 -14.833 12.5 -22.5s4 -16.5 0 -26.5c8 -3.33301 12 -7.33301 12 -12s-0.833008 -9.5 -2.5 -14.5s-3 -10 -4 -15s1.16699 -9.83301 6.5 -14.5v1z" />
    <glyph glyph-name="R" unicode="R" horiz-adv-x="355" 
d="M304 88c-5.33301 -12.667 -7.33203 -27.5078 -5.99902 -44.5078s1.66602 -30.833 0.999023 -41.5c-3.33301 -2 -7.66602 0.333008 -12.999 7c-6 -2.66699 -9.66699 -6.16699 -11 -10.5s-1.83301 -9 -1.5 -14s0.5 -9.83301 0.5 -14.5s-2 -8.66699 -6 -12
c-11.333 9.33301 -24.333 14.666 -39 15.999s-29 4 -43 8c2 46.667 1.5 92.334 -1.5 137.001s-8.16699 88.667 -15.5 132c-0.666992 5.33301 -0.5 14.166 0.5 26.499s-1.16699 22.166 -6.5 29.499l-7 -7c0 2.66699 3 5.66699 9 9s7.33301 8.66602 4 15.999l-7 7
c-9.33301 -2.66699 -14.833 -6.83398 -16.5 -12.501s-2.5 -11.667 -2.5 -18s-0.5 -12.5 -1.5 -18.5s-5.16699 -10.667 -12.5 -14c3.33301 -3.33301 4.83301 -7.16602 4.5 -11.499s-0.833008 -8.66602 -1.5 -12.999s-0.833984 -8.66602 -0.500977 -12.999
s2.5 -8.16602 6.5 -11.499c-1.33301 -36.667 -1.33301 -72.667 0 -108s-1.33398 -72 -8.00098 -110v-18c-10 1.33301 -21 1.5 -33 0.5s-23.667 -1.66699 -35 -2s-22 0.666992 -32 3s-18 7.83301 -24 16.5l7 373c-3.33301 16 -5.16602 34 -5.49902 54s-0.5 40.333 -0.5 61
s-0.333008 41 -1 61s-2.66699 38.333 -6 55c1.33301 8 4.83301 13.333 10.5 16s12 3.83398 19 3.50098s14 -1.5 21 -3.5l17.5 -5c9.33301 4.66699 20 6.66699 32 6s23.667 -1.16699 35 -1.5s22.166 1 32.499 4s18.833 10.5 25.5 22.5c8.66699 0 15.834 -1.66699 21.501 -5
s11.167 -7 16.5 -11s10.833 -7.83301 16.5 -11.5s12.5 -6.16699 20.5 -7.5c16 -13.333 26.833 -29.666 32.5 -48.999s8.33398 -39.666 8.00098 -60.999s-2.33301 -42.666 -6 -63.999s-6.83398 -40.666 -9.50098 -57.999l-51 -49c7.33301 -19.333 12.5 -39.666 15.5 -60.999
l9 -64c3 -21.333 7.16699 -42.166 12.5 -62.499s14 -39.166 26 -56.499h-1zM236.001 516.992c-1.33301 7.33301 -1.50098 15.0029 -0.500977 23.0029s1.5 16 1.5 24s-0.833008 15.667 -2.5 23s-5.5 13.666 -11.5 18.999c-9.33301 -14 -14.333 -29.833 -15 -47.5
s-5.66699 -33.5 -15 -47.5c-10 0.666992 -17 4.16699 -21 10.5s-6.83301 13.5 -8.5 21.5s-2.66699 16.5 -3 25.5s-2.16602 17.167 -5.49902 24.5v-13c-3.33301 -2 -6.16602 -4.83301 -8.49902 -8.5s-5.83301 -4.83398 -10.5 -3.50098
c0 -4.66699 -1.16699 -9.33398 -3.5 -14.001s-4.33301 -9.16699 -6 -13.5s-2 -8.5 -1 -12.5s4.5 -7.33301 10.5 -10c-4.66699 -28 -5.33398 -53.667 -2.00098 -77s4 -49.333 2 -78c26 -4 43.5 -0.333008 52.5 11s14.833 25.833 17.5 43.5s5.16699 36 7.5 55
s9.5 34.167 21.5 45.5z" />
    <glyph glyph-name="S" unicode="S" horiz-adv-x="370" 
d="M325 51c-2 -1.33301 -3.99609 -3.00684 -5.99609 -5.00684s-4.66699 -2.66699 -8 -2l-5 7c-8 -17.333 -19 -30.166 -33 -38.499s-28.833 -14.666 -44.5 -18.999s-31.5 -7.83301 -47.5 -10.5s-30.333 -7 -43 -13c-4 6.66699 -9 10.334 -15 11.001
s-11.667 -0.666016 -17 -3.99902c-14 7.33301 -27.167 17.666 -39.5 30.999s-23 28.333 -32 45s-16.167 34.334 -21.5 53.001s-7.66602 37.667 -6.99902 57c5.33301 0 9.33301 1.5 12 4.5s6.66699 3.5 12 1.5c11.333 0 25.5 0.166992 42.5 0.5s32.5 2.5 46.5 6.5
c2.66699 -4.66699 3.16699 -9.16699 1.5 -13.5s-3.5 -8.16602 -5.5 -11.499s-2.66699 -6.5 -2 -9.5s4.66699 -5.83301 12 -8.5c-6.66699 -4 -8.83398 -9.16699 -6.50098 -15.5l6.5 -17.5c3.33301 -16 10.5 -24 21.5 -24s22.167 1.16699 33.5 3.5s21 2.33301 29 0
s10.667 -14.166 8 -35.499c6 2.66699 9.83301 6 11.5 10s2.5 8.33301 2.5 13s-0.333008 9.5 -1 14.5s-0.333984 9.5 0.999023 13.5c-6 4 -9.66699 9.66699 -11 17s-1.83301 15.166 -1.5 23.499s0.5 16.666 0.5 24.999s-2 15.5 -6 21.5l-50 49
c1.33301 7.33301 0.5 12.333 -2.5 15s-6.66699 4.5 -11 5.5s-9 2 -14 3s-8.5 3.83301 -10.5 8.5l-37.5 37.5l-37.5 36.5l7 6c-12.667 -0.666992 -21.334 4.66602 -26.001 15.999s-11 20.333 -19 27c6.66699 4 7.83398 8.33301 3.50098 13s-7.16602 8.66699 -8.49902 12
c-6.66699 26.667 -8.5 53.834 -5.5 81.501s10.833 52.834 23.5 75.501h12c-0.666992 -2.66699 0 -5 2 -7s3.33301 -4 4 -6c13.333 2.66699 24.833 9.16699 34.5 19.5l28 31c9 10.333 18.667 18.5 29 24.5s23.5 6 39.5 0l26 6c22.667 -9.33301 43.667 -23 63 -41
s31.666 -39.333 36.999 -64c5.33301 -12 7.33301 -25.167 6 -39.5s-1.66602 -28.166 -0.999023 -41.499c-18 4.66699 -34.667 5.66699 -50 3s-31.666 -6.33398 -48.999 -11.001c-3.33301 8.66699 -4.83301 18.334 -4.5 29.001s0.333008 21.167 0 31.5s-2.5 19.5 -6.5 27.5
s-12 13.667 -24 17l-4 11.5c-1.33301 3.66699 -5 7.16699 -11 10.5c3.33301 -12 2.66602 -19.667 -2.00098 -23s-10.334 -5.66602 -17.001 -6.99902s-12.834 -3.5 -18.501 -6.5s-7.5 -9.83301 -5.5 -20.5c-4.66699 -18.667 -4.33398 -35.167 0.999023 -49.5
s13.166 -27.5 23.499 -39.5s22 -23.167 35 -33.5s24.5 -21.166 34.5 -32.499c23.333 -10.667 42 -24.334 56 -41.001s25.667 -36.334 35 -59.001c-4 -8 -5.83301 -15.833 -5.5 -23.5l1 -22c0.333008 -7 -0.5 -13.667 -2.5 -20s-7.66699 -11.5 -17 -15.5
c2.66699 -6 6.16699 -9.83301 10.5 -11.5s8.83301 -2.66699 13.5 -3s9.33398 -1 14.001 -2s8.66699 -3.5 12 -7.5c0 -8 -1.33301 -16.5 -4 -25.5s-4.83398 -17.833 -6.50098 -26.5s-2 -17.167 -1 -25.5s4.83301 -16.166 11.5 -23.499h1z" />
    <glyph glyph-name="T" unicode="T" horiz-adv-x="482" 
d="M435 515c-2 -4 -5 -6.00098 -9 -6.00098s-7.33301 -0.666992 -10 -2c-7.33301 11.333 -9.33301 24.333 -6 39s3 27 -1 37c0 6.66699 0.333008 14.5 1 23.5s6.66699 11.833 18 8.5c4.66699 -4.66699 7.33398 -10.167 8.00098 -16.5s0.5 -13.166 -0.5 -20.499
s-1.83301 -14.833 -2.5 -22.5s-0.333984 -15.167 0.999023 -22.5v-18h1zM352 513.999c-16.667 2 -33.1689 1.66699 -49.502 -1s-31.166 -2 -44.499 2c-10 -7.33301 -14 -18 -12 -32l6 -5l-5.5 -5.5c-1.66699 -1.66699 -1.83398 -4.16699 -0.500977 -7.5l5 -7l-8.5 -142.5
c-3 -49.667 -1.83301 -95.167 3.5 -136.5c-5.33301 -15.333 -7.83301 -31.166 -7.5 -47.499s1.5 -33.166 3.5 -50.499s3.66699 -35 5 -53s1 -36 -1 -54c-15.333 -6.66699 -30.5 -8.16699 -45.5 -4.5s-28.833 9.16699 -41.5 16.5
c-2.66699 -2.66699 -5.66699 -5.33398 -9 -8.00098s-4.33301 -6.33398 -3 -11.001c-6.66699 -2 -11.834 -1.33301 -15.501 2l-11.5 10c0 49.333 -0.666992 96.833 -2 142.5s-3 90.834 -5 135.501s-4.33301 89.5 -7 134.5l-8 140.5c-6.66699 -6 -13.334 -10 -20.001 -12
s-13.5 -3.16699 -20.5 -3.5s-14 -0.833008 -21 -1.5s-14.167 -3 -21.5 -7c-9.33301 14 -14 31.833 -14 53.5s4.66699 39.5 14 53.5c15.333 -6.66699 32.5 -9.16699 51.5 -7.5s34.833 1.83398 47.5 0.500977c2 4 4.83301 6.16699 8.5 6.5s7.5 0.5 11.5 0.5
c7.33301 -4.66699 10.5 -10 9.5 -16s-2.5 -12 -4.5 -18s-2.83301 -12 -2.5 -18s5.5 -11.333 15.5 -16c5.33301 -0.666992 11.333 -0.833984 18 -0.500977s12.834 0 18.501 -1s10.334 -3.33301 14.001 -7s5.16699 -9.83398 4.5 -18.501
c3.33301 4.66699 7.83301 8.16699 13.5 10.5l17.5 7c6 2.33301 11.5 5.5 16.5 9.5s8.16699 10 9.5 18c1.33301 4 1.66602 8.5 0.999023 13.5s-1.16699 9.83301 -1.5 14.5s0.333984 9 2.00098 13s5.16699 7 10.5 9l35 -6.5c12.667 -2.33301 24.334 -0.5 35.001 5.5
c5.33301 -14.667 7.33301 -30.667 6 -48s-1.66602 -34.333 -0.999023 -51z" />
    <glyph glyph-name="U" unicode="U" horiz-adv-x="473" 
d="M406 639c-4 -40.667 -7.66602 -81.1611 -10.999 -121.494l-10 -120.5l6 -7c-10 -28.667 -14.333 -59.834 -13 -93.501s2.5 -67.167 3.5 -100.5s-1.33301 -65 -7 -95s-20.167 -56 -43.5 -78c-10 -5.33301 -21 -9.5 -33 -12.5s-20 -11.167 -24 -24.5
c-7.33301 0 -13.5 2.16699 -18.5 6.5s-9.16699 9.66602 -12.5 15.999s-6.5 13.166 -9.5 20.499s-6.16699 13.666 -9.5 18.999v37h18c-0.666992 -2.66699 -0.166992 -4.83398 1.5 -6.50098l5.5 -5.5l19 55l24 511c7.33301 3.33301 15.166 5.16602 23.499 5.49902
s16.5 0.333008 24.5 0l24 -1c8 -0.333008 15 0.5 21 2.5l20 -6zM226.001 4.00586c-1.33301 -4.66699 -1.49805 -9.5 -0.498047 -14.5s-1.16699 -8.83301 -6.5 -11.5c-8 -3.33301 -13 -1.83301 -15 4.5s-5.33301 11.5 -10 15.5c-5.33301 -12 -12.333 -18 -21 -18
s-18.334 -0.333008 -29.001 -1c-4.66699 8 -10.167 18.333 -16.5 31s-10.5 23.667 -12.5 33c-6.66699 -6.66699 -8.33398 -17 -5.00098 -31s5 -25 5 -33c-34.667 18 -61.167 42.5 -79.5 73.5s-27.5 66.833 -27.5 107.5c4 9.33301 5.66699 18.833 5 28.5s-2 19.334 -4 29.001
l-6 28c-2 9 -2.66699 17.5 -2 25.5c5.33301 39.333 7.5 80.333 6.5 123s-0.833008 84.667 0.5 126c4.66699 6 6.83398 12.667 6.50098 20s-1.33301 15 -3 23s-3.16699 16.333 -4.5 25s-1 17.334 1 26.001l-7 6c0.666992 0.666992 4 2.33398 10 5.00098
s12.667 5.16699 20 7.5s12 2.16602 14 -0.500977c15.333 1.33301 27.166 1.16602 35.499 -0.500977s19.5 0.833008 33.5 7.5c7.33301 -7.33301 11.833 -15.833 13.5 -25.5s2 -19.834 1 -30.501s-2.66699 -21.5 -5 -32.5s-3.83301 -20.833 -4.5 -29.5
c7.33301 -6 11.333 -12.167 12 -18.5s0.333984 -13 -0.999023 -20s-2.5 -14.167 -3.5 -21.5s0.5 -14.666 4.5 -21.999c-10.667 -4 -20.834 -9.33301 -30.501 -16s-11.834 -18 -6.50098 -34l-6 -7c5.33301 -6 7 -11.667 5 -17s-5 -10.5 -9 -15.5s-7.66699 -10.167 -11 -15.5
s-4.33301 -11.333 -3 -18c-2 -16 -1.16699 -30.5 2.5 -43.5s8 -25.833 13 -38.5s9.33301 -25.5 13 -38.5s4.5 -27.167 2.5 -42.5c5.33301 -4 7.83301 -9.33301 7.5 -16s3.5 -12 11.5 -16c5.33301 5.33301 7.33301 12.166 6 20.499s-1.33301 16.166 0 23.499l-6 6l6 6
c-4.66699 2 -6.83398 5 -6.50098 9s0.166016 7.33301 -0.500977 10c2 5.33301 5.66699 7.66602 11 6.99902s10 -0.666992 14 0c6 -11.333 9.5 -22.666 10.5 -33.999s1.5 -22.666 1.5 -33.999s0.666992 -22.833 2 -34.5s5.33301 -23.167 12 -34.5l24 24
c6 -6 9.83301 -12.667 11.5 -20s2.83398 -15 3.50098 -23s1.83398 -15.833 3.50098 -23.5s5.83398 -14.167 12.501 -19.5h1z" />
    <glyph glyph-name="V" unicode="V" horiz-adv-x="378" 
d="M330 682c-1.33301 -34 -4.49902 -67 -9.49902 -99s-10.333 -63.833 -16 -95.5s-11 -63.5 -16 -95.5s-8.16699 -64.667 -9.5 -98c-16.667 -5.33301 -31.334 -8.5 -44.001 -9.5s-27.334 1.83301 -44.001 8.5c0.666992 65.333 5.33398 129.333 14.001 192s16 126 22 190
c15.333 7.33301 32 10 50 8s35.667 -2.33301 53 -1zM169.001 272c-4.66699 -4 -9 -8.83008 -13 -14.4971s-9.33301 -8.5 -16 -8.5l-7 8c-10 -6.66699 -18.667 -14.334 -26 -23.001s-18.333 -13.334 -33 -14.001c1.33301 5.33301 -0.166992 9.33301 -4.5 12
s-7.83301 5.66699 -10.5 9c3.33301 17.333 2.33301 36.5 -3 57.5s-9.33301 40.833 -12 59.5c-2 54.667 -8.5 107.667 -19.5 159s-19.167 104 -24.5 158l110 15l22 -15c5.33301 -44.667 9 -90.334 11 -137.001s8.33301 -91.667 19 -135c-2 -10 -2.33301 -20.167 -1 -30.5
s3 -21 5 -32s3.5 -22.333 4.5 -34s0.5 -23.5 -1.5 -35.5v1zM264.001 214.003l-16 -126.004c-5.33301 -42 -12 -83.333 -20 -124c-5.33301 6 -10.333 8.66699 -15 8s-9.5 -2.16699 -14.5 -4.5s-10 -3.83301 -15 -4.5s-9.83301 2 -14.5 8
c-4 -7.33301 -9.5 -10.166 -16.5 -8.49902s-13.5 1.83398 -19.5 0.500977l-8 8c-3.33301 -7.33301 -8 -10.166 -14 -8.49902s-11.333 1.83398 -16 0.500977l-36 192c6 8.66699 14.667 14.667 26 18l34.5 10c11.667 3.33301 22.167 8.16602 31.5 14.499s15.333 16.5 18 30.5
c2.66699 2.66699 7.5 6.33398 14.5 11.001s14.167 5.66699 21.5 3c2.66699 -8 7 -12.5 13 -13.5s12.333 -1.33301 19 -1s12.5 0 17.5 -1s8.16699 -5.5 9.5 -13.5v1z" />
    <glyph glyph-name="W" unicode="W" horiz-adv-x="594" 
d="M566 645c-6 -26 -10.833 -52.335 -14.5 -79.002s-7.83398 -53.334 -12.501 -80.001s-10.667 -52.667 -18 -78s-17.333 -49.666 -30 -72.999l-22 -135.5l-22 -136.5c4.66699 -8 5.33398 -18 2.00098 -30s-4 -23.667 -2 -35c-10 -5.33301 -19.833 -8 -29.5 -8
s-19.167 0.666992 -28.5 2s-18.833 2.33301 -28.5 3s-19.834 -0.666016 -30.501 -3.99902c-9.33301 32.667 -15.833 66.834 -19.5 102.501s-4.16699 72.167 -1.5 109.5c-14.667 5.33301 -27 13.833 -37 25.5s-15 25.167 -15 40.5
c-1.33301 12.667 -1.16602 25.667 0.500977 39s-1.16602 24.666 -8.49902 33.999c7.33301 4 8.66602 8.83301 3.99902 14.5s-8.33398 10.834 -11.001 15.501c-12.667 -64.667 -23.667 -130 -33 -196s-23 -130.333 -41 -193l7 -7c-2 -2 -4 -4.16699 -6 -6.5
s-2.66699 -5.16602 -2 -8.49902c-15.333 6.66699 -34 9.33398 -56 8.00098s-40 -1.33301 -54 0c-8 4 -14.5 12.167 -19.5 24.5s-3.16699 23.166 5.5 32.499c0.666992 32.667 -0.666016 64.667 -3.99902 96s-7 62.5 -11 93.5s-7 61.833 -9 92.5s-1.33301 61.667 2 93
c-4.66699 16.667 -8.66699 35 -12 55s-5.66602 40.667 -6.99902 62s-1.66602 42.833 -0.999023 64.5s2.33398 42.167 5.00098 61.5c9.33301 -6 18.5 -8.66699 27.5 -8s18.167 2 27.5 4s18.5 3.5 27.5 4.5s18.167 -1.5 27.5 -7.5l12 -162c4 -54 7.66699 -108 11 -162l13 21
c3.33301 14.667 5.5 29.834 6.5 45.501s2.33301 31.167 4 46.5s4.5 30.166 8.5 44.499s10.333 27.833 19 40.5c-0.666992 22 0.166016 43.333 2.49902 64s10.833 38.667 25.5 54l51 -6c16.667 -2 34 -2.33301 52 -1c4 -109.333 19.333 -212.333 46 -309
c5.33301 3.33301 8.16602 8.33301 8.49902 15s4.83301 9 13.5 7l7 -8l44 164.5c14.667 54.333 26.667 109.833 36 166.5c7.33301 -1.33301 15.166 -1.5 23.499 -0.5s16.5 1.5 24.5 1.5s15.5 -0.833008 22.5 -2.5s13.167 -5.83398 18.5 -12.501z" />
    <glyph glyph-name="X" unicode="X" horiz-adv-x="403" 
d="M354 -51c-10 -4.66699 -20.1699 -6.6543 -30.5029 -5.9873s-20.666 2.16699 -30.999 4.5l-31.5 7c-10.667 2.33301 -21.334 3.16602 -32.001 2.49902c-14.667 32.667 -24.834 68.667 -30.501 108s-8.16699 77 -7.5 113c-14 -14.667 -25.333 -32.667 -34 -54
s-13 -43.333 -13 -66c-8.66699 1.33301 -14.667 0.166016 -18 -3.50098s-5.83301 -8.16699 -7.5 -13.5l-5 -16.5c-1.66699 -5.66699 -5.5 -9.83398 -11.5 -12.501c2 -9.33301 1.33301 -19.333 -2 -30s-12.333 -13.334 -27 -8.00098c-10 -2.66699 -19 -2.16699 -27 1.5
l-23 10.5c-2 -2.66699 -4.16699 -5 -6.5 -7s-5.5 -2.66699 -9.5 -2c2.66699 7.33301 4.33398 15.166 5.00098 23.499s1.66699 16.5 3 24.5s3.66602 15.667 6.99902 23s9 13.666 17 18.999c6 21.333 12.5 41.833 19.5 61.5s13.333 39.334 19 59.001s10.334 39.667 14.001 60
s4.83398 42.166 3.50098 65.499c8 21.333 8.83301 40.333 2.5 57s-14.666 32.834 -24.999 48.501s-20 31.5 -29 47.5s-11.833 34.667 -8.5 56c-2.66699 10.667 -6.66699 21 -12 31s-10.166 20 -14.499 30s-7.16602 20.167 -8.49902 30.5s1 21.166 7 32.499
c17.333 -5.33301 36.5 -6.83301 57.5 -4.5s41.167 3.5 60.5 3.5l14 -69.5c4.66699 -23 9.66699 -46.167 15 -69.5l22 -21c12.667 20 21.834 41 27.501 63s13.834 43.333 24.501 64c-4.66699 9.33301 -5.83398 15.666 -3.50098 18.999s4.16602 7.33301 5.49902 12h12
c11.333 -6.66699 25.5 -8.83398 42.5 -6.50098s30.167 3.16602 39.5 2.49902c8.66699 -2.66699 13.5 -5.83398 14.5 -9.50098s0.5 -7.83398 -1.5 -12.501s-3.83301 -9.5 -5.5 -14.5s-0.833984 -10.167 2.49902 -15.5c-18.667 -20.667 -31.167 -43.5 -37.5 -68.5
s-14.166 -49.167 -23.499 -72.5l-18.5 -47c-6.33301 -16 -11.333 -32.333 -15 -49s-5.5 -33.834 -5.5 -51.501s3.66699 -35.5 11 -53.5c-3.33301 1.33301 -6 1.16602 -8 -0.500977s-4 -3.83398 -6 -6.50098c7.33301 -5.33301 16.166 -7.66602 26.499 -6.99902
s18.5 3.66699 24.5 9c8.66699 -22.667 15.667 -46.334 21 -71.001l15.5 -74.5l15.5 -74c5.33301 -24.333 12.333 -48.166 21 -71.499h-1zM221.997 245.013h-3h4h-1z" />
    <glyph glyph-name="Y" unicode="Y" 
d="M342 563c2.66699 -4.66699 3.33008 -8.16406 1.99707 -10.4971s-3.33301 -4 -6 -5s-5.66699 -1.83301 -9 -2.5s-6 -2 -8 -4c-8 -1.33301 -13.333 -4.16602 -16 -8.49902s-4.5 -9.16602 -5.5 -14.499s-2.16699 -10.666 -3.5 -15.999s-4.66602 -9.66602 -9.99902 -12.999
c-1.33301 -16 -4 -32 -8 -48s-7.5 -32 -10.5 -48s-4.66699 -31.5 -5 -46.5s3.16699 -29.5 10.5 -43.5c-7.33301 -12.667 -11.666 -26 -12.999 -40s-3.33301 -27.333 -6 -40c-5.33301 0.666992 -9.33301 -1.33301 -12 -6s-6 -8.33398 -10 -11.001
c-5.33301 -10.667 -6 -20.167 -2 -28.5s8.33301 -16 13 -23s7.5 -14 8.5 -21s-3.83301 -14.833 -14.5 -23.5c-1.33301 1.33301 -1.66602 0.5 -0.999023 -2.5s1.5 -6.33301 2.5 -10s1.66699 -7.33398 2 -11.001s-0.5 -5.83398 -2.5 -6.50098
c-7.33301 -8 -11.333 -15.833 -12 -23.5s0 -15 2 -22s4.83301 -13.833 8.5 -20.5s6.5 -13 8.5 -19c-2 -3.33301 -6 -5.33301 -12 -6s-12.667 -1 -20 -1c-10 0 -20 0.5 -30 1.5s-17 1.16699 -21 0.5c-3.33301 22.667 -4.83301 46.167 -4.5 70.5s0.833008 48.666 1.5 72.999
s1.16699 48.5 1.5 72.5s-1.16699 47.333 -4.5 70c-2 -2 -3.83301 -4.33301 -5.5 -7s-2.16699 -5.66699 -1.5 -9c-8.66699 0 -15 2.66699 -19 8s-7 11.833 -9 19.5s-3.66699 15.5 -5 23.5s-3.66602 15 -6.99902 21l-37 96.5c-12 31.667 -27 62.167 -45 91.5
c-4 6.66699 -6.5 13.834 -7.5 21.501s-1.83301 15.5 -2.5 23.5s-2.16699 15.667 -4.5 23s-6.5 13.666 -12.5 18.999c8.66699 5.33301 19.334 9.83301 32.001 13.5s25.5 6 38.5 7s25.167 -0.166992 36.5 -3.5s20.333 -9.33301 27 -18c6.66699 -18 11.5 -36.667 14.5 -56
s6.33301 -38.5 10 -57.5s8.66699 -37.5 15 -55.5s15.833 -34.333 28.5 -49c13.333 31.333 22 64.166 26 98.499s9.66699 68.166 17 101.499c-12.667 7.33301 -18.334 19.333 -17.001 36c12 3.33301 23.333 3.16602 34 -0.500977s20.5 -9 29.5 -16s17.667 -14.667 26 -23
s16.166 -15.5 23.499 -21.5h1z" />
    <glyph glyph-name="Z" unicode="Z" horiz-adv-x="344" 
d="M151 591c-9.33301 -3.33301 -15.501 -8.66895 -18.501 -16.002s-5.16699 -15 -6.5 -23s-3.33301 -15.667 -6 -23s-8.66699 -12.333 -18 -15c-5.33301 -3.33301 -9.83301 -3.66602 -13.5 -0.999023s-7.16699 5.66699 -10.5 9s-6.66602 5.5 -9.99902 6.5
s-7 -2.16699 -11 -9.5l-8 8c-10 -16 -24.333 -24 -43 -24l-6 109c29.333 0.666992 54.5 1.83398 75.5 3.50098s45.167 0.166992 72.5 -4.5l2 -21zM295.999 -27.0029c-2.66699 -4 -7.33496 -8.50488 -14.002 -13.5049s-14 -5.83301 -22 -2.5c-2 4 -3.83301 5.83301 -5.5 5.5
s-3.33398 -1.16602 -5.00098 -2.49902s-3.5 -2.66602 -5.5 -3.99902s-4.33301 -1.33301 -7 0c-8.66699 5.33301 -19.5 7.33301 -32.5 6s-25.5 -2.16602 -37.5 -2.49902s-22.167 2.16699 -30.5 7.5s-12.166 17 -11.499 35c-6.66699 -4.66699 -10.667 -10.5 -12 -17.5
s-2.66602 -13.333 -3.99902 -19s-4.16602 -9.83398 -8.49902 -12.501s-12.5 -2 -24.5 2c-9.33301 1.33301 -20.833 0.5 -34.5 -2.5l-39.5 -8.5c1.33301 33.333 4.83301 66 10.5 98s12.5 63.5 20.5 94.5l25 92.5c8.66699 30.667 16.334 62 23.001 94
c13.333 0 21.833 3 25.5 9s6 13.333 7 22s2.5 17.167 4.5 25.5s8 14.833 18 19.5c0.666992 15.333 1.66699 31.166 3 47.499s4 31.833 8 46.5s9.83301 28.167 17.5 40.5s18.167 22.166 31.5 29.499c-1.33301 10.667 -0.666016 20.834 2.00098 30.501
s5.83398 19.334 9.50098 29.001s6.66699 19.334 9 29.001s3.16602 19.834 2.49902 30.501c6 2.66699 13.5 5.5 22.5 8.5s17.5 4.5 25.5 4.5s14.5 -2.16699 19.5 -6.5s7.16699 -12.5 6.5 -24.5c3.33301 -9.33301 2.66602 -17.5 -2.00098 -24.5s-10.667 -11.833 -18 -14.5
c-6 -25.333 -10.667 -51.166 -14 -77.499s-7 -52.5 -11 -78.5s-9.5 -51.5 -16.5 -76.5s-17.5 -48.833 -31.5 -71.5c-2.66699 -40.667 -9.5 -79.667 -20.5 -117s-20.5 -75 -28.5 -113c0 -8 0.5 -17.167 1.5 -27.5s8.16699 -13.166 21.5 -8.49902
c20 7.33301 37.667 10.666 53 9.99902s34.333 0.333008 57 3c5.33301 -12.667 8.66602 -27.5 9.99902 -44.5s-0.666992 -31.833 -6 -44.5l8 -7v1z" />
    <glyph glyph-name="bracketleft" unicode="[" horiz-adv-x="201" 
d="M211 729c-8 10 -16.0029 15.1689 -24.0029 15.502s-16 -1.83398 -24 -6.50098s-16 -9.83398 -24 -15.501s-16 -9.5 -24 -11.5l-32 -32c10.667 -8 15.334 -16.667 14.001 -26s-3.66602 -19 -6.99902 -29s-5.33301 -19.833 -6 -29.5s5 -18.834 17 -27.501l-3 -574
c-6.66699 0.666992 -13.834 0.5 -21.501 -0.5s-15.167 -1.66699 -22.5 -2s-14.166 0.5 -20.499 2.5s-11.5 6.33301 -15.5 13l16 17l-34 31l19 656c-7.33301 2.66699 -12.166 6.5 -14.499 11.5s-3.33301 10.333 -3 16s0.833008 11.667 1.5 18s0.333984 12.5 -0.999023 18.5
c24.667 0 56.667 0.333008 96 1s76.666 1.33398 111.999 2.00098zM194.997 -85.998c-10 2 -20.5 2.33398 -31.5 1.00098s-21.667 -2 -32 -2s-19.833 2 -28.5 6s-15.667 12 -21 24l-12.5 -13c-4.33301 -4.66699 -5.16602 -11 -2.49902 -19l-64 -1l-1 49
c12.667 -14 26.167 -21.333 40.5 -22s28.333 1.83301 42 7.5s27 12.167 40 19.5s24.5 11.833 34.5 13.5s18.167 -1.83301 24.5 -10.5s10.166 -26.334 11.499 -53.001z" />
    <glyph glyph-name="backslash" unicode="\" horiz-adv-x="330" 
d="M113 630c-7.33301 -12.667 -9.83301 -23.501 -7.5 -32.501s3.5 -15.833 3.5 -20.5s-3.83301 -6.66699 -11.5 -6s-24.5 4.66699 -50.5 12c-10.667 18.667 -17.667 38 -21 58s-12 38.333 -26 55l82 15c6.66699 -5.33301 11 -11.5 13 -18.5s3.5 -14.167 4.5 -21.5
s2.16699 -14.666 3.5 -21.999s4.33301 -14 9 -20zM257 -44.001l-31.9961 0.00488281c-4.66699 17.333 -8.33398 35.166 -11.001 53.499s-5.83398 36.5 -9.50098 54.5s-8.33398 35.5 -14.001 52.5s-13.834 32.833 -24.501 47.5
c5.33301 39.333 3.66602 73.666 -5.00098 102.999s-19.167 57.666 -31.5 84.999s-24.166 55.166 -35.499 83.499s-17.333 61.166 -18 98.499l48 14l106 -336c1.33301 -14.667 4.66602 -29.334 9.99902 -44.001s10 -29.5 14 -44.5s5.83301 -29.833 5.5 -44.5
s-5.83301 -29.334 -16.5 -44.001c7.33301 -4 11.833 -9.16699 13.5 -15.5s2.33398 -13.166 2.00098 -20.499s-1 -14.666 -2 -21.999s-0.833008 -14.333 0.5 -21z" />
    <glyph glyph-name="bracketright" unicode="]" horiz-adv-x="205" 
d="M222 786c-1.33301 -74 -2.83203 -145.332 -4.49902 -213.999s-3.16699 -136.667 -4.5 -204s-2.5 -134.833 -3.5 -202.5s-1.5 -137.5 -1.5 -209.5v-48c-15.333 7.33301 -32.333 11.666 -51 12.999s-37.5 1.66602 -56.5 0.999023s-37.333 -1.66699 -55 -3
s-32.834 -1.33301 -45.501 0v50l112 1l16 719l16 16c-8 7.33301 -17.167 12 -27.5 14s-21.166 2.66699 -32.499 2s-22.833 -1.5 -34.5 -2.5s-22.834 -0.833008 -33.501 0.5c0 8.66699 -0.333008 17.334 -1 26.001s-5.66699 15.667 -15 21z" />
    <glyph glyph-name="asciicircum" unicode="^" horiz-adv-x="294" 
d="M206 658c-11.333 -5.33301 -22.333 -5.50098 -33 -0.500977s-20.834 11.667 -30.501 20s-18.667 16.833 -27 25.5s-15.833 13.834 -22.5 15.501s-12.5 -2 -17.5 -11s-8.83301 -26.5 -11.5 -52.5l-64 -2c15.333 12.667 26.833 27.5 34.5 44.5s15.834 32.5 24.501 46.5
s20 24 34 30s35.333 4.33301 64 -5c8.66699 -18.667 19 -36.167 31 -52.5s18 -35.833 18 -58.5z" />
    <glyph glyph-name="underscore" unicode="_" horiz-adv-x="690" 
d="M658 -93c-18 6 -42.6699 7.66797 -74.0029 5.00098s-63.833 -5.83398 -97.5 -9.50098s-65.667 -5.5 -96 -5.5s-53.833 5.66699 -70.5 17l18 14l-15 14.5c-4.66699 4.33301 -10.334 5.5 -17.001 3.5c-10.667 -5.33301 -16 -12.5 -16 -21.5s-0.666992 -17.833 -2 -26.5
c-6 1.33301 -12.833 1.66602 -20.5 0.999023s-15.334 -1 -23.001 -1s-14.667 1 -21 3s-11.5 6.66699 -15.5 14c-29.333 -11.333 -63.666 -16.666 -102.999 -15.999s-74.333 7.66699 -105 21l18 14c2.66699 8 2 14.333 -2 19s-8.66699 9.66699 -14 15
c5.33301 4 10.333 8.16699 15 12.5s10.334 4.83301 17.001 1.5c2 -10 7.83301 -17.5 17.5 -22.5s19.834 -7.66699 30.501 -8s20.834 2 30.501 7s15.5 12.5 17.5 22.5c10.667 -2.66699 23 -3.16699 37 -1.5s27.333 2.5 40 2.5s23.834 -2.16699 33.501 -6.5
s15.5 -13.833 17.5 -28.5c15.333 14 40.333 22.833 75 26.5s71.667 5 111 4s77.5 -2.66699 114.5 -5s65.5 -2.5 85.5 -0.5z" />
    <glyph glyph-name="grave" unicode="`" horiz-adv-x="96" 
d="M129 671c-10 -4 -18.499 -4.50098 -25.499 -1.50098s-13.5 7.5 -19.5 13.5s-11.667 12.333 -17 19s-11.333 12 -18 16l12.5 14c4.33301 4.66699 5.16602 10.667 2.49902 18l-64 30c0 8 3 13.167 9 15.5s13 3.5 21 3.5s16.667 -0.333008 26 -1
s17.333 -0.333984 24 0.999023c8 -8 11.667 -17.167 11 -27.5s-1.16699 -20.166 -1.5 -29.499s1.66699 -17.666 6 -24.999s15.5 -12 33.5 -14v-32z" />
    <glyph glyph-name="a" unicode="a" horiz-adv-x="359" 
d="M269 388c-6 -2.66699 -10.1689 -6.33301 -12.502 -11s-4.33301 -9.5 -6 -14.5s-3.66699 -9.83301 -6 -14.5s-6.83301 -8.33398 -13.5 -11.001c-12 -4.66699 -20.167 -5.16699 -24.5 -1.5s-7.33301 9.16699 -9 16.5s-2.66699 15.166 -3 23.499
s-2.16602 14.833 -5.49902 19.5c0.666992 7.33301 0 14.333 -2 21s-6.66699 12.667 -14 18c-18 -4 -31 -14.833 -39 -32.5s-14.667 -34.167 -20 -49.5l-7 8c-16.667 -4.66699 -31.167 -7.5 -43.5 -8.5s-26.833 1.83301 -43.5 8.5c1.33301 12.667 2.83301 25.334 4.5 38.001
s4.5 24.667 8.5 36s10 21.333 18 30s19 15.334 33 20.001c18.667 2 35 4.33301 49 7s29.667 5.33398 47 8.00098l13.5 -3c9 -2 16.833 -6 23.5 -12c2 2 4.66699 3.83301 8 5.5s6.33301 3.33398 9 5.00098s4.66699 4 6 7s0.666016 6.83301 -2.00098 11.5
c4 1.33301 7 1.16602 9 -0.500977s4.33301 -3.83398 7 -6.50098l-7 -7c12.667 -16.667 22.334 -34 29.001 -52s4.33398 -37.667 -6.99902 -59zM304.998 -7.99902c-8.66699 10.667 -19.167 15.667 -31.5 15s-24.333 -2.16699 -36 -4.5s-22.167 -2.66602 -31.5 -0.999023
s-15.333 10.834 -18 27.501c-18 -14.667 -38.833 -25.667 -62.5 -33s-46.834 -6.66602 -69.501 2.00098c-16.667 18.667 -31.167 38.334 -43.5 59.001s-15.166 45.667 -8.49902 75c0.666992 28 6.33398 54.667 17.001 80s29.667 45 57 59c13.333 8.66699 29 15 47 19
s34 5 48 3c7.33301 7.33301 15.666 10.166 24.999 8.49902s18.333 -1.83398 27 -0.500977l6 -8c12.667 16.667 23.834 35.167 33.501 55.5s23.5 36.166 41.5 47.499c-1.33301 -42 -1.33301 -87.833 0 -137.5s-1.33398 -96.834 -8.00098 -141.501
c5.33301 -2.66699 7.83301 -6 7.5 -10s-0.5 -7.66699 -0.5 -11c-2.66699 -14 -2.16699 -31.167 1.5 -51.5s3.16699 -37.833 -1.5 -52.5zM179.998 250.001c-5.33301 -6.66699 -10.001 -11 -14.001 -13s-9 -2.66699 -15 -2c-3.33301 -19.333 -7.16602 -38.666 -11.499 -57.999
s-5.5 -39.333 -3.5 -60c4 -7.33301 8 -15.333 12 -24s12.333 -10.334 25 -5.00098l7 161v1z" />
    <glyph glyph-name="b" unicode="b" horiz-adv-x="371" 
d="M317 106c-4.66699 -10 -8.49902 -21.167 -11.499 -33.5s-6.33301 -24.166 -10 -35.499s-8.83398 -21.5 -15.501 -30.5s-16.334 -15.167 -29.001 -18.5c-11.333 -5.33301 -23.333 -8.66602 -36 -9.99902s-25.334 -3 -38.001 -5c3.33301 14 -0.833984 24.5 -12.501 31.5
s-23.167 13.167 -34.5 18.5s-18.666 11 -21.999 17s5.33398 15.333 26.001 28c10.667 2.66699 19.834 2 27.501 -2l23.5 -12c14 23.333 22.833 48.666 26.5 75.999s4.5 55.166 2.5 83.499s-6 56.5 -12 84.5l-17 79l-22 15c-7.33301 -4 -11.666 -9.16699 -12.999 -15.5
s-2 -13 -2 -20v-20.5c0 -6.66699 -2.33301 -12.667 -7 -18h-15c-5.33301 14.667 -8 32 -8 52s2.66699 37.333 8 52c11.333 4 22 9.16699 32 15.5s20 12.166 30 17.499s20.833 8.66602 32.5 9.99902s24.5 -1 38.5 -7c24 -21.333 40.667 -46.166 50 -74.499
s14.666 -58.333 15.999 -90s0.5 -63.667 -2.5 -96s-4.83301 -63.166 -5.5 -92.499v1zM119.001 592c5.33301 -26 3.50098 -48.8262 -5.49902 -68.4932s-19.333 -38.667 -31 -57s-22 -37.333 -31 -57s-11.167 -42.5 -6.5 -68.5c13.333 2 23.666 1.16699 30.999 -2.5
s12.666 -9.33398 15.999 -17.001s5.83301 -16.167 7.5 -25.5s3.5 -18.666 5.5 -27.999l-22 -30c-2.66699 5.33301 -6 7.83301 -10 7.5s-8.33301 -0.5 -13 -0.5l-15 -13c16.667 0 27.667 -2.83301 33 -8.5s7.83301 -12.834 7.5 -21.501s-2.16602 -18.334 -5.49902 -29.001
s-5 -21 -5 -31c-3.33301 1.33301 -6 1.16602 -8 -0.500977s-4.33301 -3.16699 -7 -4.5c-4 -10 -4.5 -16.833 -1.5 -20.5s7.33301 -6.16699 13 -7.5s11.667 -2.33301 18 -3s11.5 -2.66699 15.5 -6c-3.33301 -6.66699 -5.5 -14.334 -6.5 -23.001s-2.33301 -16.834 -4 -24.501
s-4.5 -14.5 -8.5 -20.5s-10.333 -10.333 -19 -13c8.66699 -14 10.5 -28.333 5.5 -43s-11.5 -27.334 -19.5 -38.001c-15.333 -4 -27.5 -2.5 -36.5 4.5s-14.167 17.167 -15.5 30.5c0 4.66699 0.166992 9 0.5 13s2.83301 7.33301 7.5 10l-8 7
c6 53.333 8.66699 105.166 8 155.499s-2 100.333 -4 150s-3.33301 99.5 -4 149.5s2 101.333 8 154c11.333 -1.33301 22.333 -1.33301 33 0s20.667 2 30 2s18 -1.33301 26 -4s15 -9 21 -19v1z" />
    <glyph glyph-name="c" unicode="c" horiz-adv-x="353" 
d="M154 448c-12.667 -0.666992 -20.6699 -4.66797 -24.0029 -12.001s-5 -16 -5 -26s0.166992 -20.167 0.5 -30.5s-2.16699 -19.166 -7.5 -26.499c4.66699 -4 6.83398 -8 6.50098 -12s-1.33301 -8 -3 -12s-3.16699 -8.33301 -4.5 -13s-0.666016 -9.66699 2.00098 -15
c5.33301 -22 7.83301 -44 7.5 -66s-2.16602 -43.667 -5.49902 -65s-7.5 -42.5 -12.5 -63.5s-9.5 -41.833 -13.5 -62.5v-8c-14 2.66699 -24.833 8.16699 -32.5 16.5s-13.834 18 -18.501 29s-9.16699 22.167 -13.5 33.5s-9.83301 21.666 -16.5 30.999
c-3.33301 16 -5.33301 31.333 -6 46s-1 29 -1 43s-0.166992 28.167 -0.5 42.5s-2.16602 29.5 -5.49902 45.5c-2 37.333 4 72.833 18 106.5s36.667 59.167 68 76.5c12 6.66699 23.833 10 35.5 10s21 -2.66699 28 -8s11.333 -13.166 13 -23.499s-1.5 -22.5 -9.5 -36.5z
M300.997 322.999c-3.33301 -7.33301 -8.66992 -11.6699 -16.0029 -13.0029s-15.166 -1.83301 -23.499 -1.5s-17 0.333008 -26 0s-16.5 -2.83301 -22.5 -7.5c-2.66699 14.667 -6.16699 29 -10.5 43l-12.5 42c-4 14 -7 28.5 -9 43.5s-1.66699 31.167 1 48.5
c6.66699 6.66699 12.834 9.33398 18.501 8.00098s11 -3.83301 16 -7.5l15.5 -11c5.33301 -3.66699 11.333 -5.16699 18 -4.5c19.333 -19.333 31.833 -41.166 37.5 -65.499s9.83398 -49.166 12.501 -74.499h1zM263.993 168.995
c-1.33301 -16 -1.33008 -33.1689 0.00292969 -51.502s1.33301 -35.666 0 -51.999s-5.5 -31.166 -12.5 -44.499s-19.5 -23 -37.5 -29c-9.33301 1.33301 -22.5 1.33301 -39.5 0s-31.167 1.33398 -42.5 8.00098c-0.666992 18 0.166016 35.667 2.49902 53s6.83301 34 13.5 50
c10.667 3.33301 19 2 25 -4s12 -12.333 18 -19c13.333 6.66699 20.5 16.667 21.5 30s1.16699 26.666 0.5 39.999s0.666016 24.833 3.99902 34.5s14.666 14.167 33.999 13.5l14 -29h-1z" />
    <glyph glyph-name="d" unicode="d" horiz-adv-x="350" 
d="M301 634c-6 -36.667 -8.66309 -72.9951 -7.99609 -108.995s2 -72.167 4 -108.5s3.16699 -72.5 3.5 -108.5s-2.5 -72.333 -8.5 -109c-4.66699 -2.66699 -8.33398 -3.33398 -11.001 -2.00098s-5 3.33301 -7 6s-3.83301 5.5 -5.5 8.5s-3.83398 5.5 -6.50098 7.5
c-12.667 2.66699 -23.167 1.16699 -31.5 -4.5s-17.5 -9.83398 -27.5 -12.501c10.667 -4.66699 22.334 -7.66699 35.001 -9s21.667 -7 27 -17c-6.66699 -10.667 -7.5 -20.334 -2.5 -29.001l12.5 -22c-0.666992 -17.333 -1.83398 -33.333 -3.50098 -48s-3.16699 -29 -4.5 -43
s-2.16602 -28.167 -2.49902 -42.5s0.833984 -29.5 3.50098 -45.5c-12 -4 -22.333 -4.66699 -31 -2s-16.334 7.16699 -23.001 13.5s-12.5 13.666 -17.5 21.999s-9.5 16.166 -13.5 23.499c-0.666992 4 -1 8 -1 12s-2.33301 7.33301 -7 10l-6 -8l-9 7
c-4.66699 -6.66699 -7.66699 -14.334 -9 -23.001s-7.33301 -13.667 -18 -15l-7 6c-9.33301 -1.33301 -21.333 -1.16602 -36 0.500977s-27.334 5.16699 -38.001 10.5c-18.667 24.667 -33.167 52.834 -43.5 84.501s-11.5 64.5 -3.5 98.5l-5 6c0 25.333 0.166992 51 0.5 77
s2.5 51.333 6.5 76s11.167 47.667 21.5 69s25.5 39.666 45.5 54.999c6 4.66699 12 7.16699 18 7.5s12 -0.333984 18 -2.00098s12 -3.66699 18 -6s12 -3.5 18 -3.5l24 -22c6 6 9.83301 13.333 11.5 22s2.16699 17.5 1.5 26.5s-1.5 17.667 -2.5 26s-0.833008 15.5 0.5 21.5
c5.33301 3.33301 7.66602 6.33301 6.99902 9s-2.16699 5.33398 -4.5 8.00098s-4.5 5.5 -6.5 8.5s-1.66699 6.83301 1 11.5l10 73c41.333 3.33301 78.666 -2 111.999 -16zM184.004 194.005c-6 12 -9.33203 24.5029 -9.99902 37.5029s-0.166992 25.833 1.5 38.5
s3 25.167 4 37.5s-0.166992 23.833 -3.5 34.5c5.33301 6.66699 7.5 13.167 6.5 19.5s-2.66699 12.666 -5 18.999s-4.33301 12.833 -6 19.5s-1.16699 14 1.5 22l-7 -14c-4 -0.666992 -8.33301 -1.16699 -13 -1.5s-8.33398 1.83398 -11.001 6.50098l2 -21
c-2 -2.66699 -4.16699 -5 -6.5 -7s-4.83301 -2.66699 -7.5 -2c4 -19.333 3.83301 -37 -0.5 -53s-7.5 -32.333 -9.5 -49c3.33301 -16 4.66602 -34.333 3.99902 -55s-0.666992 -41.334 0 -62.001s3.33398 -40 8.00098 -58s14 -32.667 28 -44l-10 43
c2 4.66699 5.16699 7.16699 9.5 7.5s8.5 0.833008 12.5 1.5c4 13.333 5.5 27.166 4.5 41.499s1.5 27.166 7.5 38.499z" />
    <glyph glyph-name="e" unicode="e" horiz-adv-x="350" 
d="M302 323c-4 -8 -6.16309 -15.1729 -6.49609 -21.5059s-0.5 -12.666 -0.5 -18.999s-0.333008 -12.666 -1 -18.999s-3 -13.5 -7 -21.5c-8.66699 2.66699 -15.167 3.33398 -19.5 2.00098s-8 -2.83301 -11 -4.5s-6.33301 -2.83398 -10 -3.50098s-9.16699 1 -16.5 5l-43 70
c0.666992 -24.667 4.16699 -42.5 10.5 -53.5s9.83301 -18.833 10.5 -23.5c-4 -0.666992 -12.167 -1.33398 -24.5 -2.00098s-19.5 0 -21.5 2l-7 -8l-15 22c-9.33301 -10 -14.166 -20.667 -14.499 -32s0.666992 -23 3 -35s4.16602 -23.833 5.49902 -35.5
s-1.33398 -23.167 -8.00098 -34.5c5.33301 -8.66699 13 -15.5 23 -20.5s19.333 -3.83301 28 3.5c4.66699 8 9.33398 18.167 14.001 30.5s10.167 22.833 16.5 31.5s14.166 13.834 23.499 15.501s20.666 -3.83301 33.999 -16.5c13.333 -6 20.5 -12.167 21.5 -18.5
s-0.5 -12.833 -4.5 -19.5s-8.5 -13.667 -13.5 -21s-6.16699 -15 -3.5 -23c-8 -5.33301 -14 -10.666 -18 -15.999s-7.5 -10.666 -10.5 -15.999s-6.66699 -10.333 -11 -15s-10.833 -8.66699 -19.5 -12c-12.667 -11.333 -22.834 -16.5 -30.501 -15.5
s-14.834 4.16699 -21.501 9.5l-21.5 18c-7.66699 6.66699 -17.5 10 -29.5 10c-4 10 -9.5 18 -16.5 24s-14.167 11.833 -21.5 17.5s-14.333 12 -21 19s-11.334 16.5 -14.001 28.5c-1.33301 4.66699 -1.33301 10 0 16s-1.33398 10.333 -8.00098 13l8 7
c-7.33301 0 -11.666 2.16699 -12.999 6.5s-2 9.33301 -2 15v17c0 5.66699 -2 9.83398 -6 12.501c-1.33301 7.33301 -1.33301 19 0 35s-1.66699 29 -9 39c4.66699 18.667 9 40.334 13 65.001s9 47.5 15 68.5s13.833 38 23.5 51s21.834 17.167 36.501 12.5
c13.333 12 27.5 19.833 42.5 23.5s30 4.5 45 2.5s29.5 -6 43.5 -12s26.667 -12.333 38 -19c26 -48 41 -99.667 45 -155zM170.004 439.994l-7.00098 -7.99609c-4 -0.666992 -7.16699 0 -9.5 2s-4.5 4 -6.5 6v-23c-6.66699 -6.66699 -10.834 -14.334 -12.501 -23.001
s-2.5 -17.834 -2.5 -27.501s0.333008 -19.5 1 -29.5s0.333984 -19.667 -0.999023 -29l30 -1c11.333 6 18 14.167 20 24.5s2 21.666 0 33.999s-4.66699 25.166 -8 38.499s-4.66602 25.333 -3.99902 36z" />
    <glyph glyph-name="f" unicode="f" horiz-adv-x="286" 
d="M228 637c4 -12.667 6.83301 -27.998 8.5 -45.998s-3.16602 -32.333 -14.499 -43c-4.66699 6.66699 -10.834 8.83398 -18.501 6.50098s-14.167 -4.16602 -19.5 -5.49902c-12.667 -11.333 -18.167 -26.833 -16.5 -46.5s4.83398 -36.167 9.50098 -49.5
c4.66699 -2.66699 9 -3.16699 13 -1.5s7.66699 3.5 11 5.5s6.66602 3.16699 9.99902 3.5s6.66602 -2.16699 9.99902 -7.5c6 -8.66699 8.83301 -22.334 8.5 -41.001s-3.16602 -34.334 -8.49902 -47.001c-8 -4 -14 -4.83301 -18 -2.5s-6.83301 5.83301 -8.5 10.5
s-3 9.66699 -4 15s-2.83301 9.66602 -5.5 12.999c-10.667 -32 -17.334 -65.833 -20.001 -101.5s-3.83398 -71.667 -3.50098 -108s0.5 -72.833 0.5 -109.5s-2.66699 -72 -8 -106c-13.333 -1.33301 -27.5 -0.333008 -42.5 3s-30.167 7 -45.5 11l-6 -8
c-6.66699 62 -9.33398 126.5 -8.00098 193.5s1.33301 130.167 0 189.5l-14 37c-5.33301 -6.66699 -9 -14.334 -11 -23.001s-8 -13.334 -18 -14.001c-7.33301 11.333 -10.166 24.333 -8.49902 39s1.83398 28.667 0.500977 42c7.33301 2 13.833 5.33301 19.5 10
s11.5 1.33398 17.5 -9.99902c6.66699 16 10.834 33 12.501 51s4 35.833 7 53.5s8.16699 34 15.5 49s20 27.167 38 36.5c8 -2 16.167 -1.33301 24.5 2s14.5 2.66602 18.5 -2.00098c6 6 11.833 8.83301 17.5 8.5s11.5 -1.66602 17.5 -3.99902s12.167 -4.33301 18.5 -6
s13.5 -1.16699 21.5 1.5z" />
    <glyph glyph-name="g" unicode="g" horiz-adv-x="401" 
d="M360 496l-23 0.00683594c1.33301 2.66699 1.16602 5.16699 -0.500977 7.5s-3.83398 4.83301 -6.50098 7.5c-13.333 -12 -18.5 -23.667 -15.5 -35s5.5 -24.333 7.5 -39c4.66699 -29.333 3.5 -56.833 -3.5 -82.5s-17.833 -49.5 -32.5 -71.5
c-14.667 -12.667 -32.334 -21.334 -53.001 -26.001s-39.667 -5.66699 -57 -3c1.33301 14 5.5 27 12.5 39l20.5 36c6.66699 12 11.834 24.333 15.501 37s2.5 26.667 -3.5 42c-2.66699 -4.66699 -6.16699 -7.16699 -10.5 -7.5s-8.16602 -0.5 -11.499 -0.5
c0 9.33301 -1.5 16.666 -4.5 21.999s-6.5 10.5 -10.5 15.5s-7.66699 10.167 -11 15.5s-4.66602 12.333 -3.99902 21c-4.66699 -2 -7 -5.16699 -7 -9.5s-0.333008 -8.83301 -1 -13.5l-14 15c-12 -18.667 -18.833 -38.167 -20.5 -58.5s-1.16699 -41.166 1.5 -62.499
s5.83398 -42.833 9.50098 -64.5s4.5 -43.167 2.5 -64.5c-5.33301 2 -9.5 0.833008 -12.5 -3.5s-6.16699 -7.83301 -9.5 -10.5c0 -18 4.5 -29 13.5 -33s19.5 -6 31.5 -6s23.667 -0.333008 35 -1s19.333 -6.66699 24 -18c-3.33301 -8 -5.33301 -16.833 -6 -26.5s-2 -19 -4 -28
s-5.5 -16.833 -10.5 -23.5s-13.5 -10.334 -25.5 -11.001l-30 30c-4.66699 -2.66699 -6.83398 -6 -6.50098 -10s0.833008 -8 1.5 -12c-4 -1.33301 -7 -1 -9 1l-6 6c-0.666992 -8 -4 -16.167 -10 -24.5s-11 -16.666 -15 -24.999s-5.5 -16.333 -4.5 -24
s7.83301 -14.834 20.5 -21.501h81c1.33301 -4.66699 1.33301 -10.334 0 -17.001s1.33398 -11.334 8.00098 -14.001c9.33301 3.33301 14 9.33301 14 18s-0.166992 17.334 -0.5 26.001s1 15.667 4 21s11.833 6 26.5 2c6.66699 7.33301 9.33398 16.5 8.00098 27.5
s-1.33301 21.5 0 31.5c-8 8.66699 -12.667 17.834 -14 27.501s-1 19.5 1 29.5s4.5 20.167 7.5 30.5s4.5 20.166 4.5 29.499h22c12.667 -12 26.334 -22.833 41.001 -32.5s25.667 -23.167 33 -40.5c8.66699 -21.333 10.334 -42.833 5.00098 -64.5s-12 -41.834 -20 -60.501
c-10.667 -12 -22 -22.5 -34 -31.5s-25 -15.833 -39 -20.5c-4 2 -8.16699 2.33301 -12.5 1s-8.83301 -3 -13.5 -5s-9.66699 -3.66699 -15 -5s-11 -1 -17 1c0.666992 4 0 7.16699 -2 9.5s-4 4.5 -6 6.5c-6 -2.66699 -9.83301 -7.16699 -11.5 -13.5
s-3.33398 -12.333 -5.00098 -18s-4.33398 -10.167 -8.00098 -13.5s-10.5 -3 -20.5 1c-6.66699 1.33301 -17.167 1.16602 -31.5 -0.500977s-25.5 0.833008 -33.5 7.5c-22.667 6.66699 -42.667 18.167 -60 34.5s-27 36.5 -29 60.5c2 15.333 6.66699 27.166 14 35.499
s17 16.5 29 24.5c4 -1.33301 7.16699 -1 9.5 1s4.5 3.66699 6.5 5c-0.666992 9.33301 -4.16699 18.833 -10.5 28.5s-12.333 19.667 -18 30s-9.33398 21 -11.001 32s1.5 22.833 9.5 35.5c19.333 10.667 30.333 25 33 43s-1 35.333 -11 52
c-9.33301 6.66699 -15.666 15.667 -18.999 27s-4.83301 23.5 -4.5 36.5s1.66602 26.167 3.99902 39.5s4.16602 25.333 5.49902 36c7.33301 19.333 19.833 37.166 37.5 53.499s36.834 25.833 57.501 28.5l8 -7c6 -0.666992 13.667 -0.166992 23 1.5s18.833 2.5 28.5 2.5
s18.5 -1.66699 26.5 -5s13.667 -10.666 17 -21.999c1.33301 -7.33301 1.16602 -15.333 -0.500977 -24s0.833008 -15.334 7.5 -20.001c7.33301 4.66699 11.666 10.334 12.999 17.001s2 13.834 2 21.501v22.5c0 7.33301 2.33301 13.666 7 18.999
c9.33301 19.333 22.333 33.666 39 42.999s35.667 17.333 57 24c6 -7.33301 8.83301 -14.5 8.5 -21.5s-1.66602 -14 -3.99902 -21s-4.33301 -14.167 -6 -21.5s-1.16699 -15.333 1.5 -24z" />
    <glyph glyph-name="h" unicode="h" horiz-adv-x="356" 
d="M308 423c2 -79.333 1.16504 -152.833 -2.50195 -220.5s-10.167 -138.5 -19.5 -212.5c-7.33301 -6 -14.833 -8.66699 -22.5 -8s-15.167 2.16699 -22.5 4.5s-14.666 3.83301 -21.999 4.5s-14.333 -2 -21 -8c-6.66699 10 -11 22.167 -13 36.5s-3 29.333 -3 45
s0.333008 31.167 1 46.5s0.333984 29 -0.999023 41c2 59.333 7 117.5 15 174.5s22.333 111.167 43 162.5c34 -10.667 56.667 -32.667 68 -66zM212.998 489c-4.66699 -17.333 -8.33203 -35.1689 -10.999 -53.502s-9.33398 -34.5 -20.001 -48.5
c-8 3.33301 -16 7.83301 -24 13.5s-17 8.16699 -27 7.5c-10.667 -50.667 -16.667 -103.834 -18 -159.501s-4.66602 -107.5 -9.99902 -155.5c-12 1.33301 -20 -1.5 -24 -8.5s-8.66699 -14.167 -14 -21.5c-3.33301 -7.33301 -4 -12.666 -2 -15.999
s4.83301 -6.16602 8.5 -8.49902s7.33398 -4.83301 11.001 -7.5s5.5 -6.66699 5.5 -12c-3.33301 -11.333 -8.5 -18 -15.5 -20s-14.667 -2 -23 0s-16.833 4.66699 -25.5 8s-16.667 5 -24 5v286c2 2.66699 4 5 6 7s2.66699 4.66699 2 8l-8 6c5.33301 59.333 9 119 11 179
s7.66699 118.667 17 176c9.33301 -2 19.5 -2.33301 30.5 -1s21.667 2 32 2s20 -1.5 29 -4.5s15.5 -9.5 19.5 -19.5c-0.666992 -17.333 -2.33398 -34.5 -5.00098 -51.5s-5 -34.167 -7 -51.5s-3 -34.5 -3 -51.5s2.33301 -34.167 7 -51.5
c9.33301 11.333 21.166 21.333 35.499 30s29.5 13.334 45.5 14.001h1z" />
    <glyph glyph-name="i" unicode="i" horiz-adv-x="178" 
d="M118 554c-20.667 -6.66699 -38.502 -9.33105 -53.502 -7.99805s-33.833 1.33301 -56.5 0c1.33301 9.33301 1.5 19.166 0.5 29.499s-1.66699 20.666 -2 30.999s0.333984 19.833 2.00098 28.5s5.83398 15.667 12.501 21c14.667 4 29.667 2.83301 45 -3.5
s32.333 -7.5 51 -3.5c4.66699 -7.33301 7.16699 -15 7.5 -23s0 -16 -1 -24s-2.33301 -16 -4 -24s-2.16699 -16 -1.5 -24zM123.998 128.003c-6 -11.333 -8.50293 -24.4961 -7.50293 -39.4961s1.66699 -29.833 2 -44.5s-1.16699 -27.834 -4.5 -39.501s-12 -19.834 -26 -24.501
c-14.667 1.33301 -29.834 1.16602 -45.501 -0.500977s-29.834 0.833008 -42.501 7.5c5.33301 6.66699 8 15.334 8 26.001s-2.66699 19.334 -8 26.001c6.66699 72.667 9.33398 143.167 8.00098 211.5s-1.66602 137.166 -0.999023 206.499
c8.66699 1.33301 19 3.16602 31 5.49902s23.833 3.66602 35.5 3.99902s22.334 -1.16699 32.001 -4.5s15.834 -10 18.501 -20c-6 -10 -8.66699 -20.167 -8 -30.5s2.16699 -20.666 4.5 -30.999s3.83301 -20.833 4.5 -31.5s-2 -21.334 -8 -32.001
c6 -8.66699 8.66699 -17.5 8 -26.5s-2.16699 -18 -4.5 -27s-3.83301 -18 -4.5 -27s2 -17.833 8 -26.5c2.66699 -6 3.33398 -11.333 2.00098 -16s-3 -9 -5 -13s-3.16699 -8 -3.5 -12s1.5 -8 5.5 -12c-4 -2 -6.16699 -4.16699 -6.5 -6.5s0.166992 -4.66602 1.5 -6.99902
l4.5 -7.5c1.66699 -2.66699 2.16699 -5.33398 1.5 -8.00098z" />
    <glyph glyph-name="j" unicode="j" horiz-adv-x="198" 
d="M162 525c-8.66699 6 -17.165 8.66797 -25.498 8.00098s-16.833 -2 -25.5 -4s-17.334 -3.33301 -26.001 -4s-17.334 2 -26.001 8c-2 7.33301 -4 16 -6 26s-3 20 -3 30s1.16699 19.333 3.5 28s6.5 15.334 12.5 20.001h96c5.33301 -16.667 8 -35.334 8 -56.001
s-3 -39.334 -9 -56.001h1zM170.002 423.001c-6.66699 -61.333 -9.33008 -124.169 -7.99707 -188.502s1.66602 -128.166 0.999023 -191.499c-1.33301 -6.66699 -1.33301 -13.834 0 -21.501s-1.66699 -13.5 -9 -17.5c6 -4 8.83301 -8.16699 8.5 -12.5
s-1.33301 -8.66602 -3 -12.999s-2.83398 -8.66602 -3.50098 -12.999s1.33301 -8.5 6 -12.5c-5.33301 -21.333 -12.5 -42.666 -21.5 -63.999s-21.167 -39.333 -36.5 -54l-95 -14c-7.33301 12 -10 25.833 -8 41.5s2.33301 31.167 1 46.5
c15.333 1.33301 25.666 6.16602 30.999 14.499s8.83301 18 10.5 29s2.5 22.667 2.5 35s2.33301 22.833 7 31.5c-0.666992 32.667 -0.833984 66.5 -0.500977 101.5s0.5 70.333 0.5 106s-0.5 71.334 -1.5 107.001s-3.16699 70.5 -6.5 104.5
c6.66699 4.66699 13.334 7.5 20.001 8.5s13.667 1.33301 21 1s15 -0.5 23 -0.5s16 1.66699 24 5c9.33301 1.33301 19.333 0.166016 30 -3.50098s13 -12.167 7 -25.5z" />
    <glyph glyph-name="k" unicode="k" horiz-adv-x="334" 
d="M148 587c-12.667 -22.667 -19.499 -47.333 -20.499 -74s-2.16699 -52.5 -3.5 -77.5s-5.83301 -48.167 -13.5 -69.5s-24.5 -38.333 -50.5 -51c-2 -4.66699 -4.33301 -10.667 -7 -18s-6 -13.5 -10 -18.5s-8.83301 -8 -14.5 -9s-12.5 1.83301 -20.5 8.5
c-1.33301 58.667 -0.333008 116.334 3 173.001s9.66602 111.667 18.999 165c0.666992 12 0.5 27.5 -0.5 46.5s1.83301 35.833 8.5 50.5c5.33301 4.66699 12.5 7 21.5 7s16.5 -2.33301 22.5 -7c6.66699 -1.33301 17.167 -1.33301 31.5 0s25.833 -1.33398 34.5 -8.00098
c-3.33301 -11.333 -1.83301 -22.5 4.5 -33.5l17.5 -31c5.33301 -9.66699 7.5 -19 6.5 -28s-10.5 -17.167 -28.5 -24.5v-1zM287.001 472.001c2 -11.333 0.667969 -20.999 -3.99902 -28.999s-10.5 -15.5 -17.5 -22.5l-20 -20.5
c-6.33301 -6.66699 -9.83301 -14.334 -10.5 -23.001c-8.66699 -12.667 -13.334 -25.334 -14.001 -38.001s-0.666992 -25.334 0 -38.001s0 -25 -2 -37s-8.66699 -23.333 -20 -34c20 -18.667 31.167 -41 33.5 -67s3.16602 -52.667 2.49902 -80
c-15.333 -9.33301 -23.833 -21 -25.5 -35s2.5 -26.667 12.5 -38c-4.66699 0 -10 -1.66699 -16 -5s-12.333 -5.83301 -19 -7.5s-13 -1.5 -19 0.5s-11 8 -15 18c2 25.333 1.33301 49.666 -2 72.999s-9.33301 45.333 -18 66c-7.33301 -14 -11.666 -29.333 -12.999 -46
s-2 -33.667 -2 -51s-0.166992 -34.666 -0.5 -51.999s-2.83301 -33.666 -7.5 -48.999l-110 15l23 242c11.333 2 20.666 6.66699 27.999 14l21 22c6.66699 7.33301 14 13.5 22 18.5s18.333 6.5 31 4.5l15 15c-11.333 11.333 -16.666 22.333 -15.999 33
s3.83398 21.167 9.50098 31.5s12.167 20.5 19.5 30.5s12.333 20 15 30c3.33301 12.667 7.33301 26.334 12 41.001s13.334 25.667 26.001 33c13.333 -2.66699 26.166 -6.5 38.499 -11.5s26.166 -6.16699 41.499 -3.5h1z" />
    <glyph glyph-name="l" unicode="l" horiz-adv-x="176" 
d="M128 2c-2 -10.667 -7.83203 -17.9971 -17.499 -21.9971s-19.167 -6.66699 -28.5 -8l-6 8c-2.66699 -6.66699 -7 -9.33398 -13 -8.00098s-11.667 1.33301 -17 0l-8 8c-2 -4.66699 -5.16699 -7.16699 -9.5 -7.5s-8.5 -0.833008 -12.5 -1.5c-4 37.333 -6.16699 76 -6.5 116
s-0.5 79.833 -0.5 119.5s-0.166992 79 -0.5 118s-2.5 76.167 -6.5 111.5c3.33301 5.33301 4.83301 11.333 4.5 18s-1.16602 13.5 -2.49902 20.5s-2 14 -2 21s2.33301 13.5 7 19.5c-5.33301 8.66699 -8 19.667 -8 33s3 24.666 9 33.999c-2 8 -2.16699 19.667 -0.5 35
s-0.833008 27.666 -7.5 36.999c0 14.667 3.66699 23.667 11 27s16.166 4.83301 26.499 4.5s20.833 -0.833008 31.5 -1.5s19 2 25 8c9.33301 -2.66699 15.666 -6 18.999 -10s7.33301 -10.667 12 -20c-11.333 -215.333 -11.333 -435.333 0 -660h1z" />
    <glyph glyph-name="m" unicode="m" horiz-adv-x="495" 
d="M449 309c-10.667 3.33301 -19.6641 2.33008 -26.9971 -3.00293s-15.333 -9.33301 -24 -12c-1.33301 -2.66699 -1 -5.16699 1 -7.5s3.66699 -4.83301 5 -7.5c2.66699 4.66699 6 7 10 7h13l14 -15v-249c-4.66699 -4 -9.5 -5.16699 -14.5 -3.5s-10 3.66699 -15 6
s-10.333 4.5 -16 6.5s-11.834 1.66699 -18.501 -1c-2 -9.33301 -6.83301 -15.666 -14.5 -18.999s-15.834 -4.66602 -24.501 -3.99902c-6.66699 34.667 -9.33398 71 -8.00098 109s1.66602 75 0.999023 111l23 15l-13 25c-4.66699 9.33301 -3 18.333 5 27
c-6.66699 11.333 -9.33398 25.833 -8.00098 43.5s2.33301 34.834 3 51.501s-1.66602 30.834 -6.99902 42.501s-18.333 17.167 -39 16.5c-7.33301 -13.333 -11.833 -28 -13.5 -44s-2.33398 -32.5 -2.00098 -49.5s0.333008 -34 0 -51s-2.83301 -33.167 -7.5 -48.5
c-10 4 -18.167 3.16699 -24.5 -2.5l-19.5 -17.5l37 -15c-2 -18 -2.33301 -35.5 -1 -52.5s3 -33.833 5 -50.5s3.5 -33.5 4.5 -50.5s0.5 -34.5 -1.5 -52.5c-13.333 -5.33301 -27.333 -7.83301 -42 -7.5s-29.667 0.5 -45 0.5c4.66699 15.333 2.83398 28.666 -5.49902 39.999
s-16.5 20.333 -24.5 27c4.66699 9.33301 6.5 19.166 5.5 29.499l-3 31c-1 10.333 -0.666992 20.5 1 30.5s7.83398 18.667 18.501 26l-8 227c-10 1.33301 -17 4.5 -21 9.5s-6.5 11 -7.5 18s-1.33301 14.667 -1 23s0.166016 16.5 -0.500977 24.5
c16.667 18 37.834 27 63.501 27s46.5 -9 62.5 -27c-2 -7.33301 -1 -13.166 3 -17.499s7.66699 -8.5 11 -12.5c6 5.33301 12.5 11.666 19.5 18.999s14.333 14.333 22 21s16.167 11.834 25.5 15.501s19.333 4.5 30 2.5c20.667 4 36.167 -0.833008 46.5 -14.5
s18.833 -28.5 25.5 -44.5v-153h1zM126.003 470.997c-10 -30.667 -14.8252 -62.1631 -14.4922 -94.4961s1.66602 -64.833 3.99902 -97.5s3.66602 -65 3.99902 -97s-4.5 -63.333 -14.5 -94c-11.333 6 -23 6.5 -35 1.5l-32.5 -14
c-9.66699 -4.33301 -17.334 -5.83301 -23.001 -4.5s-7.5 11.666 -5.5 30.999v126c-5.33301 38 -8 78.333 -8 121s3 83 9 121c-6.66699 5.33301 -9.5 12.666 -8.5 21.999s3.5 16.333 7.5 21c9.33301 -1.33301 18.666 -1.5 27.999 -0.5s18.166 2.16699 26.499 3.5
s16.666 2.16602 24.999 2.49902s16.166 -1.16699 23.499 -4.5c1.33301 -6.66699 1.16602 -14.334 -0.500977 -23.001s0.833008 -15.667 7.5 -21h8zM111.011 60.001c-1.33301 -5.33301 -1.1709 -10.832 0.496094 -16.499s-1.16602 -9.83398 -8.49902 -12.501
c4.66699 -2 7.16699 -4.33301 7.5 -7s0 -5.16699 -1 -7.5s-2.33301 -4.83301 -4 -7.5s-2.16699 -5.33398 -1.5 -8.00098c-8 0.666992 -16.5 0.833984 -25.5 0.500977s-17.833 -0.333008 -26.5 0s-16.667 2.16602 -24 5.49902s-13.666 9 -18.999 17c-2 8 -1 14 3 18
s9.16699 7.16699 15.5 9.5s13.333 4.5 21 6.5s13.834 5 18.501 9c7.33301 -1.33301 15.333 -1.16602 24 0.500977s15.334 -0.833008 20.001 -7.5z" />
    <glyph glyph-name="n" unicode="n" horiz-adv-x="325" 
d="M280 186l-8.00586 -177.001c-4.66699 -4 -10 -6.16699 -16 -6.5s-12 -0.166016 -18 0.500977l-17.5 2c-5.66699 0.666992 -10.5 0 -14.5 -2l-5 7c-3.33301 -6 -6.33301 -8.83301 -9 -8.5s-5.66699 1.66602 -9 3.99902s-6.66602 4.33301 -9.99902 6s-7 1.16699 -11 -1.5
l-7 169l22 15l-21 14c-2 22 -2.33301 43.167 -1 63.5s2 40.166 2 59.499s-1.5 38.333 -4.5 57s-9.83301 37 -20.5 55c-18 -24 -27 -51.5 -27 -82.5s-0.333008 -62.5 -1 -94.5l-8 -7c5.33301 -2 7.83301 -5 7.5 -9s-0.166016 -8 0.500977 -12l-8 -8
c5.33301 -2.66699 7.83301 -6 7.5 -10s-0.166016 -7.66699 0.500977 -11l-1 -81c-6 -10 -8.66699 -20 -8 -30s2.16699 -19.833 4.5 -29.5s3.83301 -19.334 4.5 -29.001s-2 -19.5 -8 -29.5c-10 1.33301 -24.167 1.33301 -42.5 0s-33.166 1.33398 -44.499 8.00098
c-6 17.333 -7.16699 34 -3.5 50s7.5 31.5 11.5 46.5s5.83301 29.667 5.5 44s-7.83301 28.5 -22.5 42.5c19.333 36.667 27 78.334 23 125.001c8.66699 0 14.834 2.33301 18.501 7s6.33398 10.5 8.00098 17.5s3 14.167 4 21.5s3.16699 13.666 6.5 18.999l-16 96
c9.33301 4.66699 21.166 7.83398 35.499 9.50098s24.833 -3.83301 31.5 -16.5c1.33301 -6.66699 1.16602 -13.5 -0.500977 -20.5s0.833008 -12.5 7.5 -16.5c18 23.333 43 41 75 53c12.667 -4.66699 26.5 -9.16699 41.5 -13.5s24.833 -14.833 29.5 -31.5
c1.33301 -37.333 1.33301 -70.833 0 -100.5s1.66699 -62.167 9 -97.5c0.666992 -6.66699 0.333984 -17.167 -0.999023 -31.5s1.33398 -26.166 8.00098 -35.499z" />
    <glyph glyph-name="o" unicode="o" horiz-adv-x="347" 
d="M255 484c18.667 -28.667 31.5039 -61.001 38.5039 -97.001s9.16699 -72.667 6.5 -110s-9.33398 -73.833 -20.001 -109.5s-24.334 -67.5 -41.001 -95.5c-4.66699 3.33301 -10.5 5.5 -17.5 6.5s-13.667 2.33301 -20 4s-11.666 4.33398 -15.999 8.00098
s-6.16602 9.5 -5.49902 17.5c-2 -4.66699 -5 -6.83398 -9 -6.50098s-8.33301 -0.166992 -13 -1.5c10 44.667 16.167 90.834 18.5 138.501s6.16602 95.167 11.499 142.5c-4.66699 4 -7 8.66699 -7 14v17c0 6 -0.666992 11.5 -2 16.5s-5.66602 8.83301 -12.999 11.5l-15 -15
l-15 36c-8.66699 -28 -14.834 -57.833 -18.501 -89.5s-5.33398 -63.667 -5.00098 -96s2 -64.666 5 -96.999s7.16699 -62.833 12.5 -91.5c-6.66699 -3.33301 -12 -8 -16 -14s-7.66699 -11.833 -11 -17.5s-7.33301 -10.5 -12 -14.5s-11.334 -5.66699 -20.001 -5
c-21.333 26 -37.833 57.5 -49.5 94.5s-18.334 75.5 -20.001 115.5s1.33301 79.5 9 118.5s20.5 73.833 38.5 104.5c12.667 12 27.834 22 45.501 30s36.167 13 55.5 15s38.166 0.666992 56.499 -4s34.5 -13.334 48.5 -26.001zM190.004 -30.001
c-2 -2 -3.99805 -4.16699 -5.99805 -6.5s-2.33301 -4.83301 -1 -7.5c-9.33301 4.66699 -19.5 6.83398 -30.5 6.50098s-20.833 2.16699 -29.5 7.5c-2.66699 11.333 -1.83398 21.166 2.49902 29.499s11.166 15.833 20.499 22.5c8.66699 1.33301 14.667 0 18 -4s6 -9 8 -15
l6 -18c2 -6 6 -11 12 -15z" />
    <glyph glyph-name="p" unicode="p" horiz-adv-x="373" 
d="M322 241c4 -36.667 2.32715 -74.667 -5.00586 -114s-20 -75.333 -38 -108c-12 -7.33301 -25.167 -12 -39.5 -14s-28.166 -4.33301 -41.499 -7l-14 14l-8 -8c-10.667 4.66699 -17 13.334 -19 26.001s-5.66699 24 -11 34c-1.33301 -16.667 -3.16602 -32 -5.49902 -46
s-4.33301 -27.667 -6 -41s-2.83398 -26.5 -3.50098 -39.5s0 -27.167 2 -42.5l-8 -7c2 -2.66699 4 -5 6 -7s2.66699 -4.66699 2 -8c-14.667 1.33301 -32.834 1.16602 -54.501 -0.500977s-40.834 0.833008 -57.501 7.5c-0.666992 29.333 -0.166992 62.666 1.5 99.999
s3.5 69.666 5.5 96.999v13c0 4 -2.33301 7.33301 -7 10l8 8c-7.33301 2.66699 -10.166 7 -8.49902 13s1.83398 11.333 0.500977 16l8 7c-2 2.66699 -4.16699 5 -6.5 7s-3.16602 4.33301 -2.49902 7c4.66699 6.66699 9.66699 9.5 15 8.5s10.5 -2.66699 15.5 -5
s9.5 -3.33301 13.5 -3s7 5.16602 9 14.499c-8 -1.33301 -14.833 -0.166016 -20.5 3.50098s-11.167 8 -16.5 13s-10.833 9.66699 -16.5 14s-12.167 6.5 -19.5 6.5c6.66699 54.667 9.33398 107.834 8.00098 159.501s-1.66602 104.167 -0.999023 157.5
c4.66699 3.33301 11.667 5.5 21 6.5s19 1.5 29 1.5s19.833 -0.333008 29.5 -1s17.5 -0.666992 23.5 0l22 -45l37 30l14 -15c4.66699 13.333 9.83398 20.5 15.501 21.5s11.5 -0.5 17.5 -4.5l19 -13c6.66699 -4.66699 13.667 -5.66699 21 -3
c19.333 -19.333 32.5 -42.5 39.5 -69.5s8.5 -52.833 4.5 -77.5c6.66699 -14.667 13.834 -33.167 21.501 -55.5s8.16699 -43.166 1.5 -62.499zM226.994 351l-8.00391 -0.00195312c-4.66699 2 -7.16699 5.16699 -7.5 9.5s-0.166016 8.5 0.500977 12.5h-8v-22h8
c-2.66699 -4.66699 -6 -7 -10 -7s-8.33301 -0.333008 -13 -1c0.666992 12 -0.666016 23.833 -3.99902 35.5s-6.5 23.334 -9.5 35.001s-5 23.167 -6 34.5s1.16699 23 6.5 35c-18.667 -13.333 -31.334 -29.166 -38.001 -47.499s-10.667 -37.666 -12 -57.999s-2 -41 -2 -62
s-2.33301 -41.167 -7 -60.5c7.33301 -21.333 9.66602 -45.5 6.99902 -72.5s-5.33398 -49.5 -8.00098 -67.5c8.66699 1.33301 14.834 0.166016 18.501 -3.50098s6.33398 -8.16699 8.00098 -13.5s3 -11.166 4 -17.499s3.16699 -11.5 6.5 -15.5l14 15
c8.66699 -0.666992 14.834 1 18.501 5s6.33398 9.16699 8.00098 15.5s3 12.833 4 19.5s3.16699 12.667 6.5 18c-5.33301 8.66699 -7.66602 17.167 -6.99902 25.5s1.66699 16.833 3 25.5s2.33301 17.334 3 26.001s-1.66602 17.667 -6.99902 27
c1.33301 7.33301 1.66602 16.166 0.999023 26.499s-0.5 20.666 0.5 30.999s3.5 20 7.5 29s11 16.5 21 22.5h1z" />
    <glyph glyph-name="q" unicode="q" horiz-adv-x="343" 
d="M296 500c-4 -17.333 -6.16602 -33.667 -6.49902 -49s-0.5 -30.833 -0.5 -46.5s-0.166992 -31.5 -0.5 -47.5s-2.16602 -32.667 -5.49902 -50c-4.66699 0 -9 0.166992 -13 0.5s-7.66699 -2.16699 -11 -7.5c12 0 20 -2.83301 24 -8.5s6.16699 -12.5 6.5 -20.5
s-0.166992 -16.5 -1.5 -25.5s-1.33301 -17.167 0 -24.5l-5 -17c-2 -6.66699 -3.5 -13 -4.5 -19s-1 -11.667 0 -17s4.16699 -9.66602 9.5 -12.999c0 -4 0.166992 -8.16699 0.5 -12.5s-1.5 -7.83301 -5.5 -10.5c0.666992 -7.33301 0.166992 -19 -1.5 -35s0.5 -28.667 6.5 -38
l-6 -7l6 -8l-6 -7l6 -184h-109c-4 12.667 -6.16699 26.167 -6.5 40.5s-0.5 28.833 -0.5 43.5s-0.166992 29.167 -0.5 43.5s-2.5 28.166 -6.5 41.499c-4.66699 2.66699 -8.5 3.33398 -11.5 2.00098s-5.5 -3.33301 -7.5 -6s-3.83301 -5.66699 -5.5 -9s-3.83398 -6 -6.50098 -8
c-20 -8.66699 -34.5 -10.5 -43.5 -5.5s-16.167 12.5 -21.5 22.5l-16.5 32.5c-5.66699 11.667 -14.834 19.5 -27.501 23.5c-6 36 -12 75.167 -18 117.5s-8.16699 84.333 -6.5 126s9 81 22 118s35.5 68.167 67.5 93.5c8.66699 3.33301 18.334 5.16602 29.001 5.49902
s21 -0.666992 31 -3s19 -6.33301 27 -12s13.333 -12.5 16 -20.5l30 -29c2.66699 4 4.66699 8.66699 6 14s3 10.5 5 15.5s4.83301 9 8.5 12s9.16699 3.83301 16.5 2.5s15.666 -1.33301 24.999 0s13.333 -3.66699 12 -15v1zM165.001 481.999
c-1.33301 -8 -4 -13.665 -8 -16.998c4.66699 1.33301 7.16699 3.66602 7.5 6.99902s0.5 6.66602 0.5 9.99902zM180.001 288.001c-6.66699 14 -9.50293 28.8301 -8.50293 44.4971s2.33301 31.334 4 47.001s1.83398 30.667 0.500977 45s-7.33301 27.5 -18 39.5l-4 -4l-4 -4
l-8 8c-6.66699 -21.333 -11 -43.833 -13 -67.5s-3 -47.667 -3 -72s0.5 -48.5 1.5 -72.5s0.833008 -46.333 -0.5 -67c-2 -6.66699 -2.33301 -14 -1 -22l4 -25c1.33301 -8.66699 2.16602 -17.167 2.49902 -25.5s-1.16699 -16.166 -4.5 -23.499c-4 0 -8 0.166992 -12 0.5
s-7.33301 2.5 -10 6.5l-16 -21c4.66699 0.666992 9.83398 2 15.501 4s11.167 3.16699 16.5 3.5s10.5 -0.5 15.5 -2.5s8.83301 -6.33301 11.5 -13c10.667 14.667 17.334 31.167 20.001 49.5s3.83398 37.333 3.50098 57s-0.5 39.334 -0.5 59.001s2.66699 38.167 8 55.5z" />
    <glyph glyph-name="r" unicode="r" horiz-adv-x="279" 
d="M235 376c-12.667 2 -25.6641 4.16602 -38.9971 6.49902s-27.333 2.83301 -42 1.5c-12 -7.33301 -20.333 -16.833 -25 -28.5s-7.83398 -24.167 -9.50098 -37.5s-2.66699 -27.166 -3 -41.499s-2.5 -27.833 -6.5 -40.5l-7 8l-16 -14c2.66699 -5.33301 6 -7.83301 10 -7.5
s8.33301 0.5 13 0.5c5.33301 -12.667 8 -27.5 8 -44.5s-2.66699 -31.5 -8 -43.5c-8.66699 -6 -16.334 -11.667 -23.001 -17s-13.5 -10 -20.5 -14s-14.5 -6.66699 -22.5 -8s-18 -0.666016 -30 2.00098c-1.33301 13.333 -1.33301 27.166 0 41.499s-1.33398 27.5 -8.00098 39.5
l38 21c-2 4.66699 -5.16699 7.16699 -9.5 7.5s-8.83301 0.5 -13.5 0.5l-21 271c9.33301 4.66699 20.666 7.5 33.999 8.5s24 0.5 32 -1.5c4 6.66699 9.5 9.33398 16.5 8.00098s13.5 -1.33301 19.5 0c9.33301 -4.66699 14 -9.83398 14 -15.501s-1 -11.5 -3 -17.5
s-3 -12 -3 -18s4.66699 -11.333 14 -16c7.33301 7.33301 14.5 16.166 21.5 26.499s14.667 19.833 23 28.5s17.833 15.834 28.5 21.501s23.334 7.5 38.001 5.5v-133zM102.003 74.999c4.66699 -12.667 7.83105 -28.8301 9.49805 -48.4971s-3.5 -35.167 -15.5 -46.5
c-6 1.33301 -10.167 4.16602 -12.5 8.49902s-4.33301 9 -6 14s-3.66699 9.66699 -6 14s-6.5 7.16602 -12.5 8.49902c-4.66699 -6.66699 -8.16699 -14.5 -10.5 -23.5s-8.83301 -13.833 -19.5 -14.5c-7.33301 6.66699 -10.166 14.667 -8.49902 24s1.83398 18.333 0.500977 27
c8.66699 -2.66699 16.167 -1.66699 22.5 3s12.333 10 18 16s11.5 11.167 17.5 15.5s13.667 5.16602 23 2.49902z" />
    <glyph glyph-name="s" unicode="s" horiz-adv-x="317" 
d="M267 158c3.33301 -25.333 1.6748 -49.0039 -4.99219 -71.0039s-15.334 -42.333 -26.001 -61c-9.33301 4.66699 -15.333 3.16699 -18 -4.5s-6.33398 -13.167 -11.001 -16.5c-10.667 -6.66699 -23.334 -11.167 -38.001 -13.5s-26 -3.16602 -34 -2.49902
c-7.33301 -4 -14.166 -4.83301 -20.499 -2.5s-12.833 5.33301 -19.5 9l-20 11c-6.66699 3.66699 -14 4.83398 -22 3.50098c-4.66699 10.667 -10.167 20 -16.5 28s-12.333 16 -18 24s-10.334 16.333 -14.001 25s-4.83398 19.667 -3.50098 33
c8.66699 0.666992 16.667 2.83398 24 6.50098l22 11c7.33301 3.66699 15 6.33398 23 8.00098s17 1.16699 27 -1.5c-3.33301 -17.333 -1.5 -32.333 5.5 -45s14.833 -24.334 23.5 -35.001c3.33301 2.66699 7.5 4.5 12.5 5.5l14.5 3c4.66699 1 8.66699 2.83301 12 5.5
s5.33301 7.33398 6 14.001c0.666992 15.333 -0.166016 31.166 -2.49902 47.499s-11.5 27.5 -27.5 33.5l-14 15c-2 -4.66699 -4.16699 -7.16699 -6.5 -7.5s-4.83301 0 -7.5 1s-5.33398 2.33301 -8.00098 4s-5.33398 2.5 -8.00098 2.5c22 18.667 36.5 32.167 43.5 40.5
s9.33301 13.833 7 16.5s-8.16602 3 -17.499 1s-19.333 -4.33301 -30 -7s-20.667 -4.5 -30 -5.5s-15 0.5 -17 4.5c-10.667 10 -18.834 22.5 -24.501 37.5s-9.33398 30.833 -11.001 47.5s-1.83398 33.5 -0.500977 50.5s3.66602 32.833 6.99902 47.5
c7.33301 16.667 18.833 30.334 34.5 41.001s30.834 19.334 45.501 26.001c15.333 -5.33301 31.5 -8.66602 48.5 -9.99902s32.833 -5 47.5 -11c17.333 -16.667 30.166 -35.334 38.499 -56.001s10.166 -43.667 5.49902 -69l-66 -8
c-4.66699 7.33301 -8.16699 15.666 -10.5 24.999s-4.83301 18.333 -7.5 27s-6.5 16.334 -11.5 23.001s-12.167 11 -21.5 13c-11.333 -14 -17.5 -29.333 -18.5 -46s2.5 -33 10.5 -49l29 -20.5c8.66699 -6.33301 13.334 -16.5 14.001 -30.5
c6.66699 -14 15.834 -24.5 27.501 -31.5l34.5 -20.5c11.333 -6.66699 21.166 -14.834 29.499 -24.501s12.5 -23.5 12.5 -41.5h1z" />
    <glyph glyph-name="t" unicode="t" horiz-adv-x="283" 
d="M242 456l-5.99414 -38.999c-2 -12.667 -2.66699 -26 -2 -40c-5.33301 -2 -10.5 -2.5 -15.5 -1.5s-10 2.16699 -15 3.5s-9.66699 2 -14 2s-8.5 -1.66699 -12.5 -5l-7.5 5.5c-2.33301 1.66699 -4.83301 2.16699 -7.5 1.5c-6.66699 -3.33301 -10.334 -7.5 -11.001 -12.5
s-0.333984 -10.5 0.999023 -16.5l4 -18c1.33301 -6 1 -12 -1 -18c-8.66699 -22 -10.667 -43.167 -6 -63.5s6.66699 -40.833 6 -61.5c-7.33301 -27.333 -9.33301 -53 -6 -77s7.66602 -47.333 12.999 -70c5.33301 -2 9.83301 -1.83301 13.5 0.5s7.16699 5 10.5 8
s7.16602 5.5 11.499 7.5s9.5 1.33301 15.5 -2l12 -45.5c4 -15 4.66699 -31.167 2 -48.5c-10.667 -2 -18.667 -1.5 -24 1.5s-9.66602 9.16699 -12.999 18.5c1.33301 4 1 7.16699 -1 9.5s-4 4.5 -6 6.5l-21 -21c9.33301 -2 15.666 -7.83301 18.999 -17.5s4 -19.167 2 -28.5
c-2.66699 -7.33301 -6.83398 -10 -12.501 -8s-11.167 2.33301 -16.5 1l-15 30l-7 -8c-4.66699 13.333 -9.66699 20.166 -15 20.499s-11.333 -1.33398 -18 -5.00098s-14 -7.33398 -22 -11.001s-16.667 -2.5 -26 3.5c-0.666992 8 -1 16.167 -1 24.5s-4.33301 14.5 -13 18.5
c2.66699 62.667 6.5 125.834 11.5 189.501s6.16699 125.834 3.5 186.501c-3.33301 6 -6.5 8.83301 -9.5 8.5s-6 -1.83301 -9 -4.5l-9 -8c-3 -2.66699 -6.16699 -3.66699 -9.5 -3c0 8 -1.5 16 -4.5 24s-5.66699 16.167 -8 24.5s-3 16.333 -2 24s5.5 14.834 13.5 21.501l23 -7
c7.33301 10 11.666 22.833 12.999 38.5s1.83301 32 1.5 49s-0.5 33.667 -0.5 50s2.83301 29.833 8.5 40.5s15.167 17.667 28.5 21s33 0.666016 59 -8.00098l22 -7c2 -16 2.33301 -31.833 1 -47.5s-3 -31.167 -5 -46.5s-3 -30.5 -3 -45.5s2.33301 -30.167 7 -45.5
c6 0 12.333 1.66699 19 5s13.167 6 19.5 8s12.5 2.5 18.5 1.5s11.333 -5.5 16 -13.5v-1zM169.006 389.001v23l-7 7z" />
    <glyph glyph-name="u" unicode="u" horiz-adv-x="358" 
d="M308 107c-6 -16 -8.3291 -35.5 -6.99609 -58.5s0.833008 -44.167 -1.5 -63.5s-9.33301 -34.166 -21 -44.499s-33.5 -11.166 -65.5 -2.49902c-8.66699 -2.66699 -15 0.5 -19 9.5s-4.66699 17.833 -2 26.5c-1.33301 5.33301 -1.33301 11 0 17s-1.33398 10.333 -8.00098 13
c-2 -4.66699 -4.16699 -7.16699 -6.5 -7.5s-4.83301 0 -7.5 1s-5.16699 2.33301 -7.5 4s-4.83301 2.16699 -7.5 1.5c-10 0 -19.667 -1.66699 -29 -5l-28 -10.5c-9.33301 -3.66699 -19 -6.5 -29 -8.5s-21 -1.33301 -33 2c-8.66699 9.33301 -15 20.166 -19 32.499
s-6.66699 25.166 -8 38.499s-1.83301 26.666 -1.5 39.999s0.5 25.333 0.5 36l-8 331c10 4 19.167 6.16699 27.5 6.5s16.5 0.5 24.5 0.5s16.167 0.166992 24.5 0.5s17.5 2.5 27.5 6.5l14 -14c-3.33301 -29.333 -5.33301 -60.166 -6 -92.499s-1 -64.5 -1 -96.5
s0.166992 -63.167 0.5 -93.5s0.166016 -58.5 -0.500977 -84.5c4.66699 -4.66699 7 -9.66699 7 -15s-0.666992 -10.666 -2 -15.999s-2.33301 -10.333 -3 -15s0.666016 -9 3.99902 -13c6 -0.666992 11.5 0.333008 16.5 3l14.5 8c4.66699 2.66699 9.16699 4.16699 13.5 4.5
s9.16602 -2.16699 14.499 -7.5l16 14c-1.33301 48.667 -1.33301 98.167 0 148.5s-1.33398 98.5 -8.00098 144.5l-1 97c22 5.33301 41.667 8 59 8s37 -2.66699 59 -8c-5.33301 -22 -7.66602 -43.833 -6.99902 -65.5s2 -43.5 4 -65.5s3.83301 -44.167 5.5 -66.5
s1.16699 -45.166 -1.5 -68.499c-4 1.33301 -7 1.16602 -9 -0.500977s-4.33301 -3.83398 -7 -6.50098c9.33301 -2.66699 16 -9 20 -19s5 -20.667 3 -32l-8 -7l8 -7h-1z" />
    <glyph glyph-name="v" unicode="v" horiz-adv-x="314" 
d="M266 486c-14 -38 -25.6689 -76.498 -35.002 -115.498l-27 -118l-25.5 -119c-8.33301 -39.667 -18.5 -78.5 -30.5 -116.5c-10 3.33301 -22.667 5.16602 -38 5.49902s-29.333 2.16602 -42 5.49902s-22.5 9.33301 -29.5 18s-7.16699 23.334 -0.5 44.001
c2.66699 14 3.16699 27.5 1.5 40.5s-3.5 25.667 -5.5 38s-3.16699 24.833 -3.5 37.5s2.16699 25.334 7.5 38.001c-9.33301 45.333 -18 92 -26 140s-11.667 94.333 -11 139h104c4 -36.667 7.66699 -73.334 11 -110.001l10 -110c10 14 16.333 30 19 48s4.66699 36.333 6 55
s4 36.334 8 53.001s12.667 31 26 43c6.66699 -1.33301 13.5 -1.33301 20.5 0s12.167 -1.33398 15.5 -8.00098c4 4.66699 7.83301 7 11.5 7s7.33398 -1 11.001 -3s7.33398 -4.33301 11.001 -7s7.5 -4.33398 11.5 -5.00098zM112.998 273.002
c-6.66699 0.666992 -11.668 -2.33203 -15.001 -8.99902s-9.33301 -12 -18 -16c11.333 -2.66699 18.833 -0.833984 22.5 5.49902s6.83398 12.833 9.50098 19.5h1z" />
    <glyph glyph-name="w" unicode="w" horiz-adv-x="442" 
d="M276 354c-2 -2.66699 -4.83203 -5.33203 -8.49902 -7.99902s-4.83398 -6.33398 -3.50098 -11.001c-7.33301 -1.33301 -12.666 -0.333008 -15.999 3s-6.33301 6.66602 -9 9.99902s-5.83398 6 -9.50098 8s-9.5 1.33301 -17.5 -2c-3.33301 6 -8.16602 8.33301 -14.499 7
s-12.833 -3 -19.5 -5s-12.834 -2.5 -18.501 -1.5s-9.5 6.83301 -11.5 17.5c4 12 6 25 6 39s0.166992 27.833 0.5 41.5s2.16602 26.5 5.49902 38.5s10 22 20 30c4.66699 -6 10.334 -9.66699 17.001 -11s13.667 -2 21 -2s14.833 0.333008 22.5 1
s15.167 0.333984 22.5 -0.999023c2 -25.333 5.33301 -50.5 10 -75.5s5.66699 -51.167 3 -78.5zM412.001 509.002c-5.33301 -48.667 -12.6631 -96.6699 -21.9961 -144.003s-21.333 -93.666 -36 -138.999c-5.33301 1.33301 -11.333 1.33301 -18 0s-11.667 0.666992 -15 6
c-7.33301 -2.66699 -11.5 -5.83398 -12.5 -9.50098s-0.666992 -7.5 1 -11.5s4 -8 7 -12s4.5 -8 4.5 -12c4 7.33301 9.33301 9.66602 16 6.99902l18 -7c0.666992 -12.667 0 -25 -2 -37s-6.33301 -23 -13 -33c2.66699 -17.333 1.66699 -36.166 -3 -56.499
s-7.66699 -40.166 -9 -59.499c-14.667 -4.66699 -31 -7 -49 -7s-33.667 2.33301 -47 7c-9.33301 28 -15 59.833 -17 95.5s-5.33301 70.5 -10 104.5c4.66699 -1.33301 8.33398 -0.333008 11.001 3s5.66699 6.33301 9 9c-7.33301 0 -12 1.83301 -14 5.5s-3.33301 8 -4 13
s-1.66699 9.5 -3 13.5s-5.33301 6 -12 6c-10.667 -12 -17.5 -27.833 -20.5 -47.5s-4.66699 -40.167 -5 -61.5s-0.833008 -42.166 -1.5 -62.499s-4.33398 -37.666 -11.001 -51.999s-17.834 -23.833 -33.501 -28.5s-38.834 -2.33398 -69.501 6.99902
c-8.66699 37.333 -14.167 74.5 -16.5 111.5s-4.16602 74 -5.49902 111s-3.33301 74 -6 111s-8 73.833 -16 110.5c-6.66699 4.66699 -8.83398 10.167 -6.50098 16.5s4.16602 11.833 5.49902 16.5c9.33301 4.66699 20.166 7 32.499 7s22.833 -2.33301 31.5 -7
c4.66699 6.66699 10.167 8.83398 16.5 6.50098s11.5 -4.16602 15.5 -5.49902c6 -12 9.83301 -25.333 11.5 -40s2.66699 -29.334 3 -44.001s1 -28.834 2 -42.501s4.16699 -25.834 9.5 -36.501c4 2 6.16699 5 6.5 9s0.166016 7.33301 -0.500977 10
c12 -2.66699 24.667 -4.33398 38 -5.00098s26.5 -1.66699 39.5 -3s25.5 -3.66602 37.5 -6.99902s23.333 -8.66602 34 -15.999v-22c0 -7.33301 4 -12.666 12 -15.999c4.66699 40 7.83398 80.5 9.50098 121.5s9.5 79.5 23.5 115.5h83z" />
    <glyph glyph-name="x" unicode="x" horiz-adv-x="354" 
d="M317 455c-4.66699 -25.333 -14.334 -50.335 -29.001 -75.002s-27.667 -49.5 -39 -74.5s-17.5 -50.167 -18.5 -75.5s10.5 -51.333 34.5 -78c0 -25.333 3.83301 -49.333 11.5 -72s14.167 -45.667 19.5 -69c-10 -2 -22.5 -2.66699 -37.5 -2s-28.167 3.33398 -39.5 8.00098
c-2.66699 -4.66699 -5.16699 -7 -7.5 -7s-4.66602 1 -6.99902 3s-4.83301 3.83301 -7.5 5.5s-5.66699 1.16699 -9 -1.5c-10 17.333 -15.667 36.5 -17 57.5s-6.66602 40.167 -15.999 57.5l-28.5 -46.5c-9.66699 -15.667 -17.167 -32.167 -22.5 -49.5
c2.66699 -8 1.5 -14.333 -3.5 -19s-5.83301 -11.334 -2.5 -20.001c-14.667 2 -29.5 3.83301 -44.5 5.5s-30.167 1.83398 -45.5 0.500977c0 4 -0.166992 8 -0.5 12s-2.83301 6.66699 -7.5 8c21.333 36.667 40 74.5 56 113.5s36.667 76.167 62 111.5
c-11.333 39.333 -21.166 79.5 -29.499 120.5s-20.5 80.167 -36.5 117.5c10 4.66699 19.5 6.83398 28.5 6.50098s18.333 -1.33301 28 -3l29 -5c9.66699 -1.66699 19.834 -1.16699 30.501 1.5c5.33301 -15.333 8.66602 -31.833 9.99902 -49.5s6.66602 -33.5 15.999 -47.5
c10 6 17 15 21 27s8 23 12 33s9.83301 16.833 17.5 20.5s20.5 0.5 38.5 -9.5c4 5.33301 9.16699 6 15.5 2s12.166 -6.33301 17.499 -7h1z" />
    <glyph glyph-name="y" unicode="y" horiz-adv-x="334" 
d="M325 475c-12 -50 -25.168 -99.8281 -39.501 -149.495s-25.5 -100.5 -33.5 -152.5c-6.66699 -12.667 -11.667 -25.834 -15 -39.501s-6.5 -27.334 -9.5 -41.001s-6.33301 -27.334 -10 -41.001s-8.83398 -26.834 -15.501 -39.501c2.66699 -28 -3 -54.333 -17 -79
s-31.667 -43.334 -53 -56.001c-4.66699 2 -9.66699 2.33301 -15 1s-10.833 -3 -16.5 -5s-11.167 -3.16699 -16.5 -3.5s-10.666 1.83398 -15.999 6.50098c-9.33301 0 -18.666 0.166992 -27.999 0.5s-19.666 2.5 -30.999 6.5c-1.33301 4.66699 -3 11.5 -5 20.5
s-3.16699 18 -3.5 27s1 16.833 4 23.5s8.5 10.667 16.5 12c14.667 -5.33301 28.167 -8 40.5 -8s24.833 4.66699 37.5 14c1.33301 6.66699 5 13.334 11 20.001s4.66699 13 -4 19c-0.666992 14 -0.5 31 0.5 51s-1.5 37.667 -7.5 53
c1.33301 4.66699 3.16602 9.66699 5.49902 15s4 10.666 5 15.999s0.5 10.333 -1.5 15s-7 8.66699 -15 12c0 27.333 -4.16699 53 -12.5 77s-12.833 49.667 -13.5 77c-0.666992 10 -0.5 23.5 0.5 40.5s-1.16699 31.167 -6.5 42.5c-0.666992 8 -2.16699 16.5 -4.5 25.5
s-4.5 17.833 -6.5 26.5s-2.83301 16.834 -2.5 24.501s2.5 14.5 6.5 20.5h96c6.66699 -24.667 11.834 -50.167 15.501 -76.5s7.5 -52.166 11.5 -77.499c-3.33301 -8.66699 -2.5 -19 2.5 -31s8.16699 -23.333 9.5 -34c7.33301 15.333 12.666 31.333 15.999 48
s6.33301 33.5 9 50.5l8 51c2.66699 17 6.66699 33.5 12 49.5c6.66699 -2.66699 14.167 -2.83398 22.5 -0.500977s16.5 4.16602 24.5 5.49902s15.667 1.16602 23 -0.500977s14 -7.5 20 -17.5z" />
    <glyph glyph-name="z" unicode="z" horiz-adv-x="359" 
d="M311 454c-0.666992 -14 -1.16504 -28.1602 -1.49805 -42.4932s-6.5 -25.833 -18.5 -34.5c0 -19.333 -4 -37 -12 -53s-14.667 -32.667 -20 -50c-3.33301 0 -6.83301 0.166992 -10.5 0.5s-6.5 2.16602 -8.5 5.49902l-5 -6c-4 8 -10.833 13.833 -20.5 17.5
s-18.167 8.5 -25.5 14.5c-2 -4.66699 -5 -6.83398 -9 -6.50098s-8 0.5 -12 0.5c-5.33301 4.66699 -7.33301 10.5 -6 17.5s1.66602 13.5 0.999023 19.5c3.33301 3.33301 6.66602 7.33301 9.99902 12s5.66602 9.16699 6.99902 13.5s1.33301 8.33301 0 12s-5 6.5 -11 8.5
c-6 2.66699 -12.333 3.16699 -19 1.5l-21 -5c-7.33301 -1.66699 -14.666 -2.66699 -21.999 -3s-14.333 1.83398 -21 6.50098c-4 -6.66699 -9 -8.83398 -15 -6.50098s-11.667 4.16602 -17 5.49902c-2 14.667 -4.33301 30.167 -7 46.5s-0.666992 31.166 6 44.499
c14.667 -6 30.667 -9.83301 48 -11.5s34.833 -2.33398 52.5 -2.00098s35.167 0.833008 52.5 1.5s33.333 0.666992 48 0c6 -2.66699 11.5 -3.33398 16.5 -2.00098l14.5 4c4.66699 1.33301 9.16699 1.66602 13.5 0.999023s8.5 -4 12.5 -10zM273.002 -28.9932
c-7.33301 -0.666992 -15.333 -0.161133 -24 1.50586s-16 -0.833008 -22 -7.5c-4.66699 10.667 -9.66699 14 -15 10s-11 -7.33301 -17 -10c-30 4.66699 -62.167 7.16699 -96.5 7.5s-66.166 -1.83398 -95.499 -6.50098c-4.66699 28 -3.66699 56.5 3 85.5
s16.334 55.833 29.001 80.5c3.33301 0 6.83301 0.166992 10.5 0.5s6.5 2.5 8.5 6.5c-4.66699 14 -6.33398 27.667 -5.00098 41s4 26.666 8 39.999s8.33301 26.666 13 39.999s8 26.666 10 39.999c5.33301 2 10 5.16699 14 9.5s9.33301 5.16602 16 2.49902
c0.666992 -6 2.83398 -10.333 6.50098 -13s7.66699 -4.5 12 -5.5s9 -1.66699 14 -2s9.5 -1.16602 13.5 -2.49902c14.667 1.33301 26 -3.33398 34 -14.001c-3.33301 -19.333 -8.83301 -38.333 -16.5 -57l-22.5 -55.5c-7.33301 -18.333 -13.333 -36.833 -18 -55.5
s-5.33398 -38 -2.00098 -58c22.667 4 45.5 7.83301 68.5 11.5s47.167 4.5 72.5 2.5c-2.66699 -8.66699 -3.16699 -16.834 -1.5 -24.501l5 -23c1.66699 -7.66699 2.66699 -15 3 -22s-1.83398 -14.5 -6.50098 -22.5h1z" />
    <glyph glyph-name="braceleft" unicode="{" horiz-adv-x="205" 
d="M281 750c-24 19.333 -41.9971 26.999 -53.9971 22.999s-20.5 -15.5 -25.5 -34.5s-8 -43 -9 -72s-2.5 -58.667 -4.5 -89s-6.16699 -59 -12.5 -86s-17.5 -47.833 -33.5 -62.5c-2 -2.66699 -3.66699 -6.66699 -5 -12s-3.66602 -11 -6.99902 -17s-8.5 -11.833 -15.5 -17.5
s-16.833 -9.83398 -29.5 -12.501c-2 -1.33301 -6.16699 -2.66602 -12.5 -3.99902s-13.333 -2.66602 -21 -3.99902s-14.834 -2.5 -21.501 -3.5s-11.334 -1.5 -14.001 -1.5c-5.33301 0 -8 2.5 -8 7.5s-2.66699 8.16699 -8 9.5c33.333 8.66699 57.5 22.334 72.5 41.001
s24.667 40.167 29 64.5s5.16602 50.5 2.49902 78.5l-8 82.5c-2.66699 27 -3.5 52.167 -2.5 75.5s7.33301 42.666 19 57.999s30.667 25.5 57 30.5s63.166 2.83301 110.499 -6.5zM280.003 -32.001l-14.998 -48.0049c-14.667 6.66699 -30.334 10.834 -47.001 12.501
s-33 4.33398 -49 8.00098s-31 9.33398 -45 17.001s-26 20.834 -36 39.501c-7.33301 28 -9 59.667 -5 95s6 69.333 6 102s-5.5 61.667 -16.5 87s-34.833 42 -71.5 50l68 3c23.333 1.33301 40 -4.16699 50 -16.5s17 -27.666 21 -45.999s7 -37.833 9 -58.5s7.33301 -39 16 -55
c-12 -22 -17.833 -48.667 -17.5 -80s7.16602 -58 20.499 -80l52 -25.5c17.333 -8.33301 37.333 -9.83301 60 -4.5z" />
    <glyph glyph-name="bar" unicode="|" horiz-adv-x="161" 
d="M100 536l-14.001 -11.9961c6.66699 -37.333 8.66699 -77.833 6 -121.5s-5.66699 -87.834 -9 -132.501s-4.83301 -88.334 -4.5 -131.001s6.83301 -82 19.5 -118c-5.33301 -5.33301 -11.666 -8.83301 -18.999 -10.5s-15.5 -2.5 -24.5 -2.5s-18 0.333008 -27 1
s-17.5 0.333984 -25.5 -0.999023c1.33301 3.33301 1.5 8.66602 0.5 15.999s-1.5 15 -1.5 23s1 16 3 24s6.33301 14.667 13 20c8.66699 0.666992 17.667 1.16699 27 1.5s16.333 4.5 21 12.5l-48 23c-7.33301 30.667 -9.66602 60.667 -6.99902 90
s5.83398 58.166 9.50098 86.499s5.66699 56.666 6 84.999s-5.83398 56.5 -18.501 84.5c5.33301 13.333 9.16602 29 11.499 47s3.33301 36.5 3 55.5s-2.33301 37.667 -6 56s-8.5 33.833 -14.5 46.5l96 1c6 -14 7.33301 -27 4 -39s-7 -23.833 -11 -35.5
s-6.33301 -23.167 -7 -34.5s5 -23 17 -35z" />
    <glyph glyph-name="braceright" unicode="}" horiz-adv-x="205" 
d="M296 327c-17.333 -2 -32.002 -8 -44.002 -18s-22.167 -22 -30.5 -36s-15.166 -29 -20.499 -45s-9.66602 -31.667 -12.999 -47c-5.33301 -22.667 -5.83301 -47.834 -1.5 -75.501s7 -54.5 8 -80.5s-2.5 -49.5 -10.5 -70.5s-26.667 -36.5 -56 -46.5
c-10 2.66699 -21.833 3 -35.5 1s-27 -3.33301 -40 -4s-24.333 1 -34 5s-15.834 13.333 -18.501 28c5.33301 9.33301 12.5 14.333 21.5 15s17.833 1 26.5 1c4.66699 -7.33301 9.66699 -11.166 15 -11.499s10.833 1.16699 16.5 4.5s11.334 7.66602 17.001 12.999
s10.834 9.33301 15.501 12c9.33301 18 14.333 38.5 15 61.5s-0.166016 46.667 -2.49902 71s-4.5 48.5 -6.5 72.5s-0.666992 46 4 66s14 37.333 28 52s36 24.667 66 30c-18.667 10.667 -33.5 23.334 -44.5 38.001s-19.833 30.334 -26.5 47.001s-11.834 33.834 -15.501 51.501
s-7.83398 35.167 -12.501 52.5c4 5.33301 8.33301 10.333 13 15s5.66699 10.334 3 17.001c-4.66699 5.33301 -7 11.666 -7 18.999s0.833008 15.333 2.5 24s3 17.5 4 26.5s0.166992 17.833 -2.5 26.5c8 2.66699 14.167 2 18.5 -2s9.5 -8 15.5 -12l14 16
c-9.33301 6.66699 -19.333 16 -30 28s-22.5 23 -35.5 33s-27.333 17.167 -43 21.5s-33.5 2.16602 -53.5 -6.50098v48c18.667 1.33301 38.167 2.16602 58.5 2.49902s39.333 -1.66699 57 -6s33.334 -12 47.001 -23s23.5 -27.167 29.5 -48.5
c1.33301 -32 0.166016 -66 -3.50098 -102s-4.5 -70.833 -2.5 -104.5s9.5 -64.5 22.5 -92.5s36.833 -50.333 71.5 -67z" />
    <glyph glyph-name="asciitilde" unicode="~" horiz-adv-x="474" 
d="M401 799c17.333 -8 27.498 -18.5 30.498 -31.5s1.33301 -26 -5 -39s-16.166 -25 -29.499 -36s-27.333 -18.167 -42 -21.5c-7.33301 -3.33301 -13.333 -2.83301 -18 1.5l-14 12.5c-15.333 -8.66699 -30.166 -10.834 -44.499 -6.50098s-28.666 11.166 -42.999 20.499
l-43.5 28.5c-14.667 9.66699 -29.667 15.834 -45 18.501l-143 -35c-6.66699 20 -5 37.333 5 52s23.333 24.334 40 29.001c24 12 47.333 15.5 70 10.5s44.667 -13 66 -24s41.833 -22.667 61.5 -35s38.667 -20.333 57 -24s35.666 0 51.999 11s31.5 33.833 45.5 68.5z" />
    <glyph glyph-name="cent" unicode="&#xa2;" horiz-adv-x="353" 
d="M300 323c-3.33301 -7.33301 -8.66797 -11.6699 -16.001 -13.0029s-15.166 -1.83301 -23.499 -1.5s-17 0.333008 -26 0s-16.5 -2.83301 -22.5 -7.5c-5.33301 29.333 -13 57.5 -23 84.5s-12.667 57.833 -8 92.5c7.33301 6.66699 13.666 9.33398 18.999 8.00098
s10.5 -3.83301 15.5 -7.5l15.5 -11c5.33301 -3.66699 11.333 -5.16699 18 -4.5c19.333 -19.333 31.833 -41.166 37.5 -65.499s9.83398 -49.166 12.501 -74.499h1zM153.998 447.996c-12.667 -0.666992 -20.667 -4.66699 -24 -12s-5 -16 -5 -26s0.166992 -20.167 0.5 -30.5
s-2.16699 -19.166 -7.5 -26.499c4.66699 -4 6.83398 -8 6.50098 -12s-1.33301 -8 -3 -12s-3.16699 -8.33301 -4.5 -13s-0.666016 -9.66699 2.00098 -15c5.33301 -22 7.83301 -44 7.5 -66s-2.16602 -43.667 -5.49902 -65s-7.5 -42.5 -12.5 -63.5s-9.5 -41.833 -13.5 -62.5v-8
c-14 2.66699 -24.833 8.16699 -32.5 16.5s-13.834 18 -18.501 29s-9.16699 22.167 -13.5 33.5s-9.83301 21.666 -16.5 30.999c-6.66699 32 -8.83398 61.667 -6.50098 89s0.166016 56.333 -6.50098 87c-1.33301 26.667 1.5 53 8.5 79s18.167 48.667 33.5 68l2 191
c-4 13.333 -0.333008 18.5 11 15.5s23.666 -8.5 36.999 -16.5c-0.666992 -36.667 1 -65.667 5 -87l11 -58c20 4.66699 35.833 0.666992 47.5 -12s10.834 -30.667 -2.49902 -54zM263.998 168.996c-1.33301 -12.667 -1.66797 -26.1689 -1.00098 -40.502s1 -28.5 1 -42.5
s-1.16699 -27.167 -3.5 -39.5s-7.5 -23.166 -15.5 -32.499l6 -60c-14.667 -15.333 -25.834 -26.166 -33.501 -32.499s-12.667 -9.33301 -15 -9s-3 3.33301 -2 9s2.83301 13.167 5.5 22.5c-1.33301 6.66699 -1.5 12.167 -0.5 16.5s2.33301 8 4 11s3 6 4 9
s0.833008 6.83301 -0.5 11.5c-8.66699 1.33301 -21.667 1.33301 -39 0s-31.666 1.33398 -42.999 8.00098c-0.666992 18 0 35.667 2 53s6.66699 34 14 50c10.667 3.33301 19 2 25 -4s12 -12.333 18 -19c13.333 6.66699 20.5 16.667 21.5 30s1.16699 26.666 0.5 39.999
s0.833008 24.833 4.5 34.5s14.834 14.167 33.501 13.5z" />
    <glyph glyph-name="yen" unicode="&#xa5;" horiz-adv-x="430" 
d="M421 682c-43.333 -52 -76.835 -107.666 -100.502 -166.999s-40.834 -121.666 -51.501 -186.999l112 -30c-2 -13.333 -7.83301 -22 -17.5 -26s-20.667 -6.16699 -33 -6.5s-25.166 0 -38.499 1s-24.833 0 -34.5 -3s-16.5 -9.16699 -20.5 -18.5s-3 -24.666 3 -45.999
l128 -29c-14.667 -4.66699 -31.5 -8.83398 -50.5 -12.501s-36.167 -9.83398 -51.5 -18.501s-27.166 -20.667 -35.499 -36s-9.16602 -36.666 -2.49902 -63.999v-47l-96 -1l14 142c-10 7.33301 -20.833 12 -32.5 14s-23.834 2.83301 -36.501 2.5s-25.5 -1 -38.5 -2
s-25.833 -1.16699 -38.5 -0.5v32c12 1.33301 24.5 1.66602 37.5 0.999023s25.833 -1 38.5 -1s24.834 1.16699 36.501 3.5s22.167 7.16602 31.5 14.499c-1.33301 6.66699 -1.66602 13.834 -0.999023 21.501s1 15.167 1 22.5s-1 14.166 -3 20.499s-6.66699 11.5 -14 15.5
c-6.66699 -7.33301 -14.5 -12.166 -23.5 -14.499s-18.5 -3.5 -28.5 -3.5s-20.167 0.5 -30.5 1.5s-20.166 0.5 -29.499 -1.5v48c9.33301 1.33301 19.166 1.66602 29.499 0.999023s20.333 -1 30 -1s19 1.16699 28 3.5s16.5 7.16602 22.5 14.499
c-9.33301 29.333 -17.833 59 -25.5 89s-15.834 59.833 -24.501 89.5s-18.334 58.834 -29.001 87.501s-23.667 56.334 -39 83.001c5.33301 7.33301 11.833 12.166 19.5 14.499s15.834 3.5 24.501 3.5s17.5 -0.333008 26.5 -1s17.5 -0.666992 25.5 0
c12.667 -23.333 21.834 -48.5 27.501 -75.5s10.5 -54.5 14.5 -82.5s8.83301 -55.5 14.5 -82.5s15.167 -52.167 28.5 -75.5c20 19.333 34.833 40.833 44.5 64.5s18.167 47.667 25.5 72s15.666 48.333 24.999 72s24 45.167 44 64.5l-16 16z" />
    <glyph glyph-name="dieresis" unicode="&#xa8;" horiz-adv-x="294" 
d="M258 578c-8.66699 0 -17.6689 -0.331055 -27.002 -0.998047s-18.166 -0.333984 -26.499 0.999023s-16.333 4.16602 -24 8.49902s-14.5 11.5 -20.5 21.5v47l96 1l-32 -32c5.33301 -4 10.333 -8 15 -12s10.334 -4.66699 17.001 -2zM95.998 653.002
c-1.33301 -6.66699 -1.49902 -13.667 -0.499023 -21s1.83301 -14.5 2.5 -21.5s0 -13.667 -2 -20s-6.66699 -11.5 -14 -15.5c-13.333 3.33301 -26.333 7 -39 11s-26.334 4.33301 -41.001 1l-2 64z" />
    <glyph glyph-name="copyright" unicode="&#xa9;" horiz-adv-x="673" 
d="M608 339c-4 -30 -10.166 -61.3291 -18.499 -93.9961s-20.166 -63.334 -35.499 -92.001s-34.833 -53.834 -58.5 -75.501s-53.167 -36.834 -88.5 -45.501c-40 -10 -83.5 -13 -130.5 -9s-88.833 16 -125.5 36l-58 54.5c-18.667 18.333 -35 37.666 -49 57.999
s-24.833 42 -32.5 65s-10.834 48.167 -9.50098 75.5c-4 28.667 -2.16699 55.334 5.5 80.001s19 47.667 34 69s32.667 41.166 53 59.499s41.166 34.833 62.499 49.5c28 2.66699 55.667 7 83 13s54.333 10.333 81 13s53 2 79 -2s51.667 -14.667 77 -32c18 -16 35 -32 51 -48
s30 -33 42 -51s21.5 -37.167 28.5 -57.5s10.167 -42.5 9.5 -66.5zM516.001 210.004c6 25.333 10.168 52.0039 12.501 80.0039s1.16602 55.667 -3.50098 83s-13.167 53 -25.5 77s-30.5 44.667 -54.5 62c-16.667 12 -36 20.5 -58 25.5s-44.5 7.5 -67.5 7.5
s-45.833 -2.16699 -68.5 -6.5s-43.334 -9.5 -62.001 -15.5c-20 -6.66699 -36 -16.834 -48 -30.501s-22 -28.834 -30 -45.501s-15.333 -34 -22 -52s-14.667 -34.333 -24 -49c3.33301 -22.667 7.33301 -45.834 12 -69.501s11.334 -46.167 20.001 -67.5
s19.667 -40.833 33 -58.5s30.333 -32.167 51 -43.5c16.667 -9.33301 35.167 -16.5 55.5 -21.5s41.333 -7.66699 63 -8s43 1.16699 64 4.5s40.833 8.66602 59.5 15.999c15.333 18 32.833 35.667 52.5 53s33.167 37 40.5 59zM434.002 240.008
c5.33301 -12 6.66895 -23.1602 4.00195 -33.4932s-7.5 -19.5 -14.5 -27.5s-15.167 -15 -24.5 -21s-18 -10.667 -26 -14c-17.333 8 -36.833 12.167 -58.5 12.5s-42.5 1.83301 -62.5 4.5s-38.167 9 -54.5 19s-27.5 28.333 -33.5 55c-10.667 29.333 -15.5 59.666 -14.5 90.999
s9.83301 59.666 26.5 84.999c8 18 17.333 29.333 28 34s22.167 6.66699 34.5 6s25.166 -1.66699 38.499 -3s26.666 0.666992 39.999 6c7.33301 17.333 19 26.333 35 27s31.167 -4 45.5 -14s25.666 -24 33.999 -42s8.5 -37 0.5 -57c-9.33301 10 -20.5 21.333 -33.5 34
s-27.167 23.167 -42.5 31.5s-31.5 13 -48.5 14s-34.167 -5.16699 -51.5 -18.5c-20.667 -10.667 -34.5 -24.667 -41.5 -42s-10.167 -35.833 -9.5 -55.5s3.66699 -39.334 9 -59.001l14 -51.5c9.33301 -8.66699 20 -16.834 32 -24.501s24.333 -13.334 37 -17.001
s25.334 -4.83398 38.001 -3.50098s25 6.66602 37 15.999c9.33301 5.33301 14.333 12.333 15 21s1 17.667 1 27h46z" />
    <glyph glyph-name="logicalnot" unicode="&#xac;" horiz-adv-x="575" 
d="M494 420c-12 -16 -18.3311 -34.3369 -18.998 -55.0039s1 -41.667 5 -63s8.5 -42.166 13.5 -62.499s6.83301 -38.5 5.5 -54.5s-7.66602 -29 -18.999 -39s-31 -15.333 -59 -16c-6 20 -7.5 43.167 -4.5 69.5s4.66699 51.666 5 75.999s-3.83398 45.333 -12.501 63
s-27.667 27.834 -57 30.501c-18.667 -4.66699 -39.334 -9.16699 -62.001 -13.5s-45.667 -6.83301 -69 -7.5s-45.833 1.33301 -67.5 6s-40.834 13.334 -57.501 26.001c-6.66699 -1.33301 -10.667 -4.16602 -12 -8.49902s-2.16602 -8.83301 -2.49902 -13.5
s-1.5 -8.16699 -3.5 -10.5s-6.66699 -2.16602 -14 0.500977l-64 -2v64l182.5 4c63 1.33301 118.833 2.33301 167.5 3c12.667 -12 24.5 -17.5 35.5 -16.5s22.167 3.83301 33.5 8.5s23.166 9 35.499 13s25.5 3.33301 39.5 -2z" />
    <glyph glyph-name="registered" unicode="&#xae;" horiz-adv-x="661" 
d="M574 451c12 -32.667 18.3369 -65.5 19.0039 -98.5s-2.83301 -65.167 -10.5 -96.5s-18.667 -61.833 -33 -91.5s-30.833 -57.5 -49.5 -83.5c-10.667 -4 -20.5 -9.66699 -29.5 -17s-18.333 -14.166 -28 -20.499s-20 -11 -31 -14s-23.5 -2.16699 -37.5 2.5
c-5.33301 10.667 -6.66602 18.5 -3.99902 23.5s7 8.66699 13 11s12.667 4.16602 20 5.49902s13.666 4 18.999 8c22.667 19.333 41.334 41 56.001 65s26.667 49 36 75s16.166 52 20.499 78s7.16602 50.333 8.49902 73c-9.33301 42.667 -29.166 79.834 -59.499 111.501
s-64.833 56.834 -103.5 75.501c-69.333 10.667 -132.166 3.66699 -188.499 -21s-99.5 -67.667 -129.5 -129c4.66699 -27.333 6 -53 4 -77s-2.83301 -47 -2.5 -69s4 -43.333 11 -64s21.5 -41 43.5 -61l32 -29.5c10.667 -9.66699 21.667 -18.334 33 -26.001
s23.5 -13.334 36.5 -17.001s27.167 -4.5 42.5 -2.5c-2.66699 -8 -1.66699 -14.333 3 -19s9.33398 -9 14.001 -13c7.33301 5.33301 14.166 12.833 20.499 22.5s15.166 12.834 26.499 9.50098c9.33301 -4.66699 14.333 -11.5 15 -20.5l2 -27.5
c-30.667 -10.667 -58.834 -13.334 -84.501 -8.00098s-49.5 14.666 -71.5 27.999s-42.667 28.333 -62 45s-38.333 30.667 -57 42c-11.333 24 -22.833 50 -34.5 78s-20.5 56.667 -26.5 86s-7.83301 58.5 -5.5 87.5s11.833 56.833 28.5 83.5c9.33301 20 21 37.5 35 52.5
s29.5 28.333 46.5 40s34.667 21.834 53 30.501s36.166 16.667 53.499 24c75.333 16 144.166 10.667 206.499 -16s112.166 -72 149.499 -136zM420.004 144l-16.0029 -16.001c-18 8 -31.333 20.5 -40 37.5s-16.834 34.5 -24.501 52.5s-17.334 34.833 -29.001 50.5
s-29.5 26.5 -53.5 32.5c-8 -6.66699 -12.667 -16.334 -14 -29.001s-1.5 -26.167 -0.5 -40.5s2.16699 -28.5 3.5 -42.5s0.5 -25.167 -2.5 -33.5s-9.16699 -13.166 -18.5 -14.499s-24.333 3.33398 -45 14.001c8.66699 13.333 13.334 28.333 14.001 45s0.666992 33.667 0 51
s-0.5 34.5 0.5 51.5s5.83301 32.5 14.5 46.5c-5.33301 16.667 -8.16602 37.334 -8.49902 62.001s2.83398 45.334 9.50098 62.001l168 -27c-1.33301 -14.667 0.333984 -30.5 5.00098 -47.5s8 -33 10 -48s0.666992 -28.333 -4 -40s-16.667 -19.834 -36 -24.501l26 -74
c8.66699 -24.667 22.334 -47.334 41.001 -68.001zM334.001 320.999l-4 92.0029l-59 16c-7.33301 -4.66699 -12 -10.167 -14 -16.5s-2.83301 -13 -2.5 -20s1 -14.333 2 -22s0.5 -14.834 -1.5 -21.501c6 1.33301 12.667 1.16602 20 -0.500977s14.833 -4.16699 22.5 -7.5
s14.667 -6.83301 21 -10.5s11.5 -6.83398 15.5 -9.50098z" />
    <glyph glyph-name="Ccedilla" unicode="&#xc7;" horiz-adv-x="345" 
d="M292 203c2 -8.66699 2.66699 -18.3311 2 -28.998s-3 -20.334 -7 -29.001s-9.33301 -15.334 -16 -20.001s-15 -5.66699 -25 -3c-12 16 -21.167 29.333 -27.5 40s-8.5 24 -6.5 40zM256 458.003l-28.4971 -26.9971c-9 -8.66699 -20.833 -10.334 -35.5 -5.00098
c4.66699 14.667 2.5 26.5 -6.5 35.5l-27.5 26.5c-16.667 -1.33301 -27.667 -6.33301 -33 -15s-8.83301 -19 -10.5 -31s-3 -24.167 -4 -36.5s-5.5 -22.5 -13.5 -30.5c12 -21.333 17.833 -45.833 17.5 -73.5s-0.5 -55.167 -0.5 -82.5s2.83301 -52.833 8.5 -76.5
s20.167 -41.834 43.5 -54.501l32 34h-1c0 -1.33301 2.83301 -4.33301 8.5 -9s13.167 -5.33398 22.5 -2.00098c10 -4.66699 15.5 -12.334 16.5 -23.001s2.16699 -20.667 3.5 -30c-13.333 -17.333 -28.333 -30.333 -45 -39l-50 -27c16.667 -12 30.5 -28.833 41.5 -50.5
s13.833 -46.834 8.5 -75.501c-4.66699 -10 -11 -17.667 -19 -23s-16.667 -8.83301 -26 -10.5s-18.5 -1.16699 -27.5 1.5s-16.833 7.33398 -23.5 14.001l-16 16c4.66699 4 9.16699 8.33301 13.5 13s10.5 5.66699 18.5 3l16 -16c5.33301 9.33301 12.833 17.166 22.5 23.499
s12.834 15.166 9.50098 26.499c-3.33301 7.33301 -7.5 12 -12.5 14s-10.5 2.66699 -16.5 2s-12.167 -1.5 -18.5 -2.5s-12.5 -0.833008 -18.5 0.5c15.333 27.333 19.666 57.333 12.999 90s-17.334 61.334 -32.001 86.001c-4 -5.33301 -8.16699 -10.166 -12.5 -14.499
s-4.83301 -10.5 -1.5 -18.5c-18 25.333 -31.833 52.5 -41.5 81.5s-16.834 59 -21.501 90s-7.33398 62.833 -8.00098 95.5s-1 65.667 -1 99c7.33301 23.333 19.166 42.5 35.499 57.5s35 25.833 56 32.5s42.833 9.33398 65.5 8.00098s44.334 -6.33301 65.001 -15
c9.33301 -8.66699 18.333 -17.5 27 -26.5s11 -20.833 7 -35.5z" />
    <glyph glyph-name="germandbls" unicode="&#xdf;" 
d="M37 509l-32.0029 30.001l62 82c-4.66699 9.33301 -11.667 14 -21 14h-27c7.33301 25.333 20.5 43 39.5 53s40.333 15.5 64 16.5s47.667 -0.666992 72 -5l63.5 -11.5c14.667 -13.333 24.334 -29 29.001 -47s7 -36.833 7 -56.5s-0.666992 -39.834 -2 -60.501
s-0.333008 -40 3 -58c-8 2 -14.333 0.833008 -19 -3.5s-9 -9.16602 -13 -14.499l16 -14l-47 -34c8 -14.667 17.833 -28.5 29.5 -41.5s22.834 -26.167 33.501 -39.5s19.5 -27.333 26.5 -42s10.167 -31.334 9.5 -50.001c-12 2.66699 -21 -0.833008 -27 -10.5
s-13 -17.167 -21 -22.5c8 -6 15.167 -13.5 21.5 -22.5s15.166 -11.833 26.499 -8.5c-6 -12 -9.83301 -25.667 -11.5 -41s-4 -30.166 -7 -44.499s-8.5 -27 -16.5 -38s-21.333 -18.167 -40 -21.5c-13.333 -10.667 -28.333 -16.334 -45 -17.001s-33.667 -1 -51 -1l-1 62
c15.333 -4 27.333 -1.66699 36 7l28 27l-2 64c11.333 -2.66699 20 0.833008 26 10.5s12.667 17.5 20 23.5c-23.333 2.66699 -37 11.834 -41 27.501s-6.16699 32.667 -6.5 51s-2.83301 35.333 -7.5 51s-19.334 24.5 -44.001 26.5c8.66699 20.667 16.667 42.167 24 64.5
s12.833 45.166 16.5 68.499s4.83398 46.833 3.50098 70.5s-7 46.5 -17 68.5c-8 6 -15.167 13.833 -21.5 23.5s-15.166 12.5 -26.499 8.5c-23.333 -8.66699 -37.166 -19.667 -41.499 -33s-5.16602 -27.5 -2.49902 -42.5l8 -45c2.66699 -15 -0.666016 -28.5 -9.99902 -40.5
c2 -14 2.83301 -30.333 2.5 -49s-0.5 -38.334 -0.5 -59.001s1.33301 -41 4 -61s8 -38 16 -54c-6.66699 -2.66699 -12.834 -6.5 -18.501 -11.5s-11.5 -9.66699 -17.5 -14s-12.5 -7.5 -19.5 -9.5s-15.167 -1.33301 -24.5 2c-14.667 9.33301 -24.167 21 -28.5 35
s-6.5 28.833 -6.5 44.5s0.666992 31.834 2 48.501s0.666016 32 -2.00098 46l30 34c-6 5.33301 -12 11.166 -18 17.499s-12.667 10.833 -20 13.5c7.33301 2.66699 13.833 7.33398 19.5 14.001s11.5 13 17.5 19zM15.9971 -2.99902c1.33301 13.333 1.33105 27 -0.00195312 41
s-2.16602 28 -2.49902 42s0.333984 27.5 2.00098 40.5s6.16699 25.167 13.5 36.5l-14 13.5c-4.66699 4.33301 -6 10.5 -4 18.5l96 17l5 -208z" />
    <glyph glyph-name="aring" unicode="&#xe5;" horiz-adv-x="378" 
d="M214 612c18 -14 27.332 -31.1709 27.999 -51.5039s-4.33301 -38.166 -15 -53.499s-25.667 -25.166 -45 -29.499s-40 2.5 -62 20.5c-4 12 -8.33301 24.333 -13 37s-5.66699 26.667 -3 42c4.66699 12.667 11.334 21.334 20.001 26.001s18 7.33398 28 8.00098
s20.5 0.5 31.5 -0.5s21.167 -0.5 30.5 1.5zM303.999 102.996c-9.33301 -13.333 -13.9941 -28.501 -13.9941 -45.501v-50.5c-14 10 -28.667 17.833 -44 23.5s-28 12.334 -38 20.001s-15.833 17.5 -17.5 29.5s4.16602 29.333 17.499 52l-16 16l14 16
c-4.66699 10.667 -11.334 15.667 -20.001 15s-18 -1 -28 -1c-37.333 -30.667 -57.333 -68 -60 -112c-2 9.33301 -8.5 16.666 -19.5 21.999s-21.333 11 -31 17s-15.834 13 -18.501 21s3.66602 19.667 18.999 35c10 16.667 22.667 27.667 38 33s31.166 9.16602 47.499 11.499
s32.333 5.5 48 9.5s28.834 13.667 39.501 29c-8 10 -12.833 22.667 -14.5 38s-4 30 -7 44s-8.5 25.5 -16.5 34.5s-22.667 12.167 -44 9.5c-10.667 -10.667 -18.834 -20.834 -24.501 -30.501s-11.834 -17.667 -18.501 -24s-14.834 -10.666 -24.501 -12.999
s-23.834 -1.5 -42.501 2.5c4 22 11.667 44.5 23 67.5s29.666 37.833 54.999 44.5l79 1c2.66699 -6.66699 1.83398 -12.334 -2.49902 -17.001l-13.5 -15c6 -4 16.833 -4.5 32.5 -1.5s31.167 5 46.5 6s28.333 -1.33301 39 -7s14.334 -19.834 11.001 -42.501
c2.66699 -41.333 1.83398 -81.166 -2.49902 -119.499s-17.833 -73.166 -40.5 -104.499c5.33301 -9.33301 12.333 -14.166 21 -14.499s17.667 -0.166016 27 0.500977zM115.005 17.9951c2 -10 2.66895 -21.001 2.00195 -33.001s-3.33398 -22.5 -8.00098 -31.5
s-11.5 -15.333 -20.5 -19s-20.833 -2.5 -35.5 3.5c-42 37.333 -59 85 -51 143c14.667 4.66699 25.5 4.66699 32.5 0s12 -11.5 15 -20.5s5.16699 -18.833 6.5 -29.5s3.66602 -19.167 6.99902 -25.5s8.83301 -9.16602 16.5 -8.49902s19.5 7.66699 35.5 21zM198.007 545.994
l-48 16c1.33301 -8.66699 2 -17.5 2 -26.5s5.33301 -16.167 16 -21.5z" />
    <glyph glyph-name="ae" unicode="&#xe6;" horiz-adv-x="552" 
d="M500 124c2 -12.667 0.169922 -24.6729 -5.49707 -36.0059s-12.834 -21.833 -21.501 -31.5s-17.667 -18.5 -27 -26.5s-16.666 -15 -21.999 -21c-18.667 -11.333 -35.667 -16.166 -51 -14.499s-29.5 6 -42.5 13s-25.333 15 -37 24s-23.334 15.167 -35.001 18.5
s-23.5 2 -35.5 -4s-25 -20 -39 -42c-12 6.66699 -25.667 11 -41 13s-30 4.66699 -44 8s-26.5 9 -37.5 17s-18.167 21.333 -21.5 40c-14 22.667 -23.833 48 -29.5 76s-8.83398 56.833 -9.50098 86.5s0.666016 59.334 3.99902 89.001s7 57.5 11 83.5
c6.66699 23.333 18.5 41.333 35.5 54s36.167 21.167 57.5 25.5s43.5 5.16602 66.5 2.49902s43.833 -7 62.5 -13c12.667 -4 25.667 -4.5 39 -1.5s27.333 6.66699 42 11s29.834 8 45.501 11s32.167 2.5 49.5 -1.5c22.667 -16 39.834 -34.333 51.501 -55s20 -42.667 25 -66
s7.66699 -47.666 8 -72.999s0.5 -51 0.5 -77c-12.667 7.33301 -26.167 11.833 -40.5 13.5s-29 2.33398 -44 2.00098s-30.333 -1.16602 -46 -2.49902s-30.834 -1.33301 -45.501 0c-16 -10.667 -25 -21.834 -27 -33.501s-1 -23.667 3 -36s9.16699 -24.666 15.5 -36.999
s10.166 -24.833 11.499 -37.5c9.33301 -14.667 21 -24 35 -28s29 -4.66699 45 -2c10.667 8.66699 17.667 19 21 31s6.33301 23.333 9 34c6.66699 0.666992 12.5 -0.333008 17.5 -3l14.5 -7.5c4.66699 -2.33301 9.5 -4.16602 14.5 -5.49902s10.833 -0.666016 17.5 2.00098z
M400.003 408.994c-10.667 18.667 -24.335 27.668 -41.002 27.001s-29.667 -10.334 -39 -29.001c0 -15.333 0.166992 -29.833 0.5 -43.5s2.33301 -25.5 6 -35.5s10.167 -17.833 19.5 -23.5s23 -8.16699 41 -7.5c6.66699 6.66699 10.834 14.5 12.501 23.5
s2.33398 18.333 2.00098 28s-1 19.667 -2 30s-0.833008 20.5 0.5 30.5zM196.002 163.995c-5.33301 17.333 -6.50195 40.998 -3.50195 70.998s4.5 59.5 4.5 88.5s-4.16699 54.5 -12.5 76.5s-27.166 34 -56.499 36c-10.667 -54.667 -15.667 -113.667 -15 -177
s7.66699 -121.666 21 -174.999c16.667 -4.66699 27.834 -4.16699 33.501 1.5s9.33398 13.334 11.001 23.001s3.16699 20 4.5 31s5.66602 19.167 12.999 24.5z" />
    <glyph glyph-name="ccedilla" unicode="&#xe7;" horiz-adv-x="335" 
d="M303 123c-5.33301 2.66699 -9.66797 6.66309 -13.001 11.9961l-4 4c-3.33301 -16.667 -10 -32.667 -20 -48s-21.667 -30 -35 -44s-27.5 -26.833 -42.5 -38.5s-29.5 -22.167 -43.5 -31.5c17.333 -0.666992 29.333 -5.5 36 -14.5s10.834 -19.833 12.501 -32.5
s2.16699 -26.167 1.5 -40.5s0 -27.166 2 -38.499c-6 -7.33301 -12.833 -12.166 -20.5 -14.499s-15.667 -3.66602 -24 -3.99902s-17 -0.166016 -26 0.500977s-17.5 0.333984 -25.5 -0.999023l-16 16c0 10 4.5 15.167 13.5 15.5s18.667 0.333008 29 0s19.333 1.16699 27 4.5
s10.5 13 8.5 29c-22 2.66699 -37.667 8.5 -47 17.5s-15.333 19.667 -18 32s-3.5 25.5 -2.5 39.5s0.333008 27.667 -2 41s-7.83301 25.166 -16.5 35.499s-23.667 18.166 -45 23.499c-12.667 29.333 -21.5 60 -26.5 92s-6.33301 64 -4 96s8 63.333 17 94
s21.5 59.334 37.5 86.001c4 12 11 21 21 27s21 11 33 15s24.5 7.5 37.5 10.5s24.5 7.5 34.5 13.5c8 -5.33301 17.167 -9.33301 27.5 -12s20.5 -5.83398 30.5 -9.50098s18.667 -8.33398 26 -14.001s12 -14.167 14 -25.5c-6 -12 -7 -22.833 -3 -32.5
s8.33301 -18.834 13 -27.501s7.33398 -17.167 8.00098 -25.5s-5 -17.166 -17 -26.499c-24.667 -11.333 -42.834 -14.833 -54.501 -10.5s-19.834 12.666 -24.501 24.999s-7.66699 26 -9 41s-4 27.333 -8 37s-10.5 14.334 -19.5 14.001s-24.167 -10.166 -45.5 -29.499
c5.33301 -22.667 6.83301 -43.667 4.5 -63s-5.5 -38.5 -9.5 -57.5s-7.16699 -38.167 -9.5 -57.5s-0.833008 -40 4.5 -62l-34 -11.5c-10.667 -3.66699 -20.667 -11.167 -30 -22.5c3.33301 -7.33301 7.5 -12 12.5 -14s10.5 -2.66699 16.5 -2s12 1.5 18 2.5
s11.667 0.833008 17 -0.5c-4.66699 -15.333 -2.5 -27.5 6.5 -36.5l27.5 -26.5c11.333 0.666992 20 4 26 10s10.667 13 14 21s6.5 16.5 9.5 25.5s7.16699 16.833 12.5 23.5l-1 48c7.33301 3.33301 13.333 2.66602 18 -2.00098s9.66699 -9.33398 15 -14.001
c4 10.667 10.667 16.334 20 17.001s18.333 1 27 1c2.66699 -11.333 2.83398 -23.166 0.500977 -35.499s-0.833008 -23.166 4.5 -32.499l12 -12h1z" />
    <glyph glyph-name="divide" unicode="&#xf7;" horiz-adv-x="475" 
d="M252 515c4.66699 -18 3.66797 -34 -2.99902 -48l-20 -41h-43c-14.667 0 -26.334 7.66699 -35.001 23c0 8.66699 -0.166992 18 -0.5 28s0.333984 19.333 2.00098 28s5.16699 16.167 10.5 22.5s13.666 10.166 24.999 11.499c13.333 2 25.5 1.33301 36.5 -2
s20.167 -10.666 27.5 -21.999zM397.001 340c0 -8 -0.666016 -15.833 -1.99902 -23.5s-3.83301 -14.334 -7.5 -20.001s-8.66699 -9.5 -15 -11.5s-14.833 -1.33301 -25.5 2l-26 25c-52 -7.33301 -104 -15.166 -156 -23.499s-106.333 -10.833 -163 -7.5l-2 62
c29.333 -0.666992 60.666 -0.166992 93.999 1.5s67.333 3 102 4s69 1.16699 103 0.5s66.667 -3.66699 98 -9zM209.002 80c-8 -2.66699 -15.332 -3.33105 -21.999 -1.99805s-13 3.66602 -19 6.99902s-11.833 6.83301 -17.5 10.5s-11.5 6.5 -17.5 8.5
c-1.33301 10 -1.83301 20.333 -1.5 31s2.16602 20.5 5.49902 29.5s8.5 16.167 15.5 21.5s16.5 7.66602 28.5 6.99902c21.333 7.33301 36.333 6.66602 45 -2.00098s13 -20.167 13 -34.5s-3 -29.166 -9 -44.499s-12.667 -26 -20 -32h-1z" />
    <glyph glyph-name="oslash" unicode="&#xf8;" horiz-adv-x="378" 
d="M342 512c-17.333 -22 -27.6719 -43.498 -31.0049 -64.498s-3.16602 -42.167 0.500977 -63.5s9 -42.666 16 -63.999s12.5 -43.166 16.5 -65.499s4.66699 -45.333 2 -69s-12 -48.167 -28 -73.5c-4.66699 -12 -9.66699 -21.833 -15 -29.5s-11.166 -14.834 -17.499 -21.501
s-13.166 -13.334 -20.499 -20.001s-15.666 -15 -24.999 -25c-24 -18 -43.833 -24.667 -59.5 -20s-30.5 11.5 -44.5 20.5s-28.833 15.333 -44.5 19s-35.5 -4.5 -59.5 -24.5h-32c26.667 19.333 41.5 40.166 44.5 62.499s1.83301 45.666 -3.5 69.999
s-11.166 49.666 -17.499 75.999s-5.5 52.833 2.5 79.5l10 59c3.33301 20 8 39.5 14 58.5s14.333 36.333 25 52s25 28.5 43 38.5c10 2.66699 20.5 5.66699 31.5 9s22.167 6 33.5 8s22.333 2.16699 33 0.5s20.667 -6.16699 30 -13.5c4 -11.333 9.66699 -18.666 17 -21.999
s15.5 -4.33301 24.5 -3s18.333 4.5 28 9.5s18.5 10.5 26.5 16.5zM213.994 371.002c-2.66699 10 -3 21.002 -1 33.002s2.83301 23 2.5 33s-3.5 17.667 -9.5 23s-18.667 5.66602 -38 0.999023c-1.33301 -16 -5.5 -34.5 -12.5 -55.5s-13.333 -41.833 -19 -62.5
s-9 -40.5 -10 -59.5s3.83301 -34.5 14.5 -46.5l41.5 73c14.333 25.333 24.833 45.666 31.5 60.999zM217.994 287.004l-1.00195 -2c-7.33301 -13.333 -17.166 -27.833 -29.499 -43.5s-23 -32.167 -32 -49.5s-14.333 -35.5 -16 -54.5s4.83301 -38.5 19.5 -58.5
c23.333 8 37.333 19.5 42 34.5s6.5 32 5.5 51s-2.16699 38.833 -3.5 59.5s3.33398 41 14.001 61z" />
    <glyph glyph-name="florin" unicode="&#x192;" horiz-adv-x="350" 
d="M343 404c-10 -2 -22.0029 -1.17383 -36.0029 2.49316s-28 6.5 -42 8.5s-26.833 1.83301 -38.5 -0.5s-20.5 -10.5 -26.5 -24.5l-19.5 -232c-6.33301 -77.333 -13.166 -154.666 -20.499 -231.999c-10 -9.33301 -21.333 -18 -34 -26s-26 -14.167 -40 -18.5
s-28.167 -6 -42.5 -5s-28.166 5.83301 -41.499 14.5l-2 48c26.667 -5.33301 45 -3 55 7s16.667 23.167 20 39.5s5.33301 33.833 6 52.5s4.66699 34 12 46c1.33301 5.33301 1.66602 11.166 0.999023 17.499s-1.16699 12.5 -1.5 18.5s0.5 11.5 2.5 16.5
s6.66699 8.83301 14 11.5c-8 12 -12.333 24.667 -13 38s0.5 27 3.5 41s6.83301 27.833 11.5 41.5s8.33398 26.834 11.001 39.501l-16 16c6.66699 2.66699 11 6.66699 13 12s2.83301 11 2.5 17s-1 12 -2 18s-0.833008 11.667 0.5 17l-33 32
c-4.66699 -10 -11.334 -15.167 -20.001 -15.5s-17.667 -0.833008 -27 -1.5l-17 16c7.33301 6.66699 17.333 9.33398 30 8.00098s25 -2.16602 37 -2.49902s22.333 2 31 7s13.334 17.167 14.001 36.5c0.666992 25.333 0.333984 51.5 -0.999023 78.5s-0.5 52.833 2.5 77.5
s9.66699 47.334 20 68.001s27.5 37.334 51.5 50.001l112 2l2 -64c-36.667 2 -61 -5.16699 -73 -21.5s-18.833 -36.666 -20.5 -60.999s-1.83398 -49.833 -0.500977 -76.5s-3 -49 -13 -67l32 -30c2 4.66699 7.33301 7.83398 16 9.50098s18.167 2.66699 28.5 3
s20.333 0.333008 30 0s16.834 -0.5 21.501 -0.5v-32z" />
    <glyph glyph-name="circumflex" unicode="&#x2c6;" horiz-adv-x="294" 
d="M206 658c-11.333 -5.33301 -22.333 -5.50098 -33 -0.500977s-20.834 11.667 -30.501 20s-18.667 16.833 -27 25.5s-15.833 13.834 -22.5 15.501s-12.5 -2 -17.5 -11s-8.83301 -26.5 -11.5 -52.5l-64 -2c15.333 12.667 26.833 27.5 34.5 44.5s15.834 32.5 24.501 46.5
s20 24 34 30s35.333 4.33301 64 -5c8.66699 -18.667 19 -36.167 31 -52.5s18 -35.833 18 -58.5z" />
    <glyph glyph-name="endash" unicode="&#x2013;" horiz-adv-x="436" 
d="M397 319l-396.998 4l1 46c42.667 0 76.667 1.83301 102 5.5s48.166 7.16699 68.499 10.5s41.166 5.33301 62.499 6s49 -2 83 -8c6 -4.66699 11.167 -10.667 15.5 -18s9.16602 -14 14.499 -20s11.833 -10.333 19.5 -13s17.834 -1.66699 30.501 3v-16z" />
    <glyph glyph-name="emdash" unicode="&#x2014;" horiz-adv-x="522" 
d="M496 319l-496.001 4v46c53.333 0 96 1.83301 128 5.5s60.667 7.16699 86 10.5s51.333 5.33301 78 6s61.334 -2 104.001 -8c7.33301 -4.66699 13.666 -10.667 18.999 -18s11.333 -14 18 -20s14.834 -10.333 24.501 -13s22.5 -1.66699 38.5 3v-16z" />
    <glyph glyph-name="quoteleft" unicode="&#x2018;" horiz-adv-x="190" 
d="M136 539l-14.002 -80.001c-22.667 4.66699 -41.667 6.83398 -57 6.50098s-33.666 -3.16602 -54.999 -8.49902c-10 28.667 -12.5 54.667 -7.5 78s12.833 45.5 23.5 66.5s22 41.833 34 62.5s20.333 43 25 67h46c-5.33301 -14 -12.666 -30.5 -21.999 -49.5
s-16 -37.833 -20 -56.5s-3.16699 -35.834 2.5 -51.501s20.5 -27.167 44.5 -34.5z" />
    <glyph glyph-name="quoteright" unicode="&#x2019;" horiz-adv-x="190" 
d="M126 768c10 -28.667 12.502 -54.665 7.50195 -77.998s-12.833 -45.5 -23.5 -66.5s-22 -41.833 -34 -62.5s-20.333 -43 -25 -67h-46c5.33301 14 12.666 30.5 21.999 49.5s16 37.833 20 56.5s3.16699 36 -2.5 52s-20.5 27.333 -44.5 34l14 80
c22.667 -4.66699 41.667 -6.83398 57 -6.50098s33.666 3.16602 54.999 8.49902z" />
    <glyph glyph-name="quotedblleft" unicode="&#x201c;" horiz-adv-x="345" 
d="M304 756c-4 -10.667 -9.50293 -20.999 -16.5029 -30.999s-13.5 -20 -19.5 -30s-10.333 -20.5 -13 -31.5s-1.66699 -23.5 3 -37.5c14.667 -2 24.334 -7.83301 29.001 -17.5s7 -20.834 7 -33.501s-0.833008 -25.834 -2.5 -39.501s-1.16699 -25.5 1.5 -35.5
c-12.667 9.33301 -27.667 14 -45 14s-34.333 -0.666992 -51 -2c-16.667 21.333 -23.667 41 -21 59s8.5 35.667 17.5 53s17.667 35 26 53s9.83301 37.667 4.5 59c4 7.33301 9.33301 13.833 16 19.5s13.834 9.83398 21.501 12.501s15.334 3.16699 23.001 1.5
s14.167 -6.16699 19.5 -13.5zM115.997 591.001c-2 -17.333 -5.5 -35.8311 -10.5 -55.498s-11.833 -33.167 -20.5 -40.5c-28 -9.33301 -50.5 -5.83301 -67.5 10.5s-21.5 38.833 -13.5 67.5c-4 19.333 -4 37.166 0 53.499s9.66699 32.166 17 47.499s15 30.333 23 45
s14.667 30 20 46l32 2c2 -14.667 -0.666992 -31 -8 -49s-13.333 -35.5 -18 -52.5s-4.66699 -32.333 0 -46s20 -23.167 46 -28.5z" />
    <glyph glyph-name="quotedblright" unicode="&#x201d;" horiz-adv-x="345" 
d="M300 695c4 -19.333 4 -37.168 0 -53.501s-9.66699 -32.166 -17 -47.499s-15 -30.333 -23 -45s-14.667 -30 -20 -46l-32 -2c-2 14.667 0.666992 31 8 49s13.333 35.5 18 52.5s4.66699 32.333 0 46s-20 23.167 -46 28.5c2 17.333 5.5 35.833 10.5 55.5
s11.833 33.167 20.5 40.5c28 9.33301 50.5 5.83301 67.5 -10.5s21.5 -38.833 13.5 -67.5zM107 755.998c16.667 -21.333 23.6699 -41.001 21.0029 -59.001s-8.5 -35.667 -17.5 -53s-17.667 -35 -26 -53s-9.83301 -37.667 -4.5 -59c-4 -7.33301 -9.33301 -13.833 -16 -19.5
s-13.834 -9.83398 -21.501 -12.501s-15.334 -3.16699 -23.001 -1.5s-14.167 6.16699 -19.5 13.5c4 10.667 9.5 21 16.5 31s13.5 20 19.5 30s10.333 20.5 13 31.5s1.66699 23.5 -3 37.5c-14.667 2 -24.334 7.83301 -29.001 17.5s-7 20.834 -7 33.501
s0.833008 25.834 2.5 39.501s1.16699 25.5 -1.5 35.5c12.667 -9.33301 27.667 -14 45 -14s34.333 0.666992 51 2z" />
    <glyph glyph-name="dagger" unicode="&#x2020;" horiz-adv-x="438" 
d="M406 490c-0.666992 -5.33301 -0.5 -10.668 0.5 -16.001s1.66699 -10.833 2 -16.5s-0.166992 -10.667 -1.5 -15s-4.66602 -8.16602 -9.99902 -11.499c-14 -0.666992 -28.5 1.33301 -43.5 6s-29.667 8.5 -44 11.5s-28.5 3.5 -42.5 1.5s-27 -10 -39 -24
c5.33301 -37.333 6.83301 -74.166 4.5 -110.499l-7 -107.5c-2.33301 -35.333 -3.5 -70.666 -3.5 -105.999s5 -71 15 -107c-4 -5.33301 -8.83301 -8.83301 -14.5 -10.5s-11.667 -2.5 -18 -2.5s-13 0.333008 -20 1s-13.5 0.333984 -19.5 -0.999023
c0.666992 3.33301 0.666992 8.66602 0 15.999s-1 15 -1 23s0.666992 16.167 2 24.5s4.33301 15.166 9 20.499c6.66699 1.33301 13.5 2 20.5 2s12.5 4 16.5 12l-36 22c-5.33301 30.667 -7 60.667 -5 90s4.33301 58.333 7 87s4.16699 57.167 4.5 85.5
s-4.16699 56.833 -13.5 85.5l-82.5 -12c-27.667 -4 -56.5 -5.33301 -86.5 -4v48l168 -9c8.66699 26.667 12.5 57 11.5 91s-6.16699 63.667 -15.5 89l72 1c4.66699 -14 5.66699 -27 3 -39s-5.5 -23.833 -8.5 -35.5s-4.83301 -23.167 -5.5 -34.5s3.66602 -23 12.999 -35
l-11 -12c11.333 -9.33301 24.5 -15.666 39.5 -18.999s30.667 -4.83301 47 -4.5s32.5 2.16602 48.5 5.49902s30.667 6.66602 44 9.99902z" />
    <glyph glyph-name="bullet" unicode="&#x2022;" horiz-adv-x="319" 
d="M198 286l26.499 -20.9971c9 -7.33301 10.833 -17.333 5.5 -30l-183 24c6 4 6.83301 9.16699 2.5 15.5s-10 13.5 -17 21.5s-12.833 16.667 -17.5 26s-4 18.666 2 27.999c-8.66699 8 -14 15.167 -16 21.5s-1.5 13.666 1.5 21.999s8 18.166 15 29.499
s15.167 25.666 24.5 42.999c8.66699 -0.666992 17.167 -0.833984 25.5 -0.500977s16.5 0 24.5 -1s15.5 -3.16699 22.5 -6.5s13.167 -9.33301 18.5 -18c4.66699 8.66699 10.5 14.834 17.5 18.501s14.5 6.16699 22.5 7.5s16.333 1.83301 25 1.5
s17.334 -0.166016 26.001 0.500977v-75c4 0 9 -0.333008 15 -1s11.5 -1.66699 16.5 -3s8.83301 -3 11.5 -5s2.66699 -4.33301 0 -7l22 -38l-91 -54v1z" />
    <glyph glyph-name="ellipsis" unicode="&#x2026;" horiz-adv-x="880" 
d="M828 126c-0.666992 -9.33301 -0.333008 -19.168 1 -29.501s2.16602 -20.5 2.49902 -30.5s-0.5 -19.5 -2.5 -28.5s-6.33301 -16.833 -13 -23.5c-15.333 -5.33301 -27.666 -3.66602 -36.999 5.00098l-27 25c-5.33301 -9.33301 -12.5 -14.333 -21.5 -15l-26.5 -2l-4 96z
M480.001 23.998c-14 -4.66699 -26.333 -5.83203 -37 -3.49902s-20.667 4.83301 -30 7.5s-18.833 4.16699 -28.5 4.5s-20.5 -3.83398 -32.5 -12.501c6.66699 7.33301 11 15.5 13 24.5s2.83301 18.5 2.5 28.5s-1 20 -2 30s-0.833008 19.667 0.5 29l110 4zM129.001 16
c-24 -8 -43.833 -10 -59.5 -6s-28.167 11.667 -37.5 23s-16.5 25.333 -21.5 42s-8.5 33.667 -10.5 51l126 2z" />
  </font>
</defs>
</svg>
